<?xml version="1.0" encoding="utf-8"?>
<!-- Generator: Adobe Illustrator 24.0.1, SVG Export Plug-In . SVG Version: 6.00 Build 0)  -->
<svg version="1.1" xmlns="http://www.w3.org/2000/svg" xmlns:xlink="http://www.w3.org/1999/xlink" x="0px" y="0px"
	 viewBox="0 0 212.6 85" style="enable-background:new 0 0 212.6 85;" xml:space="preserve">
<style type="text/css">
	.st0{display:none;}
	.st1{display:inline;fill:#385D1E;}
	.st2{display:inline;}
	.st3{fill:#25467D;}
	.st4{fill:#1D1D1B;}
</style>
<g id="Ebene_2_1_" class="st0">
	<path class="st1" d="M26,36.2c0.3,0,0.5-0.2,0.5-0.5s-0.2-0.5-0.5-0.5s-0.5,0.2-0.5,0.5S25.7,36.2,26,36.2L26,36.2z"/>
	<path class="st1" d="M28.1,36.2c0.3,0,0.5-0.2,0.5-0.5s-0.2-0.5-0.5-0.5s-0.5,0.2-0.5,0.5S27.8,36.2,28.1,36.2L28.1,36.2z"/>
	<path class="st1" d="M28.1,34.7c0.3,0,0.5-0.2,0.5-0.5s-0.2-0.5-0.5-0.5s-0.5,0.2-0.5,0.5S27.8,34.7,28.1,34.7L28.1,34.7z"/>
	<path class="st1" d="M36.6,52.7c0.3,0,0.5-0.2,0.5-0.5s-0.2-0.5-0.5-0.5s-0.5,0.2-0.5,0.5S36.3,52.7,36.6,52.7L36.6,52.7z"/>
	<path class="st1" d="M34.5,54.2c0.3,0,0.5-0.2,0.5-0.5s-0.2-0.5-0.5-0.5S34,53.4,34,53.7S34.2,54.2,34.5,54.2L34.5,54.2z"/>
	<path class="st1" d="M34.5,55.7c0.3,0,0.5-0.2,0.5-0.5s-0.2-0.5-0.5-0.5S34,54.9,34,55.2S34.2,55.7,34.5,55.7L34.5,55.7z"/>
	<path class="st1" d="M34.5,52.7c0.3,0,0.5-0.2,0.5-0.5s-0.2-0.5-0.5-0.5S34,51.9,34,52.2S34.2,52.7,34.5,52.7L34.5,52.7z"/>
	<path class="st1" d="M36.6,51.2c0.3,0,0.5-0.2,0.5-0.5s-0.2-0.5-0.5-0.5s-0.5,0.2-0.5,0.5S36.3,51.2,36.6,51.2L36.6,51.2z"/>
	<path class="st1" d="M36.6,49.7c0.3,0,0.5-0.2,0.5-0.5s-0.2-0.5-0.5-0.5s-0.5,0.2-0.5,0.5S36.3,49.7,36.6,49.7L36.6,49.7z"/>
	<path class="st1" d="M36.6,45.2c0.3,0,0.5-0.2,0.5-0.5s-0.2-0.5-0.5-0.5s-0.5,0.2-0.5,0.5S36.3,45.2,36.6,45.2L36.6,45.2z"/>
	<path class="st1" d="M36.6,48.2c0.3,0,0.5-0.2,0.5-0.5s-0.2-0.5-0.5-0.5s-0.5,0.2-0.5,0.5S36.3,48.2,36.6,48.2L36.6,48.2z"/>
	<path class="st1" d="M34.5,49.7c0.3,0,0.5-0.2,0.5-0.5s-0.2-0.5-0.5-0.5S34,48.9,34,49.2S34.2,49.7,34.5,49.7L34.5,49.7z"/>
	<path class="st1" d="M34.5,51.2c0.3,0,0.5-0.2,0.5-0.5s-0.2-0.5-0.5-0.5S34,50.4,34,50.7S34.2,51.2,34.5,51.2L34.5,51.2z"/>
	<path class="st1" d="M36.6,46.7c0.3,0,0.5-0.2,0.5-0.5s-0.2-0.5-0.5-0.5s-0.5,0.2-0.5,0.5S36.3,46.7,36.6,46.7L36.6,46.7z"/>
	<path class="st1" d="M34.5,57.2c0.3,0,0.5-0.2,0.5-0.5s-0.2-0.5-0.5-0.5S34,56.4,34,56.7S34.2,57.2,34.5,57.2L34.5,57.2z"/>
	<path class="st1" d="M34.5,48.2c0.3,0,0.5-0.2,0.5-0.5s-0.2-0.5-0.5-0.5S34,47.4,34,47.7S34.2,48.2,34.5,48.2L34.5,48.2z"/>
	<path class="st1" d="M34.5,43.7c0.3,0,0.5-0.2,0.5-0.5s-0.2-0.5-0.5-0.5S34,42.9,34,43.2S34.2,43.7,34.5,43.7L34.5,43.7z"/>
	<path class="st1" d="M34.5,45.2c0.3,0,0.5-0.2,0.5-0.5s-0.2-0.5-0.5-0.5S34,44.4,34,44.7S34.2,45.2,34.5,45.2L34.5,45.2z"/>
	<path class="st1" d="M34.5,42.2c0.3,0,0.5-0.2,0.5-0.5s-0.2-0.5-0.5-0.5S34,41.4,34,41.7S34.2,42.2,34.5,42.2L34.5,42.2z"/>
	<path class="st1" d="M34.5,39.2c0.3,0,0.5-0.2,0.5-0.5s-0.2-0.5-0.5-0.5S34,38.4,34,38.7C33.9,39,34.2,39.2,34.5,39.2L34.5,39.2z"
		/>
	<path class="st1" d="M34.5,40.7c0.3,0,0.5-0.2,0.5-0.5s-0.2-0.5-0.5-0.5S34,39.9,34,40.2S34.2,40.7,34.5,40.7L34.5,40.7z"/>
	<path class="st1" d="M34.5,46.7c0.3,0,0.5-0.2,0.5-0.5s-0.2-0.5-0.5-0.5S34,45.9,34,46.2S34.2,46.7,34.5,46.7L34.5,46.7z"/>
	<path class="st1" d="M34.5,37.7c0.3,0,0.5-0.2,0.5-0.5s-0.2-0.5-0.5-0.5S34,36.9,34,37.2C33.9,37.5,34.2,37.7,34.5,37.7L34.5,37.7z
		"/>
	<path class="st1" d="M36.6,40.7c0.3,0,0.5-0.2,0.5-0.5s-0.2-0.5-0.5-0.5s-0.5,0.2-0.5,0.5S36.3,40.7,36.6,40.7L36.6,40.7z"/>
	<path class="st1" d="M36.6,42.2c0.3,0,0.5-0.2,0.5-0.5s-0.2-0.5-0.5-0.5s-0.5,0.2-0.5,0.5S36.3,42.2,36.6,42.2L36.6,42.2z"/>
	<path class="st1" d="M36.6,39.2c0.3,0,0.5-0.2,0.5-0.5s-0.2-0.5-0.5-0.5s-0.5,0.2-0.5,0.5C36,39,36.3,39.2,36.6,39.2L36.6,39.2z"/>
	<path class="st1" d="M36.6,36.2c0.3,0,0.5-0.2,0.5-0.5s-0.2-0.5-0.5-0.5s-0.5,0.2-0.5,0.5S36.3,36.2,36.6,36.2L36.6,36.2z"/>
	<path class="st1" d="M36.6,37.7c0.3,0,0.5-0.2,0.5-0.5s-0.2-0.5-0.5-0.5s-0.5,0.2-0.5,0.5C36,37.5,36.3,37.7,36.6,37.7L36.6,37.7z"
		/>
	<path class="st1" d="M36.6,43.7c0.3,0,0.5-0.2,0.5-0.5s-0.2-0.5-0.5-0.5s-0.5,0.2-0.5,0.5S36.3,43.7,36.6,43.7L36.6,43.7z"/>
	<path class="st1" d="M36.6,34.7c0.3,0,0.5-0.2,0.5-0.5s-0.2-0.5-0.5-0.5s-0.5,0.2-0.5,0.5S36.3,34.7,36.6,34.7L36.6,34.7z"/>
	<path class="st1" d="M36.6,60.2c0.3,0,0.5-0.2,0.5-0.5s-0.2-0.5-0.5-0.5s-0.5,0.2-0.5,0.5S36.3,60.2,36.6,60.2L36.6,60.2z"/>
	<path class="st1" d="M36.6,61.7c0.3,0,0.5-0.2,0.5-0.5s-0.2-0.5-0.5-0.5s-0.5,0.2-0.5,0.5S36.3,61.7,36.6,61.7L36.6,61.7z"/>
	<path class="st1" d="M36.6,58.7c0.3,0,0.5-0.2,0.5-0.5s-0.2-0.5-0.5-0.5s-0.5,0.2-0.5,0.5S36.3,58.7,36.6,58.7L36.6,58.7z"/>
	<path class="st1" d="M36.6,55.7c0.3,0,0.5-0.2,0.5-0.5s-0.2-0.5-0.5-0.5s-0.5,0.2-0.5,0.5S36.3,55.7,36.6,55.7L36.6,55.7z"/>
	<path class="st1" d="M36.6,57.2c0.3,0,0.5-0.2,0.5-0.5s-0.2-0.5-0.5-0.5s-0.5,0.2-0.5,0.5S36.3,57.2,36.6,57.2L36.6,57.2z"/>
	<path class="st1" d="M36.6,63.2c0.3,0,0.5-0.2,0.5-0.5s-0.2-0.5-0.5-0.5s-0.5,0.2-0.5,0.5S36.3,63.2,36.6,63.2L36.6,63.2z"/>
	<path class="st1" d="M36.6,54.2c0.3,0,0.5-0.2,0.5-0.5s-0.2-0.5-0.5-0.5s-0.5,0.2-0.5,0.5S36.3,54.2,36.6,54.2L36.6,54.2z"/>
	<path class="st1" d="M34.5,64.7c0.3,0,0.5-0.2,0.5-0.5s-0.2-0.5-0.5-0.5S34,63.9,34,64.2C34,64.5,34.2,64.7,34.5,64.7L34.5,64.7z"
		/>
	<path class="st1" d="M34.5,66.2c0.3,0,0.5-0.2,0.5-0.5s-0.2-0.5-0.5-0.5S34,65.4,34,65.7S34.2,66.2,34.5,66.2L34.5,66.2z"/>
	<path class="st1" d="M34.5,63.2c0.3,0,0.5-0.2,0.5-0.5s-0.2-0.5-0.5-0.5S34,62.4,34,62.7S34.2,63.2,34.5,63.2L34.5,63.2z"/>
	<path class="st1" d="M34.5,60.2c0.3,0,0.5-0.2,0.5-0.5s-0.2-0.5-0.5-0.5S34,59.4,34,59.7S34.2,60.2,34.5,60.2L34.5,60.2z"/>
	<path class="st1" d="M34.4,61.7c0.3,0,0.5-0.2,0.5-0.5s-0.2-0.5-0.5-0.5s-0.5,0.2-0.5,0.5S34.2,61.7,34.4,61.7L34.4,61.7z"/>
	<path class="st1" d="M34.4,67.7c0.3,0,0.5-0.2,0.5-0.5s-0.2-0.5-0.5-0.5s-0.5,0.2-0.5,0.5S34.2,67.7,34.4,67.7L34.4,67.7z"/>
	<path class="st1" d="M34.5,58.7c0.3,0,0.5-0.2,0.5-0.5s-0.2-0.5-0.5-0.5S34,57.9,34,58.2S34.2,58.7,34.5,58.7L34.5,58.7z"/>
	<path class="st1" d="M36.6,64.7c0.3,0,0.5-0.2,0.5-0.5s-0.2-0.5-0.5-0.5s-0.5,0.2-0.5,0.5C36.1,64.5,36.3,64.7,36.6,64.7L36.6,64.7
		z"/>
	<path class="st1" d="M30.2,36.2c0.3,0,0.5-0.2,0.5-0.5s-0.2-0.5-0.5-0.5s-0.5,0.2-0.5,0.5S29.9,36.2,30.2,36.2L30.2,36.2z"/>
	<path class="st1" d="M32.3,36.2c0.3,0,0.5-0.2,0.5-0.5s-0.2-0.5-0.5-0.5s-0.5,0.2-0.5,0.5S32,36.2,32.3,36.2L32.3,36.2z"/>
	<path class="st1" d="M30.2,34.7c0.3,0,0.5-0.2,0.5-0.5s-0.2-0.5-0.5-0.5s-0.5,0.2-0.5,0.5S29.9,34.7,30.2,34.7L30.2,34.7z"/>
	<path class="st1" d="M32.3,34.7c0.3,0,0.5-0.2,0.5-0.5s-0.2-0.5-0.5-0.5s-0.5,0.2-0.5,0.5S32,34.7,32.3,34.7L32.3,34.7z"/>
	<path class="st1" d="M34.5,34.7c0.3,0,0.5-0.2,0.5-0.5s-0.2-0.5-0.5-0.5S34,33.9,34,34.2S34.2,34.7,34.5,34.7L34.5,34.7z"/>
	<path class="st1" d="M34.5,36.2c0.3,0,0.5-0.2,0.5-0.5s-0.2-0.5-0.5-0.5S34,35.4,34,35.7S34.2,36.2,34.5,36.2L34.5,36.2z"/>
	<path class="st1" d="M42.9,51.2c0.3,0,0.5-0.2,0.5-0.5s-0.2-0.5-0.5-0.5s-0.5,0.2-0.5,0.5S42.6,51.2,42.9,51.2L42.9,51.2z"/>
	<path class="st1" d="M40.8,46.7c0.3,0,0.5-0.2,0.5-0.5s-0.2-0.5-0.5-0.5s-0.5,0.2-0.5,0.5S40.5,46.7,40.8,46.7L40.8,46.7z"/>
	<path class="st1" d="M40.8,45.2c0.3,0,0.5-0.2,0.5-0.5s-0.2-0.5-0.5-0.5s-0.5,0.2-0.5,0.5S40.5,45.2,40.8,45.2L40.8,45.2z"/>
	<path class="st1" d="M42.9,43.7c0.3,0,0.5-0.2,0.5-0.5s-0.2-0.5-0.5-0.5s-0.5,0.2-0.5,0.5S42.6,43.7,42.9,43.7L42.9,43.7z"/>
	<path class="st1" d="M40.8,43.7c0.3,0,0.5-0.2,0.5-0.5s-0.2-0.5-0.5-0.5s-0.5,0.2-0.5,0.5S40.5,43.7,40.8,43.7L40.8,43.7z"/>
	<path class="st1" d="M42.9,42.2c0.3,0,0.5-0.2,0.5-0.5s-0.2-0.5-0.5-0.5s-0.5,0.2-0.5,0.5S42.6,42.2,42.9,42.2L42.9,42.2z"/>
	<path class="st1" d="M42.9,40.7c0.3,0,0.5-0.2,0.5-0.5s-0.2-0.5-0.5-0.5s-0.5,0.2-0.5,0.5S42.6,40.7,42.9,40.7L42.9,40.7z"/>
	<path class="st1" d="M42.9,37.7c0.3,0,0.5-0.2,0.5-0.5s-0.2-0.5-0.5-0.5s-0.5,0.2-0.5,0.5S42.6,37.7,42.9,37.7L42.9,37.7z"/>
	<path class="st1" d="M42.9,39.2c0.3,0,0.5-0.2,0.5-0.5s-0.2-0.5-0.5-0.5s-0.5,0.2-0.5,0.5S42.6,39.2,42.9,39.2L42.9,39.2z"/>
	<path class="st1" d="M40.8,40.7c0.3,0,0.5-0.2,0.5-0.5s-0.2-0.5-0.5-0.5s-0.5,0.2-0.5,0.5S40.5,40.7,40.8,40.7L40.8,40.7z"/>
	<path class="st1" d="M40.8,42.2c0.3,0,0.5-0.2,0.5-0.5s-0.2-0.5-0.5-0.5s-0.5,0.2-0.5,0.5S40.5,42.2,40.8,42.2L40.8,42.2z"/>
	<path class="st1" d="M40.8,39.2c0.3,0,0.5-0.2,0.5-0.5s-0.2-0.5-0.5-0.5s-0.5,0.2-0.5,0.5S40.5,39.2,40.8,39.2L40.8,39.2z"/>
	<path class="st1" d="M42.9,52.7c0.3,0,0.5-0.2,0.5-0.5s-0.2-0.5-0.5-0.5s-0.5,0.2-0.5,0.5S42.6,52.7,42.9,52.7L42.9,52.7z"/>
	<path class="st1" d="M42.9,54.2c0.3,0,0.5-0.2,0.5-0.5s-0.2-0.5-0.5-0.5s-0.5,0.2-0.5,0.5S42.6,54.2,42.9,54.2L42.9,54.2z"/>
	<path class="st1" d="M42.9,55.7c0.3,0,0.5-0.2,0.5-0.5s-0.2-0.5-0.5-0.5s-0.5,0.2-0.5,0.5S42.6,55.7,42.9,55.7L42.9,55.7z"/>
	<path class="st1" d="M42.9,49.7c0.3,0,0.5-0.2,0.5-0.5s-0.2-0.5-0.5-0.5s-0.5,0.2-0.5,0.5S42.6,49.7,42.9,49.7L42.9,49.7z"/>
	<path class="st1" d="M42.9,48.2c0.3,0,0.5-0.2,0.5-0.5s-0.2-0.5-0.5-0.5s-0.5,0.2-0.5,0.5S42.6,48.2,42.9,48.2L42.9,48.2z"/>
	<path class="st1" d="M42.9,45.2c0.3,0,0.5-0.2,0.5-0.5s-0.2-0.5-0.5-0.5s-0.5,0.2-0.5,0.5S42.6,45.2,42.9,45.2L42.9,45.2z"/>
	<path class="st1" d="M40.8,54.2c0.3,0,0.5-0.2,0.5-0.5s-0.2-0.5-0.5-0.5s-0.5,0.2-0.5,0.5S40.5,54.2,40.8,54.2L40.8,54.2z"/>
	<path class="st1" d="M40.8,55.7c0.3,0,0.5-0.2,0.5-0.5s-0.2-0.5-0.5-0.5s-0.5,0.2-0.5,0.5S40.5,55.7,40.8,55.7L40.8,55.7z"/>
	<path class="st1" d="M40.8,52.7c0.3,0,0.5-0.2,0.5-0.5s-0.2-0.5-0.5-0.5s-0.5,0.2-0.5,0.5S40.5,52.7,40.8,52.7L40.8,52.7z"/>
	<path class="st1" d="M40.8,49.7c0.3,0,0.5-0.2,0.5-0.5s-0.2-0.5-0.5-0.5s-0.5,0.2-0.5,0.5S40.5,49.7,40.8,49.7L40.8,49.7z"/>
	<path class="st1" d="M40.8,51.2c0.3,0,0.5-0.2,0.5-0.5s-0.2-0.5-0.5-0.5s-0.5,0.2-0.5,0.5S40.5,51.2,40.8,51.2L40.8,51.2z"/>
	<path class="st1" d="M40.8,57.2c0.3,0,0.5-0.2,0.5-0.5s-0.2-0.5-0.5-0.5s-0.5,0.2-0.5,0.5S40.5,57.2,40.8,57.2L40.8,57.2z"/>
	<path class="st1" d="M40.8,48.2c0.3,0,0.5-0.2,0.5-0.5s-0.2-0.5-0.5-0.5s-0.5,0.2-0.5,0.5S40.5,48.2,40.8,48.2L40.8,48.2z"/>
	<path class="st1" d="M40.8,60.2c0.3,0,0.5-0.2,0.5-0.5s-0.2-0.5-0.5-0.5s-0.5,0.2-0.5,0.5S40.5,60.2,40.8,60.2L40.8,60.2z"/>
	<path class="st1" d="M40.8,58.7c0.3,0,0.5-0.2,0.5-0.5s-0.2-0.5-0.5-0.5s-0.5,0.2-0.5,0.5S40.5,58.7,40.8,58.7L40.8,58.7z"/>
	<path class="st1" d="M42.9,57.2c0.3,0,0.5-0.2,0.5-0.5s-0.2-0.5-0.5-0.5s-0.5,0.2-0.5,0.5S42.6,57.2,42.9,57.2L42.9,57.2z"/>
	<path class="st1" d="M42.9,46.7c0.3,0,0.5-0.2,0.5-0.5s-0.2-0.5-0.5-0.5s-0.5,0.2-0.5,0.5S42.6,46.7,42.9,46.7L42.9,46.7z"/>
	<path class="st1" d="M40.8,36.2c0.3,0,0.5-0.2,0.5-0.5s-0.2-0.5-0.5-0.5s-0.5,0.2-0.5,0.5S40.5,36.2,40.8,36.2L40.8,36.2z"/>
	<path class="st1" d="M40.8,37.7c0.3,0,0.5-0.2,0.5-0.5s-0.2-0.5-0.5-0.5s-0.5,0.2-0.5,0.5S40.5,37.7,40.8,37.7L40.8,37.7z"/>
	<path class="st1" d="M40.8,34.7c0.3,0,0.5-0.2,0.5-0.5s-0.2-0.5-0.5-0.5s-0.5,0.2-0.5,0.5S40.5,34.7,40.8,34.7L40.8,34.7z"/>
	<path class="st1" d="M40.8,33.2c0.3,0,0.5-0.2,0.5-0.5s-0.2-0.5-0.5-0.5s-0.5,0.2-0.5,0.5S40.5,33.2,40.8,33.2L40.8,33.2z"/>
	<path class="st1" d="M42.9,36.2c0.3,0,0.5-0.2,0.5-0.5s-0.2-0.5-0.5-0.5s-0.5,0.2-0.5,0.5S42.6,36.2,42.9,36.2L42.9,36.2z"/>
	<path class="st1" d="M42.9,34.7c0.3,0,0.5-0.2,0.5-0.5s-0.2-0.5-0.5-0.5s-0.5,0.2-0.5,0.5S42.6,34.7,42.9,34.7L42.9,34.7z"/>
	<path class="st1" d="M42.9,33.2c0.3,0,0.5-0.2,0.5-0.5s-0.2-0.5-0.5-0.5s-0.5,0.2-0.5,0.5S42.6,33.2,42.9,33.2L42.9,33.2z"/>
	<path class="st1" d="M32.3,24.3c0.3,0,0.5-0.2,0.5-0.5s-0.2-0.5-0.5-0.5s-0.5,0.2-0.5,0.5S32,24.3,32.3,24.3L32.3,24.3z"/>
	<path class="st1" d="M34.5,24.3c0.3,0,0.5-0.2,0.5-0.5s-0.2-0.5-0.5-0.5S34,23.5,34,23.8S34.2,24.3,34.5,24.3L34.5,24.3z"/>
	<path class="st1" d="M34.5,22.8c0.3,0,0.5-0.2,0.5-0.5s-0.2-0.5-0.5-0.5S34,22,34,22.3C33.9,22.5,34.2,22.8,34.5,22.8L34.5,22.8z"
		/>
	<path class="st1" d="M36.6,24.3c0.3,0,0.5-0.2,0.5-0.5s-0.2-0.5-0.5-0.5s-0.5,0.2-0.5,0.5S36.3,24.3,36.6,24.3L36.6,24.3z"/>
	<path class="st1" d="M38.7,24.3c0.3,0,0.5-0.2,0.5-0.5s-0.2-0.5-0.5-0.5s-0.5,0.2-0.5,0.5S38.4,24.3,38.7,24.3L38.7,24.3z"/>
	<path class="st1" d="M40.8,31.7c0.3,0,0.5-0.2,0.5-0.5s-0.2-0.5-0.5-0.5s-0.5,0.2-0.5,0.5S40.5,31.7,40.8,31.7L40.8,31.7z"/>
	<path class="st1" d="M40.8,28.7c0.3,0,0.5-0.2,0.5-0.5s-0.2-0.5-0.5-0.5s-0.5,0.2-0.5,0.5S40.5,28.7,40.8,28.7L40.8,28.7z"/>
	<path class="st1" d="M40.8,30.2c0.3,0,0.5-0.2,0.5-0.5s-0.2-0.5-0.5-0.5s-0.5,0.2-0.5,0.5S40.5,30.2,40.8,30.2L40.8,30.2z"/>
	<path class="st1" d="M40.8,27.2c0.3,0,0.5-0.2,0.5-0.5s-0.2-0.5-0.5-0.5s-0.5,0.2-0.5,0.5S40.5,27.2,40.8,27.2L40.8,27.2z"/>
	<path class="st1" d="M40.8,25.8c0.3,0,0.5-0.2,0.5-0.5s-0.2-0.5-0.5-0.5s-0.5,0.2-0.5,0.5C40.3,25.5,40.5,25.8,40.8,25.8L40.8,25.8
		z"/>
	<path class="st1" d="M40.8,24.3c0.3,0,0.5-0.2,0.5-0.5s-0.2-0.5-0.5-0.5s-0.5,0.2-0.5,0.5S40.5,24.3,40.8,24.3L40.8,24.3z"/>
	<path class="st1" d="M36.6,22.8c0.3,0,0.5-0.2,0.5-0.5s-0.2-0.5-0.5-0.5s-0.5,0.2-0.5,0.5S36.3,22.8,36.6,22.8L36.6,22.8z"/>
	<path class="st1" d="M38.7,22.8c0.3,0,0.5-0.2,0.5-0.5s-0.2-0.5-0.5-0.5s-0.5,0.2-0.5,0.5C38.2,22.5,38.4,22.8,38.7,22.8L38.7,22.8
		z"/>
	<path class="st1" d="M40.8,22.8c0.3,0,0.5-0.2,0.5-0.5s-0.2-0.5-0.5-0.5s-0.5,0.2-0.5,0.5C40.3,22.5,40.5,22.8,40.8,22.8L40.8,22.8
		z"/>
	<path class="st1" d="M42.9,31.7c0.3,0,0.5-0.2,0.5-0.5s-0.2-0.5-0.5-0.5s-0.5,0.2-0.5,0.5S42.6,31.7,42.9,31.7L42.9,31.7z"/>
	<path class="st1" d="M42.9,28.7c0.3,0,0.5-0.2,0.5-0.5s-0.2-0.5-0.5-0.5s-0.5,0.2-0.5,0.5S42.6,28.7,42.9,28.7L42.9,28.7z"/>
	<path class="st1" d="M42.9,30.2c0.3,0,0.5-0.2,0.5-0.5s-0.2-0.5-0.5-0.5s-0.5,0.2-0.5,0.5S42.6,30.2,42.9,30.2L42.9,30.2z"/>
	<path class="st1" d="M42.9,27.2c0.3,0,0.5-0.2,0.5-0.5s-0.2-0.5-0.5-0.5s-0.5,0.2-0.5,0.5S42.6,27.2,42.9,27.2L42.9,27.2z"/>
	<path class="st1" d="M42.9,25.8c0.3,0,0.5-0.2,0.5-0.5s-0.2-0.5-0.5-0.5s-0.5,0.2-0.5,0.5C42.4,25.5,42.6,25.8,42.9,25.8L42.9,25.8
		z"/>
	<path class="st1" d="M42.9,24.3c0.3,0,0.5-0.2,0.5-0.5s-0.2-0.5-0.5-0.5s-0.5,0.2-0.5,0.5S42.6,24.3,42.9,24.3L42.9,24.3z"/>
	<path class="st1" d="M42.9,22.8c0.3,0,0.5-0.2,0.5-0.5s-0.2-0.5-0.5-0.5s-0.5,0.2-0.5,0.5S42.6,22.8,42.9,22.8L42.9,22.8z"/>
	<path class="st1" d="M53.5,43.7c0.3,0,0.5-0.2,0.5-0.5s-0.2-0.5-0.5-0.5S53,42.9,53,43.2S53.2,43.7,53.5,43.7L53.5,43.7z"/>
	<path class="st1" d="M53.5,45.2c0.3,0,0.5-0.2,0.5-0.5s-0.2-0.5-0.5-0.5S53,44.4,53,44.7S53.2,45.2,53.5,45.2L53.5,45.2z"/>
	<path class="st1" d="M53.5,42.2c0.3,0,0.5-0.2,0.5-0.5s-0.2-0.5-0.5-0.5S53,41.4,53,41.7S53.2,42.2,53.5,42.2L53.5,42.2z"/>
	<path class="st1" d="M53.5,39.2c0.3,0,0.5-0.2,0.5-0.5s-0.2-0.5-0.5-0.5S53,38.4,53,38.7S53.2,39.2,53.5,39.2L53.5,39.2z"/>
	<path class="st1" d="M53.5,40.7c0.3,0,0.5-0.2,0.5-0.5s-0.2-0.5-0.5-0.5S53,39.9,53,40.2S53.2,40.7,53.5,40.7L53.5,40.7z"/>
	<path class="st1" d="M53.5,37.7c0.3,0,0.5-0.2,0.5-0.5s-0.2-0.5-0.5-0.5S53,36.9,53,37.2S53.2,37.7,53.5,37.7L53.5,37.7z"/>
	<path class="st1" d="M55.6,40.7c0.3,0,0.5-0.2,0.5-0.5s-0.2-0.5-0.5-0.5s-0.5,0.2-0.5,0.5S55.4,40.7,55.6,40.7L55.6,40.7z"/>
	<path class="st1" d="M55.6,42.2c0.3,0,0.5-0.2,0.5-0.5s-0.2-0.5-0.5-0.5s-0.5,0.2-0.5,0.5S55.4,42.2,55.6,42.2L55.6,42.2z"/>
	<path class="st1" d="M55.6,39.2c0.3,0,0.5-0.2,0.5-0.5s-0.2-0.5-0.5-0.5s-0.5,0.2-0.5,0.5S55.4,39.2,55.6,39.2L55.6,39.2z"/>
	<path class="st1" d="M55.6,36.2c0.3,0,0.5-0.2,0.5-0.5s-0.2-0.5-0.5-0.5s-0.5,0.2-0.5,0.5S55.4,36.2,55.6,36.2L55.6,36.2z"/>
	<path class="st1" d="M55.6,37.7c0.3,0,0.5-0.2,0.5-0.5s-0.2-0.5-0.5-0.5s-0.5,0.2-0.5,0.5S55.4,37.7,55.6,37.7L55.6,37.7z"/>
	<path class="st1" d="M55.6,34.7c0.3,0,0.5-0.2,0.5-0.5s-0.2-0.5-0.5-0.5s-0.5,0.2-0.5,0.5S55.4,34.7,55.6,34.7L55.6,34.7z"/>
	<path class="st1" d="M53.5,34.7c0.3,0,0.5-0.2,0.5-0.5s-0.2-0.5-0.5-0.5S53,33.9,53,34.2S53.2,34.7,53.5,34.7L53.5,34.7z"/>
	<path class="st1" d="M53.5,33.2c0.3,0,0.5-0.2,0.5-0.5s-0.2-0.5-0.5-0.5S53,32.4,53,32.7S53.2,33.2,53.5,33.2L53.5,33.2z"/>
	<path class="st1" d="M53.5,36.2c0.3,0,0.5-0.2,0.5-0.5s-0.2-0.5-0.5-0.5S53,35.4,53,35.7S53.2,36.2,53.5,36.2L53.5,36.2z"/>
	<path class="st1" d="M55.6,33.2c0.3,0,0.5-0.2,0.5-0.5s-0.2-0.5-0.5-0.5s-0.5,0.2-0.5,0.5S55.4,33.2,55.6,33.2L55.6,33.2z"/>
	<path class="st1" d="M59.9,36.2c0.3,0,0.5-0.2,0.5-0.5s-0.2-0.5-0.5-0.5s-0.5,0.2-0.5,0.5S59.6,36.2,59.9,36.2L59.9,36.2z"/>
	<path class="st1" d="M59.9,37.7c0.3,0,0.5-0.2,0.5-0.5s-0.2-0.5-0.5-0.5s-0.5,0.2-0.5,0.5S59.6,37.7,59.9,37.7L59.9,37.7z"/>
	<path class="st1" d="M59.9,34.7c0.3,0,0.5-0.2,0.5-0.5s-0.2-0.5-0.5-0.5s-0.5,0.2-0.5,0.5S59.6,34.7,59.9,34.7L59.9,34.7z"/>
	<path class="st1" d="M59.9,33.2c0.3,0,0.5-0.2,0.5-0.5s-0.2-0.5-0.5-0.5s-0.5,0.2-0.5,0.5S59.6,33.2,59.9,33.2L59.9,33.2z"/>
	<path class="st1" d="M62,34.7c0.3,0,0.5-0.2,0.5-0.5s-0.2-0.5-0.5-0.5s-0.5,0.2-0.5,0.5S61.7,34.7,62,34.7L62,34.7z"/>
	<path class="st1" d="M62,33.2c0.3,0,0.5-0.2,0.5-0.5s-0.2-0.5-0.5-0.5s-0.5,0.2-0.5,0.5S61.7,33.2,62,33.2L62,33.2z"/>
	<path class="st1" d="M53.5,31.7c0.3,0,0.5-0.2,0.5-0.5s-0.2-0.5-0.5-0.5S53,30.9,53,31.2S53.2,31.7,53.5,31.7L53.5,31.7z"/>
	<path class="st1" d="M53.5,28.7c0.3,0,0.5-0.2,0.5-0.5s-0.2-0.5-0.5-0.5S53,27.9,53,28.2S53.2,28.7,53.5,28.7L53.5,28.7z"/>
	<path class="st1" d="M53.5,30.2c0.3,0,0.5-0.2,0.5-0.5s-0.2-0.5-0.5-0.5S53,29.4,53,29.7C53,30,53.2,30.2,53.5,30.2L53.5,30.2z"/>
	<path class="st1" d="M53.5,27.2c0.3,0,0.5-0.2,0.5-0.5s-0.2-0.5-0.5-0.5S53,26.4,53,26.7S53.2,27.2,53.5,27.2L53.5,27.2z"/>
	<path class="st1" d="M53.5,25.8c0.3,0,0.5-0.2,0.5-0.5s-0.2-0.5-0.5-0.5S53,24.9,53,25.2C53,25.5,53.2,25.8,53.5,25.8L53.5,25.8z"
		/>
	<path class="st1" d="M53.5,24.3c0.3,0,0.5-0.2,0.5-0.5s-0.2-0.5-0.5-0.5S53,23.4,53,23.7S53.2,24.3,53.5,24.3L53.5,24.3z"/>
	<path class="st1" d="M53.5,22.8c0.3,0,0.5-0.2,0.5-0.5s-0.2-0.5-0.5-0.5S53,21.9,53,22.2S53.2,22.8,53.5,22.8L53.5,22.8z"/>
	<path class="st1" d="M53.5,21.3c0.3,0,0.5-0.2,0.5-0.5s-0.2-0.5-0.5-0.5S53,20.4,53,20.7S53.2,21.3,53.5,21.3L53.5,21.3z"/>
	<path class="st1" d="M53.5,19.8c0.3,0,0.5-0.2,0.5-0.5s-0.2-0.5-0.5-0.5S53,18.9,53,19.2S53.2,19.8,53.5,19.8L53.5,19.8z"/>
	<path class="st1" d="M55.6,31.7c0.3,0,0.5-0.2,0.5-0.5s-0.2-0.5-0.5-0.5s-0.5,0.2-0.5,0.5S55.4,31.7,55.6,31.7L55.6,31.7z"/>
	<path class="st1" d="M55.6,28.7c0.3,0,0.5-0.2,0.5-0.5s-0.2-0.5-0.5-0.5s-0.5,0.2-0.5,0.5S55.4,28.7,55.6,28.7L55.6,28.7z"/>
	<path class="st1" d="M55.6,30.2c0.3,0,0.5-0.2,0.5-0.5s-0.2-0.5-0.5-0.5s-0.5,0.2-0.5,0.5S55.4,30.2,55.6,30.2L55.6,30.2z"/>
	<path class="st1" d="M55.6,27.2c0.3,0,0.5-0.2,0.5-0.5s-0.2-0.5-0.5-0.5s-0.5,0.2-0.5,0.5S55.4,27.2,55.6,27.2L55.6,27.2z"/>
	<path class="st1" d="M55.6,25.8c0.3,0,0.5-0.2,0.5-0.5s-0.2-0.5-0.5-0.5s-0.5,0.2-0.5,0.5C55.1,25.5,55.4,25.8,55.6,25.8L55.6,25.8
		z"/>
	<path class="st1" d="M55.6,24.3c0.3,0,0.5-0.2,0.5-0.5s-0.2-0.5-0.5-0.5s-0.5,0.2-0.5,0.5S55.4,24.3,55.6,24.3L55.6,24.3z"/>
	<path class="st1" d="M59.9,31.7c0.3,0,0.5-0.2,0.5-0.5s-0.2-0.5-0.5-0.5s-0.5,0.2-0.5,0.5S59.6,31.7,59.9,31.7L59.9,31.7z"/>
	<path class="st1" d="M59.9,28.7c0.3,0,0.5-0.2,0.5-0.5s-0.2-0.5-0.5-0.5s-0.5,0.2-0.5,0.5S59.6,28.7,59.9,28.7L59.9,28.7z"/>
	<path class="st1" d="M59.9,30.2c0.3,0,0.5-0.2,0.5-0.5s-0.2-0.5-0.5-0.5s-0.5,0.2-0.5,0.5S59.6,30.2,59.9,30.2L59.9,30.2z"/>
	<path class="st1" d="M59.9,27.2c0.3,0,0.5-0.2,0.5-0.5s-0.2-0.5-0.5-0.5s-0.5,0.2-0.5,0.5S59.6,27.2,59.9,27.2L59.9,27.2z"/>
	<path class="st1" d="M59.9,25.8c0.3,0,0.5-0.2,0.5-0.5s-0.2-0.5-0.5-0.5s-0.5,0.2-0.5,0.5C59.4,25.5,59.6,25.8,59.9,25.8L59.9,25.8
		z"/>
	<path class="st1" d="M59.9,24.3c0.3,0,0.5-0.2,0.5-0.5s-0.2-0.5-0.5-0.5s-0.5,0.2-0.5,0.5S59.6,24.3,59.9,24.3L59.9,24.3z"/>
	<path class="st1" d="M55.6,22.8c0.3,0,0.5-0.2,0.5-0.5s-0.2-0.5-0.5-0.5s-0.5,0.2-0.5,0.5C55.1,22.5,55.4,22.8,55.6,22.8L55.6,22.8
		z"/>
	<path class="st1" d="M59.9,22.8c0.3,0,0.5-0.2,0.5-0.5s-0.2-0.5-0.5-0.5s-0.5,0.2-0.5,0.5C59.4,22.5,59.6,22.8,59.9,22.8L59.9,22.8
		z"/>
	<path class="st1" d="M55.6,21.3c0.3,0,0.5-0.2,0.5-0.5s-0.2-0.5-0.5-0.5s-0.5,0.2-0.5,0.5C55.1,21,55.4,21.3,55.6,21.3L55.6,21.3z"
		/>
	<path class="st1" d="M59.9,21.3c0.3,0,0.5-0.2,0.5-0.5s-0.2-0.5-0.5-0.5s-0.5,0.2-0.5,0.5C59.4,21,59.6,21.3,59.9,21.3L59.9,21.3z"
		/>
	<path class="st1" d="M55.6,19.8c0.3,0,0.5-0.2,0.5-0.5s-0.2-0.5-0.5-0.5s-0.5,0.2-0.5,0.5C55.1,19.5,55.4,19.8,55.6,19.8L55.6,19.8
		z"/>
	<path class="st1" d="M62,31.7c0.3,0,0.5-0.2,0.5-0.5s-0.2-0.5-0.5-0.5s-0.5,0.2-0.5,0.5S61.7,31.7,62,31.7L62,31.7z"/>
	<path class="st1" d="M62,28.7c0.3,0,0.5-0.2,0.5-0.5s-0.2-0.5-0.5-0.5s-0.5,0.2-0.5,0.5S61.7,28.7,62,28.7L62,28.7z"/>
	<path class="st1" d="M62,30.2c0.3,0,0.5-0.2,0.5-0.5s-0.2-0.5-0.5-0.5s-0.5,0.2-0.5,0.5S61.7,30.2,62,30.2L62,30.2z"/>
	<path class="st1" d="M62,27.2c0.3,0,0.5-0.2,0.5-0.5s-0.2-0.5-0.5-0.5s-0.5,0.2-0.5,0.5S61.7,27.2,62,27.2L62,27.2z"/>
	<path class="st1" d="M62,25.8c0.3,0,0.5-0.2,0.5-0.5s-0.2-0.5-0.5-0.5s-0.5,0.2-0.5,0.5C61.5,25.5,61.7,25.8,62,25.8L62,25.8z"/>
	<path class="st1" d="M62,24.3c0.3,0,0.5-0.2,0.5-0.5s-0.2-0.5-0.5-0.5s-0.5,0.2-0.5,0.5S61.7,24.3,62,24.3L62,24.3z"/>
	<path class="st1" d="M62,22.8c0.3,0,0.5-0.2,0.5-0.5s-0.2-0.5-0.5-0.5s-0.5,0.2-0.5,0.5C61.5,22.5,61.7,22.8,62,22.8L62,22.8z"/>
	<path class="st1" d="M62,21.3c0.3,0,0.5-0.2,0.5-0.5s-0.2-0.5-0.5-0.5s-0.5,0.2-0.5,0.5C61.5,21,61.7,21.3,62,21.3L62,21.3z"/>
	<path class="st1" d="M62,19.8c0.3,0,0.5-0.2,0.5-0.5s-0.2-0.5-0.5-0.5s-0.5,0.2-0.5,0.5C61.5,19.5,61.7,19.8,62,19.8L62,19.8z"/>
	<path class="st1" d="M53.5,18.3c0.3,0,0.5-0.2,0.5-0.5s-0.2-0.5-0.5-0.5S53,17.4,53,17.7C53,18,53.2,18.3,53.5,18.3L53.5,18.3z"/>
	<path class="st1" d="M55.6,18.3c0.3,0,0.5-0.2,0.5-0.5s-0.2-0.5-0.5-0.5s-0.5,0.2-0.5,0.5C55.1,18,55.4,18.3,55.6,18.3L55.6,18.3z"
		/>
	<path class="st1" d="M55.6,16.8c0.3,0,0.5-0.2,0.5-0.5s-0.2-0.5-0.5-0.5s-0.5,0.2-0.5,0.5C55.1,16.5,55.4,16.8,55.6,16.8L55.6,16.8
		z"/>
	<path class="st1" d="M47.2,51.2c0.3,0,0.5-0.2,0.5-0.5s-0.2-0.5-0.5-0.5s-0.5,0.2-0.5,0.5S46.9,51.2,47.2,51.2L47.2,51.2z"/>
	<path class="st1" d="M47.2,52.7c0.3,0,0.5-0.2,0.5-0.5s-0.2-0.5-0.5-0.5s-0.5,0.2-0.5,0.5S46.9,52.7,47.2,52.7L47.2,52.7z"/>
	<path class="st1" d="M47.2,49.7c0.3,0,0.5-0.2,0.5-0.5s-0.2-0.5-0.5-0.5s-0.5,0.2-0.5,0.5S46.9,49.7,47.2,49.7L47.2,49.7z"/>
	<path class="st1" d="M47.2,48.2c0.3,0,0.5-0.2,0.5-0.5s-0.2-0.5-0.5-0.5s-0.5,0.2-0.5,0.5S46.9,48.2,47.2,48.2L47.2,48.2z"/>
	<path class="st1" d="M47.2,46.7c0.3,0,0.5-0.2,0.5-0.5s-0.2-0.5-0.5-0.5s-0.5,0.2-0.5,0.5S46.9,46.7,47.2,46.7L47.2,46.7z"/>
	<path class="st1" d="M47.2,43.7c0.3,0,0.5-0.2,0.5-0.5s-0.2-0.5-0.5-0.5s-0.5,0.2-0.5,0.5S46.9,43.7,47.2,43.7L47.2,43.7z"/>
	<path class="st1" d="M47.2,40.7c0.3,0,0.5-0.2,0.5-0.5s-0.2-0.5-0.5-0.5s-0.5,0.2-0.5,0.5S46.9,40.7,47.2,40.7L47.2,40.7z"/>
	<path class="st1" d="M47.2,39.2c0.3,0,0.5-0.2,0.5-0.5s-0.2-0.5-0.5-0.5s-0.5,0.2-0.5,0.5S46.9,39.2,47.2,39.2L47.2,39.2z"/>
	<path class="st1" d="M47.2,37.7c0.3,0,0.5-0.2,0.5-0.5s-0.2-0.5-0.5-0.5s-0.5,0.2-0.5,0.5S46.9,37.7,47.2,37.7L47.2,37.7z"/>
	<path class="st1" d="M47.2,42.2c0.3,0,0.5-0.2,0.5-0.5s-0.2-0.5-0.5-0.5s-0.5,0.2-0.5,0.5S46.9,42.2,47.2,42.2L47.2,42.2z"/>
	<path class="st1" d="M47.1,45.2c0.3,0,0.5-0.2,0.5-0.5s-0.2-0.5-0.5-0.5s-0.5,0.2-0.5,0.5S46.8,45.2,47.1,45.2L47.1,45.2z"/>
	<path class="st1" d="M47.2,36.2c0.3,0,0.5-0.2,0.5-0.5s-0.2-0.5-0.5-0.5s-0.5,0.2-0.5,0.5S46.9,36.2,47.2,36.2L47.2,36.2z"/>
	<path class="st1" d="M47.2,34.7c0.3,0,0.5-0.2,0.5-0.5s-0.2-0.5-0.5-0.5s-0.5,0.2-0.5,0.5S46.9,34.7,47.2,34.7L47.2,34.7z"/>
	<path class="st1" d="M47.2,33.2c0.3,0,0.5-0.2,0.5-0.5s-0.2-0.5-0.5-0.5s-0.5,0.2-0.5,0.5C46.6,33,46.9,33.2,47.2,33.2L47.2,33.2z"
		/>
	<path class="st1" d="M47.2,31.7c0.3,0,0.5-0.2,0.5-0.5s-0.2-0.5-0.5-0.5s-0.5,0.2-0.5,0.5C46.6,31.5,46.9,31.7,47.2,31.7L47.2,31.7
		z"/>
	<path class="st1" d="M47.2,28.7c0.3,0,0.5-0.2,0.5-0.5s-0.2-0.5-0.5-0.5s-0.5,0.2-0.5,0.5C46.6,28.5,46.9,28.7,47.2,28.7L47.2,28.7
		z"/>
	<path class="st1" d="M47.2,30.2c0.3,0,0.5-0.2,0.5-0.5s-0.2-0.5-0.5-0.5s-0.5,0.2-0.5,0.5S46.9,30.2,47.2,30.2L47.2,30.2z"/>
	<path class="st1" d="M47.2,27.2c0.3,0,0.5-0.2,0.5-0.5s-0.2-0.5-0.5-0.5s-0.5,0.2-0.5,0.5C46.6,27,46.9,27.2,47.2,27.2L47.2,27.2z"
		/>
	<path class="st1" d="M47.2,25.8c0.3,0,0.5-0.2,0.5-0.5s-0.2-0.5-0.5-0.5s-0.5,0.2-0.5,0.5C46.6,25.5,46.9,25.8,47.2,25.8L47.2,25.8
		z"/>
	<path class="st1" d="M47.2,24.3c0.3,0,0.5-0.2,0.5-0.5s-0.2-0.5-0.5-0.5s-0.5,0.2-0.5,0.5S46.9,24.3,47.2,24.3L47.2,24.3z"/>
	<path class="st1" d="M47.2,22.8c0.3,0,0.5-0.2,0.5-0.5s-0.2-0.5-0.5-0.5s-0.5,0.2-0.5,0.5C46.6,22.5,46.9,22.8,47.2,22.8L47.2,22.8
		z"/>
	<path class="st1" d="M47.2,21.3c0.3,0,0.5-0.2,0.5-0.5s-0.2-0.5-0.5-0.5s-0.5,0.2-0.5,0.5C46.6,21,46.9,21.3,47.2,21.3L47.2,21.3z"
		/>
	<path class="st1" d="M47.2,19.8c0.3,0,0.5-0.2,0.5-0.5s-0.2-0.5-0.5-0.5s-0.5,0.2-0.5,0.5C46.6,19.5,46.9,19.8,47.2,19.8L47.2,19.8
		z"/>
	<path class="st1" d="M49.3,48.2c0.3,0,0.5-0.2,0.5-0.5s-0.2-0.5-0.5-0.5s-0.5,0.2-0.5,0.5S49,48.2,49.3,48.2L49.3,48.2z"/>
	<path class="st1" d="M49.3,49.7c0.3,0,0.5-0.2,0.5-0.5s-0.2-0.5-0.5-0.5s-0.5,0.2-0.5,0.5S49,49.7,49.3,49.7L49.3,49.7z"/>
	<path class="st1" d="M49.3,46.7c0.3,0,0.5-0.2,0.5-0.5s-0.2-0.5-0.5-0.5s-0.5,0.2-0.5,0.5S49,46.7,49.3,46.7L49.3,46.7z"/>
	<path class="st1" d="M49.3,43.7c0.3,0,0.5-0.2,0.5-0.5s-0.2-0.5-0.5-0.5s-0.5,0.2-0.5,0.5S49,43.7,49.3,43.7L49.3,43.7z"/>
	<path class="st1" d="M49.3,45.2c0.3,0,0.5-0.2,0.5-0.5s-0.2-0.5-0.5-0.5s-0.5,0.2-0.5,0.5S49,45.2,49.3,45.2L49.3,45.2z"/>
	<path class="st1" d="M49.3,42.2c0.3,0,0.5-0.2,0.5-0.5s-0.2-0.5-0.5-0.5s-0.5,0.2-0.5,0.5S49,42.2,49.3,42.2L49.3,42.2z"/>
	<path class="st1" d="M49.3,40.7c0.3,0,0.5-0.2,0.5-0.5s-0.2-0.5-0.5-0.5s-0.5,0.2-0.5,0.5S49,40.7,49.3,40.7L49.3,40.7z"/>
	<path class="st1" d="M49.3,37.7c0.3,0,0.5-0.2,0.5-0.5s-0.2-0.5-0.5-0.5s-0.5,0.2-0.5,0.5S49,37.7,49.3,37.7L49.3,37.7z"/>
	<path class="st1" d="M49.3,39.2c0.3,0,0.5-0.2,0.5-0.5s-0.2-0.5-0.5-0.5s-0.5,0.2-0.5,0.5S49,39.2,49.3,39.2L49.3,39.2z"/>
	<path class="st1" d="M49.3,36.2c0.3,0,0.5-0.2,0.5-0.5s-0.2-0.5-0.5-0.5s-0.5,0.2-0.5,0.5S49,36.2,49.3,36.2L49.3,36.2z"/>
	<path class="st1" d="M49.3,34.7c0.3,0,0.5-0.2,0.5-0.5s-0.2-0.5-0.5-0.5s-0.5,0.2-0.5,0.5S49,34.7,49.3,34.7L49.3,34.7z"/>
	<path class="st1" d="M49.3,33.2c0.3,0,0.5-0.2,0.5-0.5s-0.2-0.5-0.5-0.5s-0.5,0.2-0.5,0.5S49,33.2,49.3,33.2L49.3,33.2z"/>
	<path class="st1" d="M49.3,31.7c0.3,0,0.5-0.2,0.5-0.5s-0.2-0.5-0.5-0.5s-0.5,0.2-0.5,0.5S49,31.7,49.3,31.7L49.3,31.7z"/>
	<path class="st1" d="M49.3,28.7c0.3,0,0.5-0.2,0.5-0.5s-0.2-0.5-0.5-0.5s-0.5,0.2-0.5,0.5S49,28.7,49.3,28.7L49.3,28.7z"/>
	<path class="st1" d="M49.3,30.2c0.3,0,0.5-0.2,0.5-0.5s-0.2-0.5-0.5-0.5s-0.5,0.2-0.5,0.5S49,30.2,49.3,30.2L49.3,30.2z"/>
	<path class="st1" d="M49.3,27.2c0.3,0,0.5-0.2,0.5-0.5s-0.2-0.5-0.5-0.5s-0.5,0.2-0.5,0.5S49,27.2,49.3,27.2L49.3,27.2z"/>
	<path class="st1" d="M49.3,25.8c0.3,0,0.5-0.2,0.5-0.5s-0.2-0.5-0.5-0.5s-0.5,0.2-0.5,0.5C48.8,25.5,49,25.8,49.3,25.8L49.3,25.8z"
		/>
	<path class="st1" d="M49.3,24.3c0.3,0,0.5-0.2,0.5-0.5s-0.2-0.5-0.5-0.5s-0.5,0.2-0.5,0.5S49,24.3,49.3,24.3L49.3,24.3z"/>
	<path class="st1" d="M49.3,22.8c0.3,0,0.5-0.2,0.5-0.5s-0.2-0.5-0.5-0.5s-0.5,0.2-0.5,0.5S49,22.8,49.3,22.8L49.3,22.8z"/>
	<path class="st1" d="M49.3,21.3c0.3,0,0.5-0.2,0.5-0.5s-0.2-0.5-0.5-0.5s-0.5,0.2-0.5,0.5S49,21.3,49.3,21.3L49.3,21.3z"/>
	<path class="st1" d="M49.3,19.8c0.3,0,0.5-0.2,0.5-0.5s-0.2-0.5-0.5-0.5s-0.5,0.2-0.5,0.5S49,19.8,49.3,19.8L49.3,19.8z"/>
	<path class="st1" d="M47.2,18.3c0.3,0,0.5-0.2,0.5-0.5s-0.2-0.5-0.5-0.5s-0.5,0.2-0.5,0.5C46.6,18,46.9,18.3,47.2,18.3L47.2,18.3z"
		/>
	<path class="st1" d="M47.2,16.8c0.3,0,0.5-0.2,0.5-0.5s-0.2-0.5-0.5-0.5s-0.5,0.2-0.5,0.5C46.6,16.5,46.9,16.8,47.2,16.8L47.2,16.8
		z"/>
	<path class="st1" d="M49.3,18.3c0.3,0,0.5-0.2,0.5-0.5s-0.2-0.5-0.5-0.5s-0.5,0.2-0.5,0.5C48.8,18,49,18.3,49.3,18.3L49.3,18.3z"/>
	<path class="st1" d="M49.3,16.8c0.3,0,0.5-0.2,0.5-0.5s-0.2-0.5-0.5-0.5s-0.5,0.2-0.5,0.5C48.8,16.5,49,16.8,49.3,16.8L49.3,16.8z"
		/>
	<path class="st1" d="M38.7,15.3c0.3,0,0.5-0.2,0.5-0.5s-0.2-0.5-0.5-0.5s-0.5,0.2-0.5,0.5C38.2,15,38.4,15.3,38.7,15.3L38.7,15.3z"
		/>
	<path class="st1" d="M40.8,15.3c0.3,0,0.5-0.2,0.5-0.5s-0.2-0.5-0.5-0.5s-0.5,0.2-0.5,0.5C40.3,15,40.5,15.3,40.8,15.3L40.8,15.3z"
		/>
	<path class="st1" d="M40.8,13.8c0.3,0,0.5-0.2,0.5-0.5s-0.2-0.5-0.5-0.5s-0.5,0.2-0.5,0.5C40.3,13.5,40.5,13.8,40.8,13.8L40.8,13.8
		z"/>
	<path class="st1" d="M42.9,15.3c0.3,0,0.5-0.2,0.5-0.5s-0.2-0.5-0.5-0.5s-0.5,0.2-0.5,0.5C42.4,15,42.6,15.3,42.9,15.3L42.9,15.3z"
		/>
	<path class="st1" d="M45,15.3c0.3,0,0.5-0.2,0.5-0.5s-0.2-0.5-0.5-0.5s-0.5,0.2-0.5,0.5C44.5,15,44.8,15.3,45,15.3L45,15.3z"/>
	<path class="st1" d="M47.2,15.3c0.3,0,0.5-0.2,0.5-0.5s-0.2-0.5-0.5-0.5s-0.5,0.2-0.5,0.5C46.6,15,46.9,15.3,47.2,15.3L47.2,15.3z"
		/>
	<path class="st1" d="M42.9,13.8c0.3,0,0.5-0.2,0.5-0.5s-0.2-0.5-0.5-0.5s-0.5,0.2-0.5,0.5C42.4,13.5,42.6,13.8,42.9,13.8L42.9,13.8
		z"/>
	<path class="st1" d="M45,13.8c0.3,0,0.5-0.2,0.5-0.5s-0.2-0.5-0.5-0.5s-0.5,0.2-0.5,0.5C44.5,13.5,44.8,13.8,45,13.8L45,13.8z"/>
	<path class="st1" d="M47.2,13.8c0.3,0,0.5-0.2,0.5-0.5s-0.2-0.5-0.5-0.5s-0.5,0.2-0.5,0.5C46.6,13.5,46.9,13.8,47.2,13.8L47.2,13.8
		z"/>
	<path class="st1" d="M49.3,15.3c0.3,0,0.5-0.2,0.5-0.5s-0.2-0.5-0.5-0.5s-0.5,0.2-0.5,0.5C48.8,15,49,15.3,49.3,15.3L49.3,15.3z"/>
	<path class="st1" d="M49.3,13.8c0.3,0,0.5-0.2,0.5-0.5s-0.2-0.5-0.5-0.5s-0.5,0.2-0.5,0.5C48.8,13.5,49,13.8,49.3,13.8L49.3,13.8z"
		/>
	<path class="st2" d="M76.6,9.3V4.9c0-1.4-0.8-2.5-2.3-2.5c-0.6,0-1.2,0.2-1.6,0.7V0H71v9.3h1.7V5.1c0-0.9,0.6-1.2,1.1-1.2
		s1.1,0.3,1.1,1.2v4.1L76.6,9.3L76.6,9.3z M81.5,10.5v-0.4h-4v0.4H81.5L81.5,10.5z M87.3,9.3V0h-1.7v3.1c-0.4-0.5-1-0.7-1.7-0.7
		S82.6,2.6,82.2,3c-0.7,0.7-0.7,1.8-0.7,2.8s0,2.2,0.7,2.9c0.4,0.4,1,0.6,1.7,0.6s1.2-0.2,1.7-0.7v0.6L87.3,9.3L87.3,9.3z M85.6,5.9
		c0,1.1-0.1,1.9-1.2,1.9S83.3,7,83.3,5.9S83.4,4,84.4,4C85.5,3.9,85.6,4.8,85.6,5.9L85.6,5.9z M94.2,9.3V4.8c0-1.6-1-2.4-2.9-2.4
		c-1.1,0-1.8,0.2-2.4,0.9L90,4.4c0.4-0.4,0.7-0.6,1.3-0.6c0.9,0,1.3,0.3,1.3,1.1v0.3H91c-1.6,0-2.3,0.9-2.3,2c0,0.6,0.2,1.1,0.6,1.5
		c0.4,0.4,1,0.6,1.7,0.6c0.8,0,1.2-0.2,1.7-0.6v0.6L94.2,9.3L94.2,9.3z M92.5,6.8c0,0.4-0.1,0.7-0.2,0.9C92,8,91.7,8,91.2,8
		c-0.7,0-1-0.3-1-0.8s0.3-0.8,0.9-0.8h1.3L92.5,6.8L92.5,6.8z"/>
</g>
<g id="Ebene_3" class="st0">
	<g class="st2">
		<path d="M73.3,45.8V51h-1.7v-5.2H71v-1.3h0.7v-0.8c0-0.2,0-0.5,0.1-0.7s0.2-0.4,0.4-0.6s0.4-0.3,0.6-0.4c0.2-0.1,0.5-0.2,0.9-0.2
			h0.9v1.4h-0.7c-0.4,0-0.6,0.2-0.6,0.6v0.7h1.2v1.3H73.3z"/>
		<path d="M81.3,47.7c0,0.2,0,0.5,0,0.8c0,0.3,0,0.5-0.1,0.8c0,0.2-0.1,0.5-0.2,0.7c-0.1,0.2-0.2,0.4-0.4,0.6
			c-0.2,0.2-0.4,0.3-0.7,0.4s-0.6,0.2-0.9,0.2c-0.4,0-0.7-0.1-0.9-0.2c-0.3-0.1-0.5-0.3-0.7-0.5V51h-1.6v-9.1h1.7v3
			c0.2-0.2,0.5-0.4,0.7-0.5c0.3-0.1,0.6-0.1,0.9-0.1c0.3,0,0.6,0.1,0.9,0.2s0.5,0.3,0.7,0.4c0.2,0.2,0.3,0.4,0.4,0.6
			c0.1,0.2,0.2,0.4,0.2,0.7c0,0.2,0.1,0.5,0.1,0.8C81.3,47.2,81.3,47.4,81.3,47.7z M79.6,47.7c0-0.3,0-0.5,0-0.8
			c0-0.2-0.1-0.4-0.2-0.6c-0.1-0.2-0.2-0.3-0.3-0.4c-0.1-0.1-0.3-0.1-0.6-0.1s-0.4,0-0.6,0.1c-0.1,0.1-0.3,0.2-0.3,0.4
			c-0.1,0.2-0.1,0.4-0.2,0.6c0,0.2,0,0.5,0,0.8c0,0.3,0,0.5,0,0.8c0,0.2,0.1,0.4,0.2,0.6c0.1,0.2,0.2,0.3,0.3,0.4
			c0.1,0.1,0.3,0.1,0.6,0.1s0.4,0,0.6-0.1c0.1-0.1,0.3-0.2,0.3-0.4c0.1-0.2,0.1-0.4,0.2-0.6C79.6,48.2,79.6,47.9,79.6,47.7z"/>
		<path d="M90.5,51v-4c0-0.2,0-0.4-0.1-0.6s-0.1-0.3-0.3-0.4c-0.1-0.1-0.2-0.2-0.4-0.2s-0.3-0.1-0.4-0.1c-0.1,0-0.3,0-0.4,0.1
			c-0.1,0-0.3,0.1-0.4,0.2s-0.2,0.2-0.3,0.4s-0.1,0.3-0.1,0.5V51h-1.7v-4c0-0.2,0-0.4-0.1-0.6s-0.1-0.3-0.3-0.4
			c-0.1-0.1-0.2-0.2-0.4-0.2c-0.1,0-0.3-0.1-0.4-0.1s-0.3,0-0.4,0.1s-0.3,0.1-0.4,0.2c-0.1,0.1-0.2,0.2-0.3,0.4
			c-0.1,0.2-0.1,0.3-0.1,0.6v4h-1.7v-6.7h1.6V45c0.2-0.2,0.5-0.4,0.8-0.5c0.3-0.1,0.6-0.2,0.9-0.2c0.4,0,0.7,0.1,1,0.2
			c0.3,0.1,0.5,0.3,0.8,0.6c0.3-0.3,0.6-0.5,0.9-0.6c0.3-0.1,0.7-0.2,1.1-0.2c0.3,0,0.6,0.1,0.9,0.2c0.3,0.1,0.5,0.2,0.7,0.4
			c0.3,0.3,0.5,0.6,0.6,0.9c0.1,0.3,0.2,0.7,0.2,1V51H90.5z"/>
		<path d="M97.7,51v-4c0-0.2,0-0.4-0.1-0.6s-0.1-0.3-0.3-0.4c-0.1-0.1-0.2-0.2-0.4-0.2c-0.1,0-0.3-0.1-0.4-0.1s-0.3,0-0.4,0.1
			s-0.3,0.1-0.4,0.2c-0.1,0.1-0.2,0.2-0.3,0.4c-0.1,0.2-0.1,0.3-0.1,0.6v4h-1.7v-6.7h1.6V45c0.2-0.2,0.5-0.4,0.8-0.5
			s0.6-0.2,0.9-0.2c0.3,0,0.6,0.1,0.9,0.2c0.3,0.1,0.5,0.2,0.7,0.4c0.3,0.3,0.5,0.6,0.5,0.9c0.1,0.3,0.1,0.7,0.1,1V51H97.7z"/>
	</g>
	<g class="st2">
		<path d="M71.8,55.4v1.9h2.3v0.5h-2.3v2.3h-0.6v-5.2h3.2v0.5H71.8z"/>
		<path d="M78,60.1L77.6,59h-2.3l-0.4,1.2h-0.6l1.9-5.2h0.5l1.9,5.2H78z M76.5,55.7l-1,2.8h1.9L76.5,55.7z"/>
		<path d="M82.7,58.6c0,0.2-0.1,0.5-0.2,0.7c-0.1,0.2-0.2,0.4-0.4,0.5c-0.2,0.1-0.3,0.2-0.5,0.3c-0.2,0.1-0.4,0.1-0.6,0.1
			c-0.3,0-0.5,0-0.7-0.1s-0.4-0.2-0.6-0.4c-0.1-0.1-0.2-0.2-0.3-0.4c-0.1-0.1-0.1-0.3-0.1-0.4c0-0.2-0.1-0.3-0.1-0.6s0-0.4,0-0.7
			c0-0.3,0-0.5,0-0.7c0-0.2,0-0.4,0.1-0.6c0-0.2,0.1-0.3,0.1-0.4c0.1-0.1,0.2-0.3,0.3-0.4c0.2-0.2,0.4-0.3,0.6-0.4
			c0.2-0.1,0.5-0.1,0.7-0.1c0.2,0,0.4,0,0.6,0.1c0.2,0.1,0.4,0.2,0.5,0.3c0.2,0.1,0.3,0.3,0.4,0.5c0.1,0.2,0.2,0.4,0.2,0.7h-0.6
			c-0.1-0.3-0.2-0.6-0.4-0.8c-0.2-0.2-0.5-0.3-0.8-0.3c-0.2,0-0.3,0-0.5,0.1c-0.2,0.1-0.3,0.2-0.4,0.3c-0.1,0.1-0.1,0.2-0.2,0.3
			c0,0.1-0.1,0.2-0.1,0.3c0,0.1,0,0.3,0,0.5c0,0.2,0,0.4,0,0.7c0,0.3,0,0.5,0,0.7c0,0.2,0,0.3,0,0.5c0,0.1,0.1,0.2,0.1,0.3
			c0,0.1,0.1,0.2,0.2,0.3c0.1,0.1,0.2,0.2,0.4,0.3c0.2,0.1,0.3,0.1,0.5,0.1c0.3,0,0.6-0.1,0.8-0.3c0.2-0.2,0.4-0.4,0.4-0.8H82.7z"/>
		<path d="M86.9,60.1v-2.4h-2.5v2.4h-0.6v-5.2h0.6v2.3h2.5v-2.3h0.6v5.2H86.9z"/>
		<path d="M92.4,58.7c0,0.2,0,0.4-0.1,0.6c-0.1,0.2-0.2,0.3-0.3,0.5c-0.1,0.1-0.3,0.2-0.5,0.3c-0.2,0.1-0.4,0.1-0.6,0.1h-2v-5.2h2
			c0.2,0,0.4,0,0.6,0.1c0.2,0.1,0.4,0.2,0.5,0.3s0.2,0.3,0.3,0.4c0.1,0.2,0.1,0.4,0.1,0.6c0,0.3-0.1,0.5-0.2,0.7
			c-0.1,0.2-0.3,0.3-0.5,0.4c0.2,0.1,0.5,0.2,0.6,0.5C92.4,58.1,92.4,58.4,92.4,58.7z M91.8,56.3c0-0.2,0-0.3-0.1-0.4
			c-0.1-0.1-0.1-0.2-0.2-0.3s-0.2-0.1-0.3-0.2s-0.3-0.1-0.4-0.1h-1.4v1.8h1.4c0.1,0,0.3,0,0.4-0.1c0.1,0,0.2-0.1,0.3-0.2
			s0.2-0.2,0.2-0.3C91.8,56.6,91.8,56.5,91.8,56.3z M91.9,58.7c0-0.3-0.1-0.5-0.3-0.7c-0.2-0.2-0.4-0.3-0.8-0.3h-1.4v1.9h1.4
			c0.3,0,0.6-0.1,0.8-0.3C91.8,59.2,91.9,59,91.9,58.7z"/>
		<path d="M93.7,60.1v-5.2h3.2v0.5h-2.7v1.8h2.3v0.5h-2.3v1.9h2.7v0.5H93.7z"/>
		<path d="M101,60.1l-1.2-2.3h-1.2v2.3H98v-5.2h2c0.2,0,0.4,0,0.6,0.1c0.2,0.1,0.4,0.2,0.5,0.3s0.2,0.3,0.3,0.5
			c0.1,0.2,0.1,0.4,0.1,0.6c0,0.4-0.1,0.7-0.3,0.9c-0.2,0.2-0.5,0.4-0.8,0.5l1.2,2.4H101z M101,56.4c0-0.3-0.1-0.6-0.3-0.7
			c-0.2-0.2-0.4-0.2-0.7-0.2h-1.4v1.9h1.4c0.3,0,0.6-0.1,0.7-0.2C100.9,56.9,101,56.7,101,56.4z"/>
		<path d="M102.7,60.1v-5.2h3.2v0.5h-2.7v1.8h2.3v0.5h-2.3v1.9h2.7v0.5H102.7z"/>
		<path d="M107,60.1v-5.2h0.6v5.2H107z"/>
		<path d="M112.4,58.6c0,0.2-0.1,0.5-0.2,0.7c-0.1,0.2-0.2,0.4-0.4,0.5c-0.2,0.1-0.3,0.2-0.5,0.3c-0.2,0.1-0.4,0.1-0.6,0.1
			c-0.3,0-0.5,0-0.7-0.1c-0.2-0.1-0.4-0.2-0.6-0.4c-0.1-0.1-0.2-0.2-0.3-0.4c-0.1-0.1-0.1-0.3-0.1-0.4c0-0.2,0-0.3-0.1-0.6
			s0-0.4,0-0.7c0-0.3,0-0.5,0-0.7c0-0.2,0-0.4,0.1-0.6c0-0.2,0.1-0.3,0.1-0.4c0.1-0.1,0.2-0.3,0.3-0.4c0.2-0.2,0.4-0.3,0.6-0.4
			c0.2-0.1,0.5-0.1,0.7-0.1c0.2,0,0.5,0,0.6,0.1c0.2,0.1,0.4,0.2,0.5,0.3c0.2,0.1,0.3,0.3,0.4,0.5c0.1,0.2,0.2,0.4,0.2,0.7h-0.6
			c-0.1-0.3-0.2-0.6-0.4-0.8c-0.2-0.2-0.5-0.3-0.8-0.3c-0.2,0-0.3,0-0.5,0.1c-0.2,0.1-0.3,0.2-0.4,0.3c-0.1,0.1-0.1,0.2-0.2,0.3
			c0,0.1-0.1,0.2-0.1,0.3c0,0.1,0,0.3,0,0.5c0,0.2,0,0.4,0,0.7c0,0.3,0,0.5,0,0.7c0,0.2,0,0.3,0,0.5s0.1,0.2,0.1,0.3
			c0,0.1,0.1,0.2,0.2,0.3c0.1,0.1,0.2,0.2,0.4,0.3c0.2,0.1,0.3,0.1,0.5,0.1c0.3,0,0.6-0.1,0.8-0.3c0.2-0.2,0.4-0.4,0.4-0.8H112.4z"
			/>
		<path d="M116.6,60.1v-2.4h-2.5v2.4h-0.6v-5.2h0.6v2.3h2.5v-2.3h0.6v5.2H116.6z"/>
		<path d="M124.2,60.1v-3.9l-1.4,3.1h-0.5l-1.4-3.1v3.9h-0.6v-5.2h0.6l1.7,3.7l1.6-3.7h0.6v5.2H124.2z"/>
		<path d="M129.2,60.1l-0.4-1.2h-2.3l-0.4,1.2h-0.6l1.9-5.2h0.5l1.9,5.2H129.2z M127.7,55.7l-1,2.8h1.9L127.7,55.7z"/>
		<path d="M131.7,55.4v4.7h-0.6v-4.7h-1.5v-0.5h3.6v0.5H131.7z"/>
		<path d="M137.1,60.1v-2.4h-2.5v2.4h-0.6v-5.2h0.6v2.3h2.5v-2.3h0.6v5.2H137.1z"/>
		<path d="M139.1,60.1v-5.2h3.2v0.5h-2.7v1.8h2.3v0.5h-2.3v1.9h2.7v0.5H139.1z"/>
		<path d="M147.3,60.1v-3.9l-1.4,3.1h-0.5l-1.4-3.1v3.9h-0.6v-5.2h0.6l1.7,3.7l1.6-3.7h0.6v5.2H147.3z"/>
		<path d="M152.3,60.1l-0.4-1.2h-2.3l-0.4,1.2h-0.6l1.9-5.2h0.5l1.9,5.2H152.3z M150.7,55.7l-1,2.8h1.9L150.7,55.7z"/>
		<path d="M154.7,55.4v4.7h-0.6v-4.7h-1.5v-0.5h3.6v0.5H154.7z"/>
		<path d="M157.1,60.1v-5.2h0.6v5.2H157.1z"/>
		<path d="M162.3,60.1l-1.6-2.8l-1.1,1.3v1.5h-0.6v-5.2h0.6v3l2.4-3h0.7l-1.6,2l1.9,3.2H162.3z"/>
		<path d="M74.8,67.4c0,0.3,0,0.5-0.1,0.7c-0.1,0.2-0.2,0.4-0.4,0.6C74.1,68.8,74,69,73.7,69c-0.2,0.1-0.5,0.1-0.7,0.1
			s-0.5,0-0.7-0.1s-0.4-0.2-0.6-0.4c-0.2-0.2-0.3-0.3-0.4-0.6c-0.1-0.2-0.1-0.5-0.1-0.7v-3.5h0.6v3.4c0,0.2,0,0.4,0.1,0.5
			c0.1,0.2,0.1,0.3,0.3,0.4c0.1,0.1,0.2,0.2,0.4,0.3c0.2,0.1,0.3,0.1,0.5,0.1c0.2,0,0.4,0,0.5-0.1c0.2-0.1,0.3-0.2,0.4-0.3
			c0.1-0.1,0.2-0.2,0.3-0.4c0.1-0.2,0.1-0.3,0.1-0.5v-3.4h0.6V67.4z"/>
		<path d="M79.5,69.1L76.7,65v4.2h-0.6v-5.2h0.5l2.8,4.2v-4.2H80v5.2H79.5z"/>
		<path d="M85,66.5c0,0.2,0,0.4,0,0.6c0,0.2,0,0.4,0,0.6c0,0.2-0.1,0.4-0.1,0.6c-0.1,0.2-0.2,0.3-0.3,0.5c-0.2,0.2-0.3,0.3-0.6,0.4
			c-0.2,0.1-0.5,0.1-0.7,0.1h-1.8v-5.2h1.8c0.3,0,0.5,0,0.7,0.1c0.2,0.1,0.4,0.2,0.6,0.4c0.1,0.1,0.2,0.3,0.3,0.4
			c0.1,0.2,0.1,0.3,0.1,0.5c0,0.2,0,0.4,0,0.5C85,66.1,85,66.3,85,66.5z M84.5,66.5c0-0.2,0-0.3,0-0.5c0-0.2,0-0.3,0-0.5
			c0-0.1-0.1-0.3-0.1-0.4c0-0.1-0.1-0.2-0.2-0.3c-0.1-0.1-0.3-0.2-0.5-0.3c-0.2-0.1-0.4-0.1-0.6-0.1H82v4.2h1.1c0.2,0,0.4,0,0.6-0.1
			c0.2-0.1,0.3-0.2,0.5-0.3c0.1-0.1,0.2-0.2,0.2-0.3c0-0.1,0.1-0.3,0.1-0.4c0-0.2,0-0.3,0-0.5C84.5,66.8,84.5,66.6,84.5,66.5z"/>
		<path d="M91.3,69.1L88.6,65v4.2H88v-5.2h0.5l2.8,4.2v-4.2h0.6v5.2H91.3z"/>
		<path d="M96.3,69.1L95.9,68h-2.3l-0.4,1.2h-0.6l1.9-5.2H95l1.9,5.2H96.3z M94.8,64.7l-1,2.8h1.9L94.8,64.7z"/>
		<path d="M98.8,64.4v4.7h-0.6v-4.7h-1.5v-0.5h3.6v0.5H98.8z"/>
		<path d="M104.7,67.4c0,0.3,0,0.5-0.1,0.7c-0.1,0.2-0.2,0.4-0.4,0.6c-0.2,0.2-0.4,0.3-0.6,0.4c-0.2,0.1-0.5,0.1-0.7,0.1
			s-0.5,0-0.7-0.1s-0.4-0.2-0.6-0.4c-0.2-0.2-0.3-0.3-0.4-0.6c-0.1-0.2-0.1-0.5-0.1-0.7v-3.5h0.6v3.4c0,0.2,0,0.4,0.1,0.5
			c0.1,0.2,0.1,0.3,0.3,0.4c0.1,0.1,0.2,0.2,0.4,0.3c0.2,0.1,0.3,0.1,0.5,0.1c0.2,0,0.4,0,0.5-0.1c0.2-0.1,0.3-0.2,0.4-0.3
			c0.1-0.1,0.2-0.2,0.3-0.4c0.1-0.2,0.1-0.3,0.1-0.5v-3.4h0.6V67.4z"/>
		<path d="M109.1,69.1l-1.2-2.3h-1.2v2.3h-0.6v-5.2h2c0.2,0,0.4,0,0.6,0.1s0.4,0.2,0.5,0.3c0.1,0.1,0.2,0.3,0.3,0.5s0.1,0.4,0.1,0.6
			c0,0.4-0.1,0.7-0.3,0.9c-0.2,0.2-0.5,0.4-0.8,0.5l1.2,2.4H109.1z M109.1,65.4c0-0.3-0.1-0.6-0.3-0.7c-0.2-0.2-0.4-0.2-0.7-0.2
			h-1.4v1.9h1.4c0.3,0,0.6-0.1,0.7-0.2C109,65.9,109.1,65.7,109.1,65.4z"/>
		<path d="M114.8,69.1h-0.5l-1.1-4.2l-1.1,4.2h-0.5l-1.3-5.2h0.6l1,4.2l1.1-4.2h0.5l1.1,4.2l1-4.2h0.6L114.8,69.1z"/>
		<path d="M116.9,69.1v-5.2h0.6v5.2H116.9z"/>
		<path d="M122.1,67.7c0,0.2,0,0.4-0.1,0.6c-0.1,0.2-0.2,0.3-0.4,0.5c-0.2,0.1-0.3,0.2-0.6,0.3c-0.2,0.1-0.5,0.1-0.7,0.1
			c-0.4,0-0.7-0.1-1-0.2c-0.3-0.1-0.5-0.3-0.8-0.5l0.4-0.4c0.2,0.2,0.4,0.4,0.6,0.4s0.5,0.1,0.8,0.1c0.4,0,0.7-0.1,0.9-0.3
			c0.2-0.2,0.3-0.4,0.3-0.7c0-0.1,0-0.3-0.1-0.4c0-0.1-0.1-0.2-0.2-0.3c-0.1-0.1-0.2-0.1-0.3-0.2c-0.1,0-0.2-0.1-0.4-0.1l-0.6-0.1
			c-0.4-0.1-0.7-0.2-1-0.4c-0.3-0.2-0.4-0.6-0.4-1c0-0.2,0-0.4,0.1-0.6c0.1-0.2,0.2-0.3,0.3-0.5c0.1-0.1,0.3-0.2,0.5-0.3
			c0.2-0.1,0.4-0.1,0.7-0.1c0.3,0,0.6,0,0.9,0.1s0.5,0.2,0.7,0.4l-0.4,0.4c-0.2-0.1-0.3-0.3-0.5-0.3c-0.2-0.1-0.4-0.1-0.7-0.1
			c-0.4,0-0.6,0.1-0.8,0.3c-0.2,0.2-0.3,0.4-0.3,0.7c0,0.3,0.1,0.5,0.2,0.6c0.1,0.1,0.2,0.1,0.3,0.2s0.3,0.1,0.4,0.1l0.6,0.1
			c0.1,0,0.2,0,0.3,0.1c0.1,0,0.2,0,0.3,0.1s0.1,0.1,0.2,0.1c0.1,0,0.1,0.1,0.2,0.1C121.9,66.9,122.1,67.3,122.1,67.7z"/>
		<path d="M126.2,67.7c0,0.2,0,0.4-0.1,0.6c-0.1,0.2-0.2,0.3-0.4,0.5c-0.2,0.1-0.3,0.2-0.6,0.3c-0.2,0.1-0.5,0.1-0.7,0.1
			c-0.4,0-0.7-0.1-1-0.2c-0.3-0.1-0.5-0.3-0.8-0.5l0.4-0.4c0.2,0.2,0.4,0.4,0.6,0.4s0.5,0.1,0.8,0.1c0.4,0,0.7-0.1,0.9-0.3
			c0.2-0.2,0.3-0.4,0.3-0.7c0-0.1,0-0.3-0.1-0.4c0-0.1-0.1-0.2-0.2-0.3c-0.1-0.1-0.2-0.1-0.3-0.2c-0.1,0-0.2-0.1-0.4-0.1l-0.6-0.1
			c-0.4-0.1-0.7-0.2-1-0.4c-0.3-0.2-0.4-0.6-0.4-1c0-0.2,0-0.4,0.1-0.6c0.1-0.2,0.2-0.3,0.3-0.5c0.1-0.1,0.3-0.2,0.5-0.3
			c0.2-0.1,0.4-0.1,0.7-0.1c0.3,0,0.6,0,0.9,0.1s0.5,0.2,0.7,0.4l-0.4,0.4c-0.2-0.1-0.3-0.3-0.5-0.3c-0.2-0.1-0.4-0.1-0.7-0.1
			c-0.4,0-0.6,0.1-0.8,0.3c-0.2,0.2-0.3,0.4-0.3,0.7c0,0.3,0.1,0.5,0.2,0.6c0.1,0.1,0.2,0.1,0.3,0.2s0.3,0.1,0.4,0.1l0.6,0.1
			c0.1,0,0.2,0,0.3,0.1c0.1,0,0.2,0,0.3,0.1s0.1,0.1,0.2,0.1c0.1,0,0.1,0.1,0.2,0.1C126,66.9,126.2,67.3,126.2,67.7z"/>
		<path d="M127.2,69.1v-5.2h3.2v0.5h-2.7v1.8h2.3v0.5h-2.3v1.9h2.7v0.5H127.2z"/>
		<path d="M134.9,69.1l-2.8-4.2v4.2h-0.6v-5.2h0.5l2.8,4.2v-4.2h0.6v5.2H134.9z"/>
		<path d="M139.9,67.7c0,0.2,0,0.4-0.1,0.6c-0.1,0.2-0.2,0.3-0.4,0.5c-0.2,0.1-0.3,0.2-0.6,0.3c-0.2,0.1-0.5,0.1-0.7,0.1
			c-0.4,0-0.7-0.1-1-0.2c-0.3-0.1-0.5-0.3-0.8-0.5l0.4-0.4c0.2,0.2,0.4,0.4,0.6,0.4s0.5,0.1,0.8,0.1c0.4,0,0.7-0.1,0.9-0.3
			c0.2-0.2,0.3-0.4,0.3-0.7c0-0.1,0-0.3-0.1-0.4c0-0.1-0.1-0.2-0.2-0.3c-0.1-0.1-0.2-0.1-0.3-0.2c-0.1,0-0.2-0.1-0.4-0.1l-0.6-0.1
			c-0.4-0.1-0.7-0.2-1-0.4c-0.3-0.2-0.4-0.6-0.4-1c0-0.2,0-0.4,0.1-0.6c0.1-0.2,0.2-0.3,0.3-0.5c0.1-0.1,0.3-0.2,0.5-0.3
			c0.2-0.1,0.4-0.1,0.7-0.1c0.3,0,0.6,0,0.9,0.1s0.5,0.2,0.7,0.4l-0.4,0.4c-0.2-0.1-0.3-0.3-0.5-0.3c-0.2-0.1-0.4-0.1-0.7-0.1
			c-0.4,0-0.6,0.1-0.8,0.3c-0.2,0.2-0.3,0.4-0.3,0.7c0,0.3,0.1,0.5,0.2,0.6c0.1,0.1,0.2,0.1,0.3,0.2s0.3,0.1,0.4,0.1l0.6,0.1
			c0.1,0,0.2,0,0.3,0.1c0.1,0,0.2,0,0.3,0.1s0.1,0.1,0.2,0.1c0.1,0,0.1,0.1,0.2,0.1C139.8,66.9,139.9,67.3,139.9,67.7z"/>
		<path d="M144.5,67.6c0,0.2-0.1,0.5-0.2,0.7c-0.1,0.2-0.2,0.4-0.4,0.5c-0.2,0.1-0.3,0.2-0.5,0.3c-0.2,0.1-0.4,0.1-0.6,0.1
			c-0.3,0-0.5,0-0.7-0.1c-0.2-0.1-0.4-0.2-0.6-0.4c-0.1-0.1-0.2-0.2-0.3-0.4c-0.1-0.1-0.1-0.3-0.1-0.4c0-0.2,0-0.3-0.1-0.6
			s0-0.4,0-0.7c0-0.3,0-0.5,0-0.7c0-0.2,0-0.4,0.1-0.6c0-0.2,0.1-0.3,0.1-0.4c0.1-0.1,0.2-0.3,0.3-0.4c0.2-0.2,0.4-0.3,0.6-0.4
			c0.2-0.1,0.5-0.1,0.7-0.1c0.2,0,0.5,0,0.6,0.1c0.2,0.1,0.4,0.2,0.5,0.3c0.2,0.1,0.3,0.3,0.4,0.5c0.1,0.2,0.2,0.4,0.2,0.7h-0.6
			c-0.1-0.3-0.2-0.6-0.4-0.8c-0.2-0.2-0.5-0.3-0.8-0.3c-0.2,0-0.3,0-0.5,0.1c-0.2,0.1-0.3,0.2-0.4,0.3c-0.1,0.1-0.1,0.2-0.2,0.3
			c0,0.1-0.1,0.2-0.1,0.3c0,0.1,0,0.3,0,0.5c0,0.2,0,0.4,0,0.7c0,0.3,0,0.5,0,0.7c0,0.2,0,0.3,0,0.5s0.1,0.2,0.1,0.3
			c0,0.1,0.1,0.2,0.2,0.3c0.1,0.1,0.2,0.2,0.4,0.3c0.2,0.1,0.3,0.1,0.5,0.1c0.3,0,0.6-0.1,0.8-0.3c0.2-0.2,0.4-0.4,0.4-0.8H144.5z"
			/>
		<path d="M148.6,69.1v-2.4h-2.5v2.4h-0.6v-5.2h0.6v2.3h2.5v-2.3h0.6v5.2H148.6z"/>
		<path d="M153.6,69.1l-0.4-1.2H151l-0.4,1.2h-0.6l1.9-5.2h0.5l1.9,5.2H153.6z M152.1,64.7l-1,2.8h1.9L152.1,64.7z"/>
		<path d="M155.6,64.4v1.9h2.3v0.5h-2.3v2.3H155v-5.2h3.2v0.5H155.6z"/>
		<path d="M160.7,64.4v4.7h-0.6v-4.7h-1.5v-0.5h3.6v0.5H160.7z"/>
		<path d="M163.1,69.1v-5.2h3.2v0.5h-2.7v1.8h2.3v0.5h-2.3v1.9h2.7v0.5H163.1z"/>
		<path d="M170.7,69.1l-2.8-4.2v4.2h-0.6v-5.2h0.5l2.8,4.2v-4.2h0.6v5.2H170.7z"/>
	</g>
	<g class="st2">
		<path d="M74.3,24.2v-2.4h-2.5v2.4h-0.6V19h0.6v2.3h2.5V19h0.6v5.2H74.3z"/>
		<path d="M79.7,21.6c0,0.3,0,0.5,0,0.7s0,0.4-0.1,0.6c0,0.2-0.1,0.3-0.1,0.4c-0.1,0.1-0.2,0.3-0.3,0.4c-0.2,0.2-0.4,0.3-0.6,0.4
			s-0.5,0.1-0.7,0.1c-0.5,0-1-0.2-1.3-0.5c-0.1-0.1-0.2-0.2-0.3-0.4c-0.1-0.1-0.1-0.3-0.1-0.4c0-0.2-0.1-0.3-0.1-0.6s0-0.4,0-0.7
			c0-0.3,0-0.5,0-0.7c0-0.2,0-0.4,0.1-0.6c0-0.2,0.1-0.3,0.1-0.4c0.1-0.1,0.2-0.3,0.3-0.4c0.4-0.4,0.8-0.5,1.3-0.5s1,0.2,1.3,0.5
			c0.1,0.1,0.2,0.2,0.3,0.4c0.1,0.1,0.1,0.3,0.1,0.4c0,0.2,0,0.3,0.1,0.6C79.7,21.1,79.7,21.3,79.7,21.6z M79.2,21.6
			c0-0.3,0-0.5,0-0.7c0-0.2,0-0.3,0-0.5c0-0.1-0.1-0.2-0.1-0.3s-0.1-0.2-0.2-0.3c-0.1-0.1-0.2-0.2-0.4-0.3c-0.2-0.1-0.3-0.1-0.5-0.1
			c-0.2,0-0.3,0-0.5,0.1c-0.2,0.1-0.3,0.2-0.4,0.3c-0.1,0.1-0.1,0.2-0.2,0.3c0,0.1-0.1,0.2-0.1,0.3c0,0.1,0,0.3,0,0.5
			c0,0.2,0,0.4,0,0.7c0,0.3,0,0.5,0,0.7c0,0.2,0,0.3,0,0.5c0,0.1,0.1,0.2,0.1,0.3c0,0.1,0.1,0.2,0.2,0.3c0.1,0.1,0.2,0.2,0.4,0.3
			c0.2,0.1,0.3,0.1,0.5,0.1c0.2,0,0.3,0,0.5-0.1c0.2-0.1,0.3-0.2,0.4-0.3c0.1-0.1,0.1-0.2,0.2-0.3s0.1-0.2,0.1-0.3
			c0-0.1,0-0.3,0-0.5C79.2,22.1,79.2,21.9,79.2,21.6z"/>
		<path d="M84.4,22.7c0,0.2-0.1,0.5-0.2,0.7c-0.1,0.2-0.2,0.4-0.4,0.5c-0.2,0.1-0.3,0.2-0.5,0.3c-0.2,0.1-0.4,0.1-0.6,0.1
			c-0.3,0-0.5,0-0.7-0.1s-0.4-0.2-0.6-0.4c-0.1-0.1-0.2-0.2-0.3-0.4c-0.1-0.1-0.1-0.3-0.1-0.4c0-0.2-0.1-0.3-0.1-0.6s0-0.4,0-0.7
			c0-0.3,0-0.5,0-0.7c0-0.2,0-0.4,0.1-0.6c0-0.2,0.1-0.3,0.1-0.4c0.1-0.1,0.2-0.3,0.3-0.4c0.2-0.2,0.4-0.3,0.6-0.4
			c0.2-0.1,0.5-0.1,0.7-0.1c0.2,0,0.4,0,0.6,0.1c0.2,0.1,0.4,0.2,0.5,0.3c0.2,0.1,0.3,0.3,0.4,0.5c0.1,0.2,0.2,0.4,0.2,0.7h-0.6
			c-0.1-0.3-0.2-0.6-0.4-0.8c-0.2-0.2-0.5-0.3-0.8-0.3c-0.2,0-0.3,0-0.5,0.1c-0.2,0.1-0.3,0.2-0.4,0.3c-0.1,0.1-0.1,0.2-0.2,0.3
			c0,0.1-0.1,0.2-0.1,0.3c0,0.1,0,0.3,0,0.5c0,0.2,0,0.4,0,0.7c0,0.3,0,0.5,0,0.7c0,0.2,0,0.3,0,0.5c0,0.1,0.1,0.2,0.1,0.3
			c0,0.1,0.1,0.2,0.2,0.3c0.1,0.1,0.2,0.2,0.4,0.3c0.2,0.1,0.3,0.1,0.5,0.1c0.3,0,0.6-0.1,0.8-0.3c0.2-0.2,0.4-0.4,0.4-0.8H84.4z"/>
		<path d="M88.5,24.2v-2.4h-2.5v2.4h-0.6V19h0.6v2.3h2.5V19h0.6v5.2H88.5z"/>
		<path d="M93.6,22.8c0,0.2,0,0.4-0.1,0.6s-0.2,0.3-0.4,0.5c-0.2,0.1-0.3,0.2-0.6,0.3c-0.2,0.1-0.5,0.1-0.7,0.1
			c-0.4,0-0.7-0.1-1-0.2c-0.3-0.1-0.5-0.3-0.8-0.5l0.4-0.4c0.2,0.2,0.4,0.4,0.6,0.4s0.5,0.1,0.8,0.1c0.4,0,0.7-0.1,0.9-0.3
			s0.3-0.4,0.3-0.7c0-0.1,0-0.3-0.1-0.4c0-0.1-0.1-0.2-0.2-0.3S92.7,22,92.6,22c-0.1,0-0.2-0.1-0.4-0.1l-0.6-0.1
			c-0.4-0.1-0.7-0.2-1-0.4c-0.3-0.2-0.4-0.6-0.4-1c0-0.2,0-0.4,0.1-0.6c0.1-0.2,0.2-0.3,0.3-0.5c0.1-0.1,0.3-0.2,0.5-0.3
			c0.2-0.1,0.4-0.1,0.7-0.1c0.3,0,0.6,0,0.9,0.1s0.5,0.2,0.7,0.4l-0.4,0.4c-0.2-0.1-0.3-0.3-0.5-0.3c-0.2-0.1-0.4-0.1-0.7-0.1
			c-0.4,0-0.6,0.1-0.8,0.3c-0.2,0.2-0.3,0.4-0.3,0.7c0,0.3,0.1,0.5,0.2,0.6c0.1,0.1,0.2,0.1,0.3,0.2s0.3,0.1,0.4,0.1l0.6,0.1
			c0.1,0,0.2,0,0.3,0.1c0.1,0,0.2,0,0.3,0.1c0.1,0,0.1,0.1,0.2,0.1c0.1,0,0.1,0.1,0.2,0.1C93.5,22,93.6,22.3,93.6,22.8z"/>
		<path d="M98.2,22.7c0,0.2-0.1,0.5-0.2,0.7c-0.1,0.2-0.2,0.4-0.4,0.5c-0.2,0.1-0.3,0.2-0.5,0.3c-0.2,0.1-0.4,0.1-0.6,0.1
			c-0.3,0-0.5,0-0.7-0.1s-0.4-0.2-0.6-0.4c-0.1-0.1-0.2-0.2-0.3-0.4c-0.1-0.1-0.1-0.3-0.1-0.4c0-0.2-0.1-0.3-0.1-0.6s0-0.4,0-0.7
			c0-0.3,0-0.5,0-0.7c0-0.2,0-0.4,0.1-0.6c0-0.2,0.1-0.3,0.1-0.4c0.1-0.1,0.2-0.3,0.3-0.4c0.2-0.2,0.4-0.3,0.6-0.4
			c0.2-0.1,0.5-0.1,0.7-0.1c0.2,0,0.4,0,0.6,0.1c0.2,0.1,0.4,0.2,0.5,0.3c0.2,0.1,0.3,0.3,0.4,0.5c0.1,0.2,0.2,0.4,0.2,0.7h-0.6
			c-0.1-0.3-0.2-0.6-0.4-0.8c-0.2-0.2-0.5-0.3-0.8-0.3c-0.2,0-0.3,0-0.5,0.1c-0.2,0.1-0.3,0.2-0.4,0.3c-0.1,0.1-0.1,0.2-0.2,0.3
			c0,0.1-0.1,0.2-0.1,0.3c0,0.1,0,0.3,0,0.5c0,0.2,0,0.4,0,0.7c0,0.3,0,0.5,0,0.7c0,0.2,0,0.3,0,0.5c0,0.1,0.1,0.2,0.1,0.3
			c0,0.1,0.1,0.2,0.2,0.3c0.1,0.1,0.2,0.2,0.4,0.3c0.2,0.1,0.3,0.1,0.5,0.1c0.3,0,0.6-0.1,0.8-0.3c0.2-0.2,0.4-0.4,0.4-0.8H98.2z"/>
		<path d="M102.3,24.2v-2.4h-2.5v2.4h-0.6V19h0.6v2.3h2.5V19h0.6v5.2H102.3z"/>
		<path d="M107.9,22.5c0,0.3,0,0.5-0.1,0.7c-0.1,0.2-0.2,0.4-0.4,0.6c-0.2,0.2-0.4,0.3-0.6,0.4s-0.5,0.1-0.7,0.1s-0.5,0-0.7-0.1
			s-0.4-0.2-0.6-0.4c-0.2-0.2-0.3-0.3-0.4-0.6c-0.1-0.2-0.1-0.5-0.1-0.7V19h0.6v3.4c0,0.2,0,0.4,0.1,0.5c0.1,0.2,0.1,0.3,0.3,0.4
			c0.1,0.1,0.2,0.2,0.4,0.3c0.2,0.1,0.3,0.1,0.5,0.1c0.2,0,0.4,0,0.5-0.1c0.2-0.1,0.3-0.2,0.4-0.3c0.1-0.1,0.2-0.2,0.3-0.4
			c0.1-0.2,0.1-0.3,0.1-0.5V19h0.6V22.5z"/>
		<path d="M109.2,24.2V19h0.6v4.7h2.7v0.5H109.2z"/>
		<path d="M113.3,24.2V19h3.2v0.5h-2.7v1.8h2.3v0.5h-2.3v1.9h2.7v0.5H113.3z"/>
		<path d="M123,21.5c0,0.2,0,0.4,0,0.6c0,0.2,0,0.4,0,0.6s-0.1,0.4-0.2,0.6c-0.1,0.2-0.2,0.3-0.3,0.5c-0.2,0.2-0.3,0.3-0.6,0.4
			s-0.5,0.1-0.7,0.1h-1.8V19h1.8c0.3,0,0.5,0,0.7,0.1s0.4,0.2,0.6,0.4c0.1,0.1,0.2,0.3,0.3,0.4c0.1,0.2,0.1,0.3,0.2,0.5
			c0,0.2,0,0.4,0,0.5C123,21.2,123,21.4,123,21.5z M122.4,21.5c0-0.2,0-0.3,0-0.5c0-0.2,0-0.3,0-0.5s-0.1-0.3-0.1-0.4
			c0-0.1-0.1-0.2-0.2-0.3c-0.1-0.1-0.3-0.2-0.5-0.3c-0.2-0.1-0.4-0.1-0.6-0.1h-1.1v4.2h1.1c0.2,0,0.4,0,0.6-0.1
			c0.2-0.1,0.3-0.2,0.5-0.3c0.1-0.1,0.2-0.2,0.2-0.3s0.1-0.3,0.1-0.4s0-0.3,0-0.5C122.4,21.9,122.4,21.7,122.4,21.5z"/>
		<path d="M127.2,24.2l-0.4-1.2h-2.3l-0.4,1.2h-0.6l1.9-5.2h0.5l1.9,5.2H127.2z M125.6,19.8l-1,2.8h1.9L125.6,19.8z"/>
		<path d="M131.5,24.2l-1.2-2.3h-1.2v2.3h-0.6V19h2c0.2,0,0.4,0,0.6,0.1s0.4,0.2,0.5,0.3c0.1,0.1,0.2,0.3,0.3,0.5
			c0.1,0.2,0.1,0.4,0.1,0.6c0,0.4-0.1,0.7-0.3,0.9c-0.2,0.2-0.5,0.4-0.8,0.5l1.2,2.4H131.5z M131.5,20.5c0-0.3-0.1-0.6-0.3-0.7
			c-0.2-0.2-0.4-0.2-0.7-0.2h-1.4v1.9h1.4c0.3,0,0.6-0.1,0.7-0.2C131.4,21,131.5,20.8,131.5,20.5z"/>
		<path d="M137.1,24.2v-3.9l-1.4,3.1h-0.5l-1.4-3.1v3.9h-0.6V19h0.6l1.7,3.7l1.6-3.7h0.6v5.2H137.1z"/>
		<path d="M142.3,22.8c0,0.2,0,0.4-0.1,0.6c-0.1,0.2-0.2,0.3-0.4,0.5c-0.2,0.1-0.3,0.2-0.6,0.3c-0.2,0.1-0.5,0.1-0.7,0.1
			c-0.4,0-0.7-0.1-1-0.2c-0.3-0.1-0.5-0.3-0.8-0.5l0.4-0.4c0.2,0.2,0.4,0.4,0.6,0.4s0.5,0.1,0.8,0.1c0.4,0,0.7-0.1,0.9-0.3
			c0.2-0.2,0.3-0.4,0.3-0.7c0-0.1,0-0.3-0.1-0.4c0-0.1-0.1-0.2-0.2-0.3c-0.1-0.1-0.2-0.1-0.3-0.2c-0.1,0-0.2-0.1-0.4-0.1l-0.6-0.1
			c-0.4-0.1-0.7-0.2-1-0.4c-0.3-0.2-0.4-0.6-0.4-1c0-0.2,0-0.4,0.1-0.6c0.1-0.2,0.2-0.3,0.3-0.5c0.1-0.1,0.3-0.2,0.5-0.3
			c0.2-0.1,0.4-0.1,0.7-0.1c0.3,0,0.6,0,0.9,0.1s0.5,0.2,0.7,0.4l-0.4,0.4c-0.2-0.1-0.3-0.3-0.5-0.3c-0.2-0.1-0.4-0.1-0.7-0.1
			c-0.4,0-0.6,0.1-0.8,0.3c-0.2,0.2-0.3,0.4-0.3,0.7c0,0.3,0.1,0.5,0.2,0.6c0.1,0.1,0.2,0.1,0.3,0.2s0.3,0.1,0.4,0.1l0.6,0.1
			c0.1,0,0.2,0,0.3,0.1c0.1,0,0.2,0,0.3,0.1s0.1,0.1,0.2,0.1c0.1,0,0.1,0.1,0.2,0.1C142.1,22,142.3,22.3,142.3,22.8z"/>
		<path d="M144.9,19.5v4.7h-0.6v-4.7h-1.5V19h3.6v0.5H144.9z"/>
		<path d="M149.9,24.2l-0.4-1.2h-2.3l-0.4,1.2h-0.6l1.9-5.2h0.5l1.9,5.2H149.9z M148.3,19.8l-1,2.8h1.9L148.3,19.8z"/>
		<path d="M154.8,21.5c0,0.2,0,0.4,0,0.6c0,0.2,0,0.4,0,0.6s-0.1,0.4-0.2,0.6c-0.1,0.2-0.2,0.3-0.3,0.5c-0.2,0.2-0.3,0.3-0.6,0.4
			s-0.5,0.1-0.7,0.1h-1.8V19h1.8c0.3,0,0.5,0,0.7,0.1s0.4,0.2,0.6,0.4c0.1,0.1,0.2,0.3,0.3,0.4c0.1,0.2,0.1,0.3,0.2,0.5
			c0,0.2,0,0.4,0,0.5C154.8,21.2,154.8,21.4,154.8,21.5z M154.3,21.5c0-0.2,0-0.3,0-0.5c0-0.2,0-0.3,0-0.5s-0.1-0.3-0.1-0.4
			c0-0.1-0.1-0.2-0.2-0.3c-0.1-0.1-0.3-0.2-0.5-0.3c-0.2-0.1-0.4-0.1-0.6-0.1h-1.1v4.2h1.1c0.2,0,0.4,0,0.6-0.1
			c0.2-0.1,0.3-0.2,0.5-0.3c0.1-0.1,0.2-0.2,0.2-0.3s0.1-0.3,0.1-0.4s0-0.3,0-0.5C154.3,21.9,154.3,21.7,154.3,21.5z"/>
		<path d="M157.4,19.5v4.7h-0.6v-4.7h-1.5V19h3.6v0.5H157.4z"/>
		<path d="M74.8,31.5c0,0.3,0,0.5-0.1,0.7c-0.1,0.2-0.2,0.4-0.4,0.6c-0.2,0.2-0.4,0.3-0.6,0.4c-0.2,0.1-0.5,0.1-0.7,0.1
			s-0.5,0-0.7-0.1s-0.4-0.2-0.6-0.4c-0.2-0.2-0.3-0.3-0.4-0.6c-0.1-0.2-0.1-0.5-0.1-0.7V28h0.6v3.4c0,0.2,0,0.4,0.1,0.5
			c0.1,0.2,0.1,0.3,0.3,0.4c0.1,0.1,0.2,0.2,0.4,0.3c0.2,0.1,0.3,0.1,0.5,0.1c0.2,0,0.4,0,0.5-0.1c0.2-0.1,0.3-0.2,0.4-0.3
			c0.1-0.1,0.2-0.2,0.3-0.4c0.1-0.2,0.1-0.3,0.1-0.5V28h0.6V31.5z"/>
		<path d="M79.5,33.2L76.7,29v4.2h-0.6V28h0.5l2.8,4.2V28H80v5.2H79.5z"/>
		<path d="M81.4,33.2V28H82v5.2H81.4z"/>
		<path d="M84.9,33.2h-0.5L82.7,28h0.6l1.3,4.2L86,28h0.6L84.9,33.2z"/>
		<path d="M87.3,33.2V28h3.2v0.5h-2.7v1.8h2.3v0.5h-2.3v1.9h2.7v0.5H87.3z"/>
		<path d="M94.6,33.2l-1.2-2.3h-1.2v2.3h-0.6V28h2c0.2,0,0.4,0,0.6,0.1c0.2,0.1,0.4,0.2,0.5,0.3s0.2,0.3,0.3,0.5
			c0.1,0.2,0.1,0.4,0.1,0.6c0,0.4-0.1,0.7-0.3,0.9c-0.2,0.2-0.5,0.4-0.8,0.5l1.2,2.4H94.6z M94.6,29.5c0-0.3-0.1-0.6-0.3-0.7
			c-0.2-0.2-0.4-0.2-0.7-0.2h-1.4v1.9h1.4c0.3,0,0.6-0.1,0.7-0.2C94.5,30,94.6,29.8,94.6,29.5z"/>
		<path d="M99.5,31.8c0,0.2,0,0.4-0.1,0.6s-0.2,0.3-0.4,0.5c-0.2,0.1-0.3,0.2-0.6,0.3c-0.2,0.1-0.5,0.1-0.7,0.1
			c-0.4,0-0.7-0.1-1-0.2c-0.3-0.1-0.5-0.3-0.8-0.5l0.4-0.4c0.2,0.2,0.4,0.4,0.6,0.4s0.5,0.1,0.8,0.1c0.4,0,0.7-0.1,0.9-0.3
			s0.3-0.4,0.3-0.7c0-0.1,0-0.3-0.1-0.4c0-0.1-0.1-0.2-0.2-0.3S98.5,31,98.4,31c-0.1,0-0.2-0.1-0.4-0.1l-0.6-0.1
			c-0.4-0.1-0.7-0.2-1-0.4c-0.3-0.2-0.4-0.6-0.4-1c0-0.2,0-0.4,0.1-0.6c0.1-0.2,0.2-0.3,0.3-0.5c0.1-0.1,0.3-0.2,0.5-0.3
			c0.2-0.1,0.4-0.1,0.7-0.1c0.3,0,0.6,0,0.9,0.1s0.5,0.2,0.7,0.4l-0.4,0.4c-0.2-0.1-0.3-0.3-0.5-0.3c-0.2-0.1-0.4-0.1-0.7-0.1
			c-0.4,0-0.6,0.1-0.8,0.3c-0.2,0.2-0.3,0.4-0.3,0.7c0,0.3,0.1,0.5,0.2,0.6c0.1,0.1,0.2,0.1,0.3,0.2s0.3,0.1,0.4,0.1l0.6,0.1
			c0.1,0,0.2,0,0.3,0.1c0.1,0,0.2,0,0.3,0.1c0.1,0,0.1,0.1,0.2,0.1c0.1,0,0.1,0.1,0.2,0.1C99.3,31,99.5,31.3,99.5,31.8z"/>
		<path d="M100.6,33.2V28h0.6v5.2H100.6z"/>
		<path d="M104.1,28.5v4.7h-0.6v-4.7H102V28h3.6v0.5H104.1z"/>
		<path d="M107.9,31.1v2.1h-0.6v-2.1l-1.5-3h0.6l1.2,2.5l1.2-2.5h0.6L107.9,31.1z"/>
		<path d="M115.3,30.6c0,0.3,0,0.5,0,0.7s0,0.4-0.1,0.6c0,0.2-0.1,0.3-0.1,0.4c-0.1,0.1-0.2,0.3-0.3,0.4c-0.2,0.2-0.4,0.3-0.6,0.4
			s-0.5,0.1-0.7,0.1c-0.5,0-1-0.2-1.3-0.5c-0.1-0.1-0.2-0.2-0.3-0.4c-0.1-0.1-0.1-0.3-0.1-0.4c0-0.2,0-0.3-0.1-0.6s0-0.4,0-0.7
			c0-0.3,0-0.5,0-0.7c0-0.2,0-0.4,0.1-0.6c0-0.2,0.1-0.3,0.1-0.4c0.1-0.1,0.2-0.3,0.3-0.4c0.4-0.4,0.8-0.5,1.3-0.5s1,0.2,1.3,0.5
			c0.1,0.1,0.2,0.2,0.3,0.4c0.1,0.1,0.1,0.3,0.1,0.4c0,0.2,0,0.3,0.1,0.6C115.3,30.1,115.3,30.3,115.3,30.6z M114.8,30.6
			c0-0.3,0-0.5,0-0.7c0-0.2,0-0.3,0-0.5c0-0.1-0.1-0.2-0.1-0.3c0-0.1-0.1-0.2-0.2-0.3c-0.1-0.1-0.2-0.2-0.4-0.3s-0.3-0.1-0.5-0.1
			s-0.3,0-0.5,0.1c-0.2,0.1-0.3,0.2-0.4,0.3c-0.1,0.1-0.1,0.2-0.2,0.3c0,0.1-0.1,0.2-0.1,0.3c0,0.1,0,0.3,0,0.5c0,0.2,0,0.4,0,0.7
			c0,0.3,0,0.5,0,0.7c0,0.2,0,0.3,0,0.5c0,0.1,0.1,0.2,0.1,0.3c0,0.1,0.1,0.2,0.2,0.3c0.1,0.1,0.2,0.2,0.4,0.3
			c0.2,0.1,0.3,0.1,0.5,0.1s0.3,0,0.5-0.1s0.3-0.2,0.4-0.3c0.1-0.1,0.1-0.2,0.2-0.3c0-0.1,0.1-0.2,0.1-0.3c0-0.1,0-0.3,0-0.5
			C114.8,31.1,114.8,30.9,114.8,30.6z"/>
		<path d="M117.1,28.5v1.9h2.3v0.5h-2.3v2.3h-0.6V28h3.2v0.5H117.1z"/>
		<path d="M125.5,33.2l-0.4-1.2h-2.3l-0.4,1.2h-0.6l1.9-5.2h0.5l1.9,5.2H125.5z M124,28.8l-1,2.8h1.9L124,28.8z"/>
		<path d="M130.4,29.5c0,0.2,0,0.4-0.1,0.6s-0.2,0.4-0.3,0.5c-0.1,0.1-0.3,0.2-0.5,0.3c-0.2,0.1-0.4,0.1-0.7,0.1h-1.4v2.1h-0.6V28
			h1.9c0.2,0,0.5,0,0.7,0.1c0.2,0.1,0.4,0.2,0.5,0.3c0.1,0.1,0.3,0.3,0.3,0.5S130.4,29.3,130.4,29.5z M129.8,29.5
			c0-0.3-0.1-0.6-0.3-0.8c-0.2-0.2-0.5-0.3-0.8-0.3h-1.3v2.1h1.3c0.3,0,0.6-0.1,0.8-0.3S129.8,29.9,129.8,29.5z"/>
		<path d="M134.9,29.5c0,0.2,0,0.4-0.1,0.6s-0.2,0.4-0.3,0.5c-0.1,0.1-0.3,0.2-0.5,0.3c-0.2,0.1-0.4,0.1-0.7,0.1h-1.4v2.1h-0.6V28
			h1.9c0.2,0,0.5,0,0.7,0.1c0.2,0.1,0.4,0.2,0.5,0.3c0.1,0.1,0.3,0.3,0.3,0.5S134.9,29.3,134.9,29.5z M134.4,29.5
			c0-0.3-0.1-0.6-0.3-0.8c-0.2-0.2-0.5-0.3-0.8-0.3h-1.3v2.1h1.3c0.3,0,0.6-0.1,0.8-0.3S134.4,29.9,134.4,29.5z"/>
		<path d="M135.9,33.2V28h0.6v4.7h2.7v0.5H135.9z"/>
		<path d="M140,33.2V28h0.6v5.2H140z"/>
		<path d="M142,33.2V28h3.2v0.5h-2.7v1.8h2.3v0.5h-2.3v1.9h2.7v0.5H142z"/>
		<path d="M149.9,30.5c0,0.2,0,0.4,0,0.6c0,0.2,0,0.4,0,0.6s-0.1,0.4-0.2,0.6c-0.1,0.2-0.2,0.3-0.3,0.5c-0.2,0.2-0.3,0.3-0.6,0.4
			s-0.5,0.1-0.7,0.1h-1.8V28h1.8c0.3,0,0.5,0,0.7,0.1s0.4,0.2,0.6,0.4c0.1,0.1,0.2,0.3,0.3,0.4c0.1,0.2,0.1,0.3,0.2,0.5
			c0,0.2,0,0.4,0,0.5C149.9,30.2,149.9,30.4,149.9,30.5z M149.4,30.5c0-0.2,0-0.3,0-0.5c0-0.2,0-0.3,0-0.5s-0.1-0.3-0.1-0.4
			c0-0.1-0.1-0.2-0.2-0.3c-0.1-0.1-0.3-0.2-0.5-0.3c-0.2-0.1-0.4-0.1-0.6-0.1h-1.1v4.2h1.1c0.2,0,0.4,0,0.6-0.1
			c0.2-0.1,0.3-0.2,0.5-0.3c0.1-0.1,0.2-0.2,0.2-0.3s0.1-0.3,0.1-0.4s0-0.3,0-0.5C149.3,30.9,149.4,30.7,149.4,30.5z"/>
		<path d="M156,31.8c0,0.2,0,0.4-0.1,0.6c-0.1,0.2-0.2,0.3-0.4,0.5c-0.2,0.1-0.3,0.2-0.6,0.3c-0.2,0.1-0.5,0.1-0.7,0.1
			c-0.4,0-0.7-0.1-1-0.2c-0.3-0.1-0.5-0.3-0.8-0.5l0.4-0.4c0.2,0.2,0.4,0.4,0.6,0.4s0.5,0.1,0.8,0.1c0.4,0,0.7-0.1,0.9-0.3
			c0.2-0.2,0.3-0.4,0.3-0.7c0-0.1,0-0.3-0.1-0.4c0-0.1-0.1-0.2-0.2-0.3c-0.1-0.1-0.2-0.1-0.3-0.2c-0.1,0-0.2-0.1-0.4-0.1l-0.6-0.1
			c-0.4-0.1-0.7-0.2-1-0.4c-0.3-0.2-0.4-0.6-0.4-1c0-0.2,0-0.4,0.1-0.6c0.1-0.2,0.2-0.3,0.3-0.5c0.1-0.1,0.3-0.2,0.5-0.3
			c0.2-0.1,0.4-0.1,0.7-0.1c0.3,0,0.6,0,0.9,0.1s0.5,0.2,0.7,0.4l-0.4,0.4c-0.2-0.1-0.3-0.3-0.5-0.3c-0.2-0.1-0.4-0.1-0.7-0.1
			c-0.4,0-0.6,0.1-0.8,0.3c-0.2,0.2-0.3,0.4-0.3,0.7c0,0.3,0.1,0.5,0.2,0.6c0.1,0.1,0.2,0.1,0.3,0.2s0.3,0.1,0.4,0.1l0.6,0.1
			c0.1,0,0.2,0,0.3,0.1c0.1,0,0.2,0,0.3,0.1s0.1,0.1,0.2,0.1c0.1,0,0.1,0.1,0.2,0.1C155.9,31,156,31.3,156,31.8z"/>
		<path d="M160.5,31.7c0,0.2-0.1,0.5-0.2,0.7c-0.1,0.2-0.2,0.4-0.4,0.5c-0.2,0.1-0.3,0.2-0.5,0.3c-0.2,0.1-0.4,0.1-0.6,0.1
			c-0.3,0-0.5,0-0.7-0.1c-0.2-0.1-0.4-0.2-0.6-0.4c-0.1-0.1-0.2-0.2-0.3-0.4c-0.1-0.1-0.1-0.3-0.1-0.4c0-0.2,0-0.3-0.1-0.6
			s0-0.4,0-0.7c0-0.3,0-0.5,0-0.7c0-0.2,0-0.4,0.1-0.6c0-0.2,0.1-0.3,0.1-0.4c0.1-0.1,0.2-0.3,0.3-0.4c0.2-0.2,0.4-0.3,0.6-0.4
			c0.2-0.1,0.5-0.1,0.7-0.1c0.2,0,0.5,0,0.6,0.1c0.2,0.1,0.4,0.2,0.5,0.3c0.2,0.1,0.3,0.3,0.4,0.5c0.1,0.2,0.2,0.4,0.2,0.7H160
			c-0.1-0.3-0.2-0.6-0.4-0.8c-0.2-0.2-0.5-0.3-0.8-0.3c-0.2,0-0.3,0-0.5,0.1c-0.2,0.1-0.3,0.2-0.4,0.3c-0.1,0.1-0.1,0.2-0.2,0.3
			c0,0.1-0.1,0.2-0.1,0.3c0,0.1,0,0.3,0,0.5c0,0.2,0,0.4,0,0.7c0,0.3,0,0.5,0,0.7c0,0.2,0,0.3,0,0.5s0.1,0.2,0.1,0.3
			c0,0.1,0.1,0.2,0.2,0.3c0.1,0.1,0.2,0.2,0.4,0.3c0.2,0.1,0.3,0.1,0.5,0.1c0.3,0,0.6-0.1,0.8-0.3c0.2-0.2,0.4-0.4,0.4-0.8H160.5z"
			/>
		<path d="M161.7,33.2V28h0.6v5.2H161.7z"/>
		<path d="M163.7,33.2V28h3.2v0.5h-2.7v1.8h2.3v0.5h-2.3v1.9h2.7v0.5H163.7z"/>
		<path d="M171.3,33.2l-2.8-4.2v4.2H168V28h0.5l2.8,4.2V28h0.6v5.2H171.3z"/>
		<path d="M176.7,31.7c0,0.2-0.1,0.5-0.2,0.7c-0.1,0.2-0.2,0.4-0.4,0.5c-0.2,0.1-0.3,0.2-0.5,0.3c-0.2,0.1-0.4,0.1-0.6,0.1
			c-0.3,0-0.5,0-0.7-0.1c-0.2-0.1-0.4-0.2-0.6-0.4c-0.1-0.1-0.2-0.2-0.3-0.4c-0.1-0.1-0.1-0.3-0.1-0.4c0-0.2,0-0.3-0.1-0.6
			s0-0.4,0-0.7c0-0.3,0-0.5,0-0.7c0-0.2,0-0.4,0.1-0.6c0-0.2,0.1-0.3,0.1-0.4c0.1-0.1,0.2-0.3,0.3-0.4c0.2-0.2,0.4-0.3,0.6-0.4
			c0.2-0.1,0.5-0.1,0.7-0.1c0.2,0,0.5,0,0.6,0.1c0.2,0.1,0.4,0.2,0.5,0.3c0.2,0.1,0.3,0.3,0.4,0.5c0.1,0.2,0.2,0.4,0.2,0.7h-0.6
			c-0.1-0.3-0.2-0.6-0.4-0.8c-0.2-0.2-0.5-0.3-0.8-0.3c-0.2,0-0.3,0-0.5,0.1c-0.2,0.1-0.3,0.2-0.4,0.3c-0.1,0.1-0.1,0.2-0.2,0.3
			c0,0.1-0.1,0.2-0.1,0.3c0,0.1,0,0.3,0,0.5c0,0.2,0,0.4,0,0.7c0,0.3,0,0.5,0,0.7c0,0.2,0,0.3,0,0.5s0.1,0.2,0.1,0.3
			c0,0.1,0.1,0.2,0.2,0.3c0.1,0.1,0.2,0.2,0.4,0.3c0.2,0.1,0.3,0.1,0.5,0.1c0.3,0,0.6-0.1,0.8-0.3c0.2-0.2,0.4-0.4,0.4-0.8H176.7z"
			/>
		<path d="M177.8,33.2V28h3.2v0.5h-2.7v1.8h2.3v0.5h-2.3v1.9h2.7v0.5H177.8z"/>
		<path d="M185.2,31.8c0,0.2,0,0.4-0.1,0.6c-0.1,0.2-0.2,0.3-0.4,0.5c-0.2,0.1-0.3,0.2-0.6,0.3c-0.2,0.1-0.5,0.1-0.7,0.1
			c-0.4,0-0.7-0.1-1-0.2c-0.3-0.1-0.5-0.3-0.8-0.5l0.4-0.4c0.2,0.2,0.4,0.4,0.6,0.4s0.5,0.1,0.8,0.1c0.4,0,0.7-0.1,0.9-0.3
			c0.2-0.2,0.3-0.4,0.3-0.7c0-0.1,0-0.3-0.1-0.4c0-0.1-0.1-0.2-0.2-0.3c-0.1-0.1-0.2-0.1-0.3-0.2c-0.1,0-0.2-0.1-0.4-0.1l-0.6-0.1
			c-0.4-0.1-0.7-0.2-1-0.4c-0.3-0.2-0.4-0.6-0.4-1c0-0.2,0-0.4,0.1-0.6c0.1-0.2,0.2-0.3,0.3-0.5c0.1-0.1,0.3-0.2,0.5-0.3
			c0.2-0.1,0.4-0.1,0.7-0.1c0.3,0,0.6,0,0.9,0.1s0.5,0.2,0.7,0.4l-0.4,0.4c-0.2-0.1-0.3-0.3-0.5-0.3c-0.2-0.1-0.4-0.1-0.7-0.1
			c-0.4,0-0.6,0.1-0.8,0.3c-0.2,0.2-0.3,0.4-0.3,0.7c0,0.3,0.1,0.5,0.2,0.6c0.1,0.1,0.2,0.1,0.3,0.2s0.3,0.1,0.4,0.1l0.6,0.1
			c0.1,0,0.2,0,0.3,0.1c0.1,0,0.2,0,0.3,0.1s0.1,0.1,0.2,0.1c0.1,0,0.1,0.1,0.2,0.1C185.1,31,185.2,31.3,185.2,31.8z"/>
	</g>
</g>
<g id="Ebene_4">
	<path class="st3" d="M41.2,68.7c0-0.3-0.2-0.5-0.5-0.5c-0.3,0-0.5,0.2-0.5,0.5c0,0.3,0.2,0.5,0.5,0.5C41,69.2,41.2,69,41.2,68.7
		L41.2,68.7z"/>
	<path class="st3" d="M37,65.7c0-0.3-0.2-0.5-0.5-0.5c-0.3,0-0.5,0.2-0.5,0.5c0,0.3,0.2,0.5,0.5,0.5C36.8,66.2,37,66,37,65.7
		L37,65.7z M41.2,65.7c0-0.3-0.2-0.5-0.5-0.5c-0.3,0-0.5,0.2-0.5,0.5c0,0.3,0.2,0.5,0.5,0.5C41,66.2,41.2,66,41.2,65.7L41.2,65.7z"
		/>
	<path class="st3" d="M37,64.2c0-0.3-0.2-0.5-0.5-0.5c-0.3,0-0.5,0.2-0.5,0.5c0,0.3,0.2,0.5,0.5,0.5C36.8,64.7,37,64.5,37,64.2
		L37,64.2z M41.2,64.2c0-0.3-0.2-0.5-0.5-0.5c-0.3,0-0.5,0.2-0.5,0.5c0,0.3,0.2,0.5,0.5,0.5C41,64.7,41.2,64.5,41.2,64.2L41.2,64.2z
		"/>
	<path class="st3" d="M34.9,62.7c0-0.3-0.2-0.5-0.5-0.5c-0.3,0-0.5,0.2-0.5,0.5c0,0.3,0.2,0.5,0.5,0.5C34.6,63.2,34.9,63,34.9,62.7
		L34.9,62.7z M37,62.7c0-0.3-0.2-0.5-0.5-0.5c-0.3,0-0.5,0.2-0.5,0.5c0,0.3,0.2,0.5,0.5,0.5C36.8,63.2,37,63,37,62.7L37,62.7z
		 M41.2,62.7c0-0.3-0.2-0.5-0.5-0.5c-0.3,0-0.5,0.2-0.5,0.5c0,0.3,0.2,0.5,0.5,0.5C41,63.2,41.2,63,41.2,62.7L41.2,62.7z M43.4,62.7
		c0-0.3-0.2-0.5-0.5-0.5c-0.3,0-0.5,0.2-0.5,0.5c0,0.3,0.2,0.5,0.5,0.5C43.1,63.2,43.4,63,43.4,62.7L43.4,62.7z"/>
	<path class="st3" d="M34.9,61.2c0-0.3-0.2-0.5-0.5-0.5c-0.3,0-0.5,0.2-0.5,0.5c0,0.3,0.2,0.5,0.5,0.5
		C34.6,61.7,34.9,61.5,34.9,61.2L34.9,61.2z M37,61.2c0-0.3-0.2-0.5-0.5-0.5c-0.3,0-0.5,0.2-0.5,0.5c0,0.3,0.2,0.5,0.5,0.5
		C36.8,61.7,37,61.5,37,61.2L37,61.2z M43.4,61.2c0-0.3-0.2-0.5-0.5-0.5c-0.3,0-0.5,0.2-0.5,0.5c0,0.3,0.2,0.5,0.5,0.5
		C43.1,61.7,43.4,61.5,43.4,61.2L43.4,61.2z"/>
	<path class="st3" d="M34.9,59.7c0-0.3-0.2-0.5-0.5-0.5c-0.3,0-0.5,0.2-0.5,0.5c0,0.3,0.2,0.5,0.5,0.5C34.6,60.2,34.9,60,34.9,59.7
		L34.9,59.7z M37,59.7c0-0.3-0.2-0.5-0.5-0.5c-0.3,0-0.5,0.2-0.5,0.5c0,0.3,0.2,0.5,0.5,0.5C36.8,60.2,37,60,37,59.7L37,59.7z
		 M41.2,59.7c0-0.3-0.2-0.5-0.5-0.5c-0.3,0-0.5,0.2-0.5,0.5c0,0.3,0.2,0.5,0.5,0.5C41,60.2,41.2,60,41.2,59.7L41.2,59.7z M43.4,59.7
		c0-0.3-0.2-0.5-0.5-0.5c-0.3,0-0.5,0.2-0.5,0.5c0,0.3,0.2,0.5,0.5,0.5C43.1,60.2,43.4,60,43.4,59.7L43.4,59.7z"/>
	<path class="st3" d="M34.9,58.2c0-0.3-0.2-0.5-0.5-0.5c-0.3,0-0.5,0.2-0.5,0.5c0,0.3,0.2,0.5,0.5,0.5
		C34.6,58.7,34.9,58.5,34.9,58.2L34.9,58.2z M37,58.2c0-0.3-0.2-0.5-0.5-0.5c-0.3,0-0.5,0.2-0.5,0.5c0,0.3,0.2,0.5,0.5,0.5
		C36.8,58.7,37,58.5,37,58.2L37,58.2z M41.2,58.2c0-0.3-0.2-0.5-0.5-0.5c-0.3,0-0.5,0.2-0.5,0.5c0,0.3,0.2,0.5,0.5,0.5
		C41,58.7,41.2,58.5,41.2,58.2L41.2,58.2z M43.4,58.2c0-0.3-0.2-0.5-0.5-0.5c-0.3,0-0.5,0.2-0.5,0.5c0,0.3,0.2,0.5,0.5,0.5
		C43.1,58.7,43.4,58.5,43.4,58.2L43.4,58.2z"/>
	<path class="st3" d="M34.9,56.7c0-0.3-0.2-0.5-0.5-0.5c-0.3,0-0.5,0.2-0.5,0.5c0,0.3,0.2,0.5,0.5,0.5C34.6,57.2,34.9,57,34.9,56.7
		L34.9,56.7z M37,56.7c0-0.3-0.2-0.5-0.5-0.5c-0.3,0-0.5,0.2-0.5,0.5c0,0.3,0.2,0.5,0.5,0.5C36.8,57.2,37,57,37,56.7L37,56.7z
		 M41.2,56.7c0-0.3-0.2-0.5-0.5-0.5c-0.3,0-0.5,0.2-0.5,0.5c0,0.3,0.2,0.5,0.5,0.5C41,57.2,41.2,57,41.2,56.7L41.2,56.7z M43.4,56.7
		c0-0.3-0.2-0.5-0.5-0.5c-0.3,0-0.5,0.2-0.5,0.5c0,0.3,0.2,0.5,0.5,0.5C43.1,57.2,43.4,57,43.4,56.7L43.4,56.7z"/>
	<path class="st3" d="M34.9,55.2c0-0.3-0.2-0.5-0.5-0.5c-0.3,0-0.5,0.2-0.5,0.5c0,0.3,0.2,0.5,0.5,0.5
		C34.6,55.7,34.9,55.5,34.9,55.2L34.9,55.2z M37,55.2c0-0.3-0.2-0.5-0.5-0.5c-0.3,0-0.5,0.2-0.5,0.5c0,0.3,0.2,0.5,0.5,0.5
		C36.8,55.7,37,55.5,37,55.2L37,55.2z M41.2,55.2c0-0.3-0.2-0.5-0.5-0.5c-0.3,0-0.5,0.2-0.5,0.5c0,0.3,0.2,0.5,0.5,0.5
		C41,55.7,41.2,55.5,41.2,55.2L41.2,55.2z M43.4,55.2c0-0.3-0.2-0.5-0.5-0.5c-0.3,0-0.5,0.2-0.5,0.5c0,0.3,0.2,0.5,0.5,0.5
		C43.1,55.7,43.4,55.5,43.4,55.2L43.4,55.2z"/>
	<path class="st3" d="M34.9,53.7c0-0.3-0.2-0.5-0.5-0.5c-0.3,0-0.5,0.2-0.5,0.5c0,0.3,0.2,0.5,0.5,0.5C34.6,54.2,34.9,54,34.9,53.7
		L34.9,53.7z M37,53.7c0-0.3-0.2-0.5-0.5-0.5c-0.3,0-0.5,0.2-0.5,0.5c0,0.3,0.2,0.5,0.5,0.5C36.8,54.2,37,54,37,53.7L37,53.7z
		 M41.2,53.7c0-0.3-0.2-0.5-0.5-0.5c-0.3,0-0.5,0.2-0.5,0.5c0,0.3,0.2,0.5,0.5,0.5C41,54.2,41.2,54,41.2,53.7L41.2,53.7z M43.4,53.7
		c0-0.3-0.2-0.5-0.5-0.5c-0.3,0-0.5,0.2-0.5,0.5c0,0.3,0.2,0.5,0.5,0.5C43.1,54.2,43.4,54,43.4,53.7L43.4,53.7z"/>
	<path class="st3" d="M34.9,52.2c0-0.3-0.2-0.5-0.5-0.5c-0.3,0-0.5,0.2-0.5,0.5c0,0.3,0.2,0.5,0.5,0.5
		C34.6,52.7,34.9,52.5,34.9,52.2L34.9,52.2z M37,52.2c0-0.3-0.2-0.5-0.5-0.5c-0.3,0-0.5,0.2-0.5,0.5c0,0.3,0.2,0.5,0.5,0.5
		C36.8,52.7,37,52.5,37,52.2L37,52.2z M41.2,52.2c0-0.3-0.2-0.5-0.5-0.5c-0.3,0-0.5,0.2-0.5,0.5c0,0.3,0.2,0.5,0.5,0.5
		C41,52.7,41.2,52.5,41.2,52.2L41.2,52.2z M43.4,52.2c0-0.3-0.2-0.5-0.5-0.5c-0.3,0-0.5,0.2-0.5,0.5c0,0.3,0.2,0.5,0.5,0.5
		C43.1,52.7,43.4,52.5,43.4,52.2L43.4,52.2z"/>
	<path class="st3" d="M20,50.7c0-0.3-0.2-0.5-0.5-0.5c-0.3,0-0.5,0.2-0.5,0.5c0,0.3,0.2,0.5,0.5,0.5C19.7,51.2,20,51,20,50.7
		L20,50.7z M22.1,50.7c0-0.3-0.2-0.5-0.5-0.5c-0.3,0-0.5,0.2-0.5,0.5c0,0.3,0.2,0.5,0.5,0.5C21.9,51.2,22.1,51,22.1,50.7L22.1,50.7z
		 M24.2,50.7c0-0.3-0.2-0.5-0.5-0.5c-0.3,0-0.5,0.2-0.5,0.5c0,0.3,0.2,0.5,0.5,0.5C24,51.2,24.2,51,24.2,50.7L24.2,50.7z M26.4,50.7
		c0-0.3-0.2-0.5-0.5-0.5c-0.3,0-0.5,0.2-0.5,0.5c0,0.3,0.2,0.5,0.5,0.5C26.1,51.2,26.4,51,26.4,50.7L26.4,50.7z M28.5,50.7
		c0-0.3-0.2-0.5-0.5-0.5c-0.3,0-0.5,0.2-0.5,0.5c0,0.3,0.2,0.5,0.5,0.5C28.3,51.2,28.5,51,28.5,50.7L28.5,50.7z M30.6,50.7
		c0-0.3-0.2-0.5-0.5-0.5c-0.3,0-0.5,0.2-0.5,0.5c0,0.3,0.2,0.5,0.5,0.5C30.4,51.2,30.6,51,30.6,50.7L30.6,50.7z M32.7,50.7
		c0-0.3-0.2-0.5-0.5-0.5c-0.3,0-0.5,0.2-0.5,0.5c0,0.3,0.2,0.5,0.5,0.5C32.5,51.2,32.7,51,32.7,50.7L32.7,50.7z M34.9,50.7
		c0-0.3-0.2-0.5-0.5-0.5c-0.3,0-0.5,0.2-0.5,0.5c0,0.3,0.2,0.5,0.5,0.5C34.6,51.2,34.9,51,34.9,50.7L34.9,50.7z M37,50.7
		c0-0.3-0.2-0.5-0.5-0.5c-0.3,0-0.5,0.2-0.5,0.5c0,0.3,0.2,0.5,0.5,0.5C36.8,51.2,37,51,37,50.7L37,50.7z M41.2,50.7
		c0-0.3-0.2-0.5-0.5-0.5c-0.3,0-0.5,0.2-0.5,0.5c0,0.3,0.2,0.5,0.5,0.5C41,51.2,41.2,51,41.2,50.7L41.2,50.7z M43.4,50.7
		c0-0.3-0.2-0.5-0.5-0.5c-0.3,0-0.5,0.2-0.5,0.5c0,0.3,0.2,0.5,0.5,0.5C43.1,51.2,43.4,51,43.4,50.7L43.4,50.7z M45.5,50.7
		c0-0.3-0.2-0.5-0.5-0.5c-0.3,0-0.5,0.2-0.5,0.5c0,0.3,0.2,0.5,0.5,0.5C45.3,51.2,45.5,51,45.5,50.7L45.5,50.7z M47.6,50.7
		c0-0.3-0.2-0.5-0.5-0.5c-0.3,0-0.5,0.2-0.5,0.5c0,0.3,0.2,0.5,0.5,0.5C47.4,51.2,47.6,51,47.6,50.7L47.6,50.7z M49.7,50.7
		c0-0.3-0.2-0.5-0.5-0.5c-0.3,0-0.5,0.2-0.5,0.5c0,0.3,0.2,0.5,0.5,0.5C49.5,51.2,49.7,51,49.7,50.7L49.7,50.7z M51.9,50.7
		c0-0.3-0.2-0.5-0.5-0.5c-0.3,0-0.5,0.2-0.5,0.5c0,0.3,0.2,0.5,0.5,0.5C51.6,51.2,51.9,51,51.9,50.7L51.9,50.7z M54,50.7
		c0-0.3-0.2-0.5-0.5-0.5c-0.3,0-0.5,0.2-0.5,0.5c0,0.3,0.2,0.5,0.5,0.5C53.8,51.2,54,51,54,50.7L54,50.7z M56.1,50.7
		c0-0.3-0.2-0.5-0.5-0.5c-0.3,0-0.5,0.2-0.5,0.5c0,0.3,0.2,0.5,0.5,0.5C55.9,51.2,56.1,51,56.1,50.7L56.1,50.7z M58.2,50.7
		c0-0.3-0.2-0.5-0.5-0.5c-0.3,0-0.5,0.2-0.5,0.5c0,0.3,0.2,0.5,0.5,0.5C58,51.2,58.2,51,58.2,50.7L58.2,50.7z"/>
	<path class="st3" d="M11.5,49.2c0-0.3-0.2-0.5-0.5-0.5c-0.3,0-0.5,0.2-0.5,0.5c0,0.3,0.2,0.5,0.5,0.5
		C11.2,49.7,11.5,49.5,11.5,49.2L11.5,49.2z M15.7,49.2c0-0.3-0.2-0.5-0.5-0.5c-0.3,0-0.5,0.2-0.5,0.5c0,0.3,0.2,0.5,0.5,0.5
		C15.5,49.7,15.7,49.5,15.7,49.2L15.7,49.2z M17.9,49.2c0-0.3-0.2-0.5-0.5-0.5c-0.3,0-0.5,0.2-0.5,0.5c0,0.3,0.2,0.5,0.5,0.5
		C17.6,49.7,17.9,49.5,17.9,49.2L17.9,49.2z M20,49.2c0-0.3-0.2-0.5-0.5-0.5c-0.3,0-0.5,0.2-0.5,0.5c0,0.3,0.2,0.5,0.5,0.5
		C19.7,49.7,20,49.5,20,49.2L20,49.2z M22.1,49.2c0-0.3-0.2-0.5-0.5-0.5c-0.3,0-0.5,0.2-0.5,0.5c0,0.3,0.2,0.5,0.5,0.5
		C21.9,49.7,22.1,49.5,22.1,49.2L22.1,49.2z M24.2,49.2c0-0.3-0.2-0.5-0.5-0.5c-0.3,0-0.5,0.2-0.5,0.5c0,0.3,0.2,0.5,0.5,0.5
		C24,49.7,24.2,49.5,24.2,49.2L24.2,49.2z M26.4,49.2c0-0.3-0.2-0.5-0.5-0.5c-0.3,0-0.5,0.2-0.5,0.5c0,0.3,0.2,0.5,0.5,0.5
		C26.1,49.7,26.4,49.5,26.4,49.2L26.4,49.2z M28.5,49.2c0-0.3-0.2-0.5-0.5-0.5c-0.3,0-0.5,0.2-0.5,0.5c0,0.3,0.2,0.5,0.5,0.5
		C28.3,49.7,28.5,49.5,28.5,49.2L28.5,49.2z M30.6,49.2c0-0.3-0.2-0.5-0.5-0.5c-0.3,0-0.5,0.2-0.5,0.5c0,0.3,0.2,0.5,0.5,0.5
		C30.4,49.7,30.6,49.5,30.6,49.2L30.6,49.2z M32.7,49.2c0-0.3-0.2-0.5-0.5-0.5c-0.3,0-0.5,0.2-0.5,0.5c0,0.3,0.2,0.5,0.5,0.5
		C32.5,49.7,32.7,49.5,32.7,49.2L32.7,49.2z M34.9,49.2c0-0.3-0.2-0.5-0.5-0.5c-0.3,0-0.5,0.2-0.5,0.5c0,0.3,0.2,0.5,0.5,0.5
		C34.6,49.7,34.9,49.5,34.9,49.2L34.9,49.2z M43.4,49.2c0-0.3-0.2-0.5-0.5-0.5c-0.3,0-0.5,0.2-0.5,0.5c0,0.3,0.2,0.5,0.5,0.5
		C43.1,49.7,43.4,49.5,43.4,49.2L43.4,49.2z M45.5,49.2c0-0.3-0.2-0.5-0.5-0.5c-0.3,0-0.5,0.2-0.5,0.5c0,0.3,0.2,0.5,0.5,0.5
		C45.3,49.7,45.5,49.5,45.5,49.2L45.5,49.2z M47.6,49.2c0-0.3-0.2-0.5-0.5-0.5c-0.3,0-0.5,0.2-0.5,0.5c0,0.3,0.2,0.5,0.5,0.5
		C47.4,49.7,47.6,49.5,47.6,49.2L47.6,49.2z M49.7,49.2c0-0.3-0.2-0.5-0.5-0.5c-0.3,0-0.5,0.2-0.5,0.5c0,0.3,0.2,0.5,0.5,0.5
		C49.5,49.7,49.7,49.5,49.7,49.2L49.7,49.2z M51.9,49.2c0-0.3-0.2-0.5-0.5-0.5c-0.3,0-0.5,0.2-0.5,0.5c0,0.3,0.2,0.5,0.5,0.5
		C51.6,49.7,51.9,49.5,51.9,49.2L51.9,49.2z M54,49.2c0-0.3-0.2-0.5-0.5-0.5c-0.3,0-0.5,0.2-0.5,0.5c0,0.3,0.2,0.5,0.5,0.5
		C53.8,49.7,54,49.5,54,49.2L54,49.2z M56.1,49.2c0-0.3-0.2-0.5-0.5-0.5c-0.3,0-0.5,0.2-0.5,0.5c0,0.3,0.2,0.5,0.5,0.5
		C55.9,49.7,56.1,49.5,56.1,49.2L56.1,49.2z M60.4,49.2c0-0.3-0.2-0.5-0.5-0.5c-0.3,0-0.5,0.2-0.5,0.5c0,0.3,0.2,0.5,0.5,0.5
		C60.1,49.7,60.4,49.5,60.4,49.2L60.4,49.2z M64.6,49.2c0-0.3-0.2-0.5-0.5-0.5c-0.3,0-0.5,0.2-0.5,0.5c0,0.3,0.2,0.5,0.5,0.5
		C64.4,49.7,64.6,49.5,64.6,49.2L64.6,49.2z"/>
	<path class="st3" d="M5.1,46.2c0-0.3-0.2-0.5-0.5-0.5c-0.3,0-0.5,0.2-0.5,0.5c0,0.3,0.2,0.5,0.5,0.5C4.9,46.7,5.1,46.5,5.1,46.2
		L5.1,46.2z M7.2,46.2c0-0.3-0.2-0.5-0.5-0.5c-0.3,0-0.5,0.2-0.5,0.5c0,0.3,0.2,0.5,0.5,0.5C7,46.7,7.2,46.5,7.2,46.2L7.2,46.2z
		 M11.5,46.2c0-0.3-0.2-0.5-0.5-0.5c-0.3,0-0.5,0.2-0.5,0.5c0,0.3,0.2,0.5,0.5,0.5C11.2,46.7,11.5,46.5,11.5,46.2L11.5,46.2z
		 M13.6,46.2c0-0.3-0.2-0.5-0.5-0.5c-0.3,0-0.5,0.2-0.5,0.5c0,0.3,0.2,0.5,0.5,0.5C13.4,46.7,13.6,46.5,13.6,46.2L13.6,46.2z
		 M17.9,46.2c0-0.3-0.2-0.5-0.5-0.5c-0.3,0-0.5,0.2-0.5,0.5c0,0.3,0.2,0.5,0.5,0.5C17.6,46.7,17.9,46.5,17.9,46.2L17.9,46.2z
		 M20,46.2c0-0.3-0.2-0.5-0.5-0.5c-0.3,0-0.5,0.2-0.5,0.5c0,0.3,0.2,0.5,0.5,0.5C19.7,46.7,20,46.5,20,46.2L20,46.2z M22.1,46.2
		c0-0.3-0.2-0.5-0.5-0.5c-0.3,0-0.5,0.2-0.5,0.5c0,0.3,0.2,0.5,0.5,0.5C21.9,46.7,22.1,46.5,22.1,46.2L22.1,46.2z M24.2,46.2
		c0-0.3-0.2-0.5-0.5-0.5c-0.3,0-0.5,0.2-0.5,0.5c0,0.3,0.2,0.5,0.5,0.5C24,46.7,24.2,46.5,24.2,46.2L24.2,46.2z M26.4,46.2
		c0-0.3-0.2-0.5-0.5-0.5c-0.3,0-0.5,0.2-0.5,0.5c0,0.3,0.2,0.5,0.5,0.5C26.1,46.7,26.4,46.5,26.4,46.2L26.4,46.2z M34.9,46.2
		c0-0.3-0.2-0.5-0.5-0.5c-0.3,0-0.5,0.2-0.5,0.5c0,0.3,0.2,0.5,0.5,0.5C34.6,46.7,34.9,46.5,34.9,46.2L34.9,46.2z M37,46.2
		c0-0.3-0.2-0.5-0.5-0.5c-0.3,0-0.5,0.2-0.5,0.5c0,0.3,0.2,0.5,0.5,0.5C36.8,46.7,37,46.5,37,46.2L37,46.2z M39.1,46.2
		c0-0.3-0.2-0.5-0.5-0.5c-0.3,0-0.5,0.2-0.5,0.5c0,0.3,0.2,0.5,0.5,0.5C38.9,46.7,39.1,46.5,39.1,46.2L39.1,46.2z M41.2,46.2
		c0-0.3-0.2-0.5-0.5-0.5c-0.3,0-0.5,0.2-0.5,0.5c0,0.3,0.2,0.5,0.5,0.5C41,46.7,41.2,46.5,41.2,46.2L41.2,46.2z M43.4,46.2
		c0-0.3-0.2-0.5-0.5-0.5c-0.3,0-0.5,0.2-0.5,0.5c0,0.3,0.2,0.5,0.5,0.5C43.1,46.7,43.4,46.5,43.4,46.2L43.4,46.2z M45.5,46.2
		c0-0.3-0.2-0.5-0.5-0.5c-0.3,0-0.5,0.2-0.5,0.5c0,0.3,0.2,0.5,0.5,0.5C45.3,46.7,45.5,46.5,45.5,46.2L45.5,46.2z M47.6,46.2
		c0-0.3-0.2-0.5-0.5-0.5c-0.3,0-0.5,0.2-0.5,0.5c0,0.3,0.2,0.5,0.5,0.5C47.4,46.7,47.6,46.5,47.6,46.2L47.6,46.2z M49.7,46.2
		c0-0.3-0.2-0.5-0.5-0.5c-0.3,0-0.5,0.2-0.5,0.5c0,0.3,0.2,0.5,0.5,0.5C49.5,46.7,49.7,46.5,49.7,46.2L49.7,46.2z M51.9,46.2
		c0-0.3-0.2-0.5-0.5-0.5c-0.3,0-0.5,0.2-0.5,0.5c0,0.3,0.2,0.5,0.5,0.5C51.6,46.7,51.9,46.5,51.9,46.2L51.9,46.2z M54,46.2
		c0-0.3-0.2-0.5-0.5-0.5c-0.3,0-0.5,0.2-0.5,0.5c0,0.3,0.2,0.5,0.5,0.5C53.8,46.7,54,46.5,54,46.2L54,46.2z M56.1,46.2
		c0-0.3-0.2-0.5-0.5-0.5c-0.3,0-0.5,0.2-0.5,0.5c0,0.3,0.2,0.5,0.5,0.5C55.9,46.7,56.1,46.5,56.1,46.2L56.1,46.2z M60.4,46.2
		c0-0.3-0.2-0.5-0.5-0.5c-0.3,0-0.5,0.2-0.5,0.5c0,0.3,0.2,0.5,0.5,0.5C60.1,46.7,60.4,46.5,60.4,46.2L60.4,46.2z"/>
	<path class="st3" d="M11.5,44.7c0-0.3-0.2-0.5-0.5-0.5c-0.3,0-0.5,0.2-0.5,0.5c0,0.3,0.2,0.5,0.5,0.5C11.2,45.2,11.5,45,11.5,44.7
		L11.5,44.7z M15.7,44.7c0-0.3-0.2-0.5-0.5-0.5c-0.3,0-0.5,0.2-0.5,0.5c0,0.3,0.2,0.5,0.5,0.5C15.5,45.2,15.7,45,15.7,44.7
		L15.7,44.7z M17.9,44.7c0-0.3-0.2-0.5-0.5-0.5c-0.3,0-0.5,0.2-0.5,0.5c0,0.3,0.2,0.5,0.5,0.5C17.6,45.2,17.9,45,17.9,44.7
		L17.9,44.7z M20,44.7c0-0.3-0.2-0.5-0.5-0.5c-0.3,0-0.5,0.2-0.5,0.5c0,0.3,0.2,0.5,0.5,0.5C19.7,45.2,20,45,20,44.7L20,44.7z
		 M22.1,44.7c0-0.3-0.2-0.5-0.5-0.5c-0.3,0-0.5,0.2-0.5,0.5c0,0.3,0.2,0.5,0.5,0.5C21.9,45.2,22.1,45,22.1,44.7L22.1,44.7z
		 M24.2,44.7c0-0.3-0.2-0.5-0.5-0.5c-0.3,0-0.5,0.2-0.5,0.5c0,0.3,0.2,0.5,0.5,0.5C24,45.2,24.2,45,24.2,44.7L24.2,44.7z M26.4,44.7
		c0-0.3-0.2-0.5-0.5-0.5c-0.3,0-0.5,0.2-0.5,0.5c0,0.3,0.2,0.5,0.5,0.5C26.1,45.2,26.4,45,26.4,44.7L26.4,44.7z M28.5,44.7
		c0-0.3-0.2-0.5-0.5-0.5c-0.3,0-0.5,0.2-0.5,0.5c0,0.3,0.2,0.5,0.5,0.5C28.3,45.2,28.5,45,28.5,44.7L28.5,44.7z M32.7,44.7
		c0-0.3-0.2-0.5-0.5-0.5c-0.3,0-0.5,0.2-0.5,0.5c0,0.3,0.2,0.5,0.5,0.5C32.5,45.2,32.7,45,32.7,44.7L32.7,44.7z M34.9,44.7
		c0-0.3-0.2-0.5-0.5-0.5c-0.3,0-0.5,0.2-0.5,0.5c0,0.3,0.2,0.5,0.5,0.5C34.6,45.2,34.9,45,34.9,44.7L34.9,44.7z M37,44.7
		c0-0.3-0.2-0.5-0.5-0.5c-0.3,0-0.5,0.2-0.5,0.5c0,0.3,0.2,0.5,0.5,0.5C36.8,45.2,37,45,37,44.7L37,44.7z M39.1,44.7
		c0-0.3-0.2-0.5-0.5-0.5c-0.3,0-0.5,0.2-0.5,0.5c0,0.3,0.2,0.5,0.5,0.5C38.9,45.2,39.1,45,39.1,44.7L39.1,44.7z M41.2,44.7
		c0-0.3-0.2-0.5-0.5-0.5c-0.3,0-0.5,0.2-0.5,0.5c0,0.3,0.2,0.5,0.5,0.5C41,45.2,41.2,45,41.2,44.7L41.2,44.7z M43.4,44.7
		c0-0.3-0.2-0.5-0.5-0.5c-0.3,0-0.5,0.2-0.5,0.5c0,0.3,0.2,0.5,0.5,0.5C43.1,45.2,43.4,45,43.4,44.7L43.4,44.7z M45.5,44.7
		c0-0.3-0.2-0.5-0.5-0.5c-0.3,0-0.5,0.2-0.5,0.5c0,0.3,0.2,0.5,0.5,0.5C45.3,45.2,45.5,45,45.5,44.7L45.5,44.7z M47.6,44.7
		c0-0.3-0.2-0.5-0.5-0.5c-0.3,0-0.5,0.2-0.5,0.5c0,0.3,0.2,0.5,0.5,0.5C47.4,45.2,47.6,45,47.6,44.7L47.6,44.7z M49.7,44.7
		c0-0.3-0.2-0.5-0.5-0.5c-0.3,0-0.5,0.2-0.5,0.5c0,0.3,0.2,0.5,0.5,0.5C49.5,45.2,49.7,45,49.7,44.7L49.7,44.7z M51.9,44.7
		c0-0.3-0.2-0.5-0.5-0.5c-0.3,0-0.5,0.2-0.5,0.5c0,0.3,0.2,0.5,0.5,0.5C51.6,45.2,51.9,45,51.9,44.7L51.9,44.7z M54,44.7
		c0-0.3-0.2-0.5-0.5-0.5c-0.3,0-0.5,0.2-0.5,0.5c0,0.3,0.2,0.5,0.5,0.5C53.8,45.2,54,45,54,44.7L54,44.7z"/>
	<path class="st3" d="M26.4,43.2c0-0.3-0.2-0.5-0.5-0.5c-0.3,0-0.5,0.2-0.5,0.5c0,0.3,0.2,0.5,0.5,0.5
		C26.1,43.7,26.4,43.5,26.4,43.2L26.4,43.2z M28.5,43.2c0-0.3-0.2-0.5-0.5-0.5c-0.3,0-0.5,0.2-0.5,0.5c0,0.3,0.2,0.5,0.5,0.5
		C28.3,43.7,28.5,43.5,28.5,43.2L28.5,43.2z M32.7,43.2c0-0.3-0.2-0.5-0.5-0.5c-0.3,0-0.5,0.2-0.5,0.5c0,0.3,0.2,0.5,0.5,0.5
		C32.5,43.7,32.7,43.5,32.7,43.2L32.7,43.2z M34.9,43.2c0-0.3-0.2-0.5-0.5-0.5c-0.3,0-0.5,0.2-0.5,0.5c0,0.3,0.2,0.5,0.5,0.5
		C34.6,43.7,34.9,43.5,34.9,43.2L34.9,43.2z"/>
	<path class="st3" d="M26.4,41.7c0-0.3-0.2-0.5-0.5-0.5c-0.3,0-0.5,0.2-0.5,0.5c0,0.3,0.2,0.5,0.5,0.5C26.1,42.2,26.4,42,26.4,41.7
		L26.4,41.7z M28.5,41.7c0-0.3-0.2-0.5-0.5-0.5c-0.3,0-0.5,0.2-0.5,0.5c0,0.3,0.2,0.5,0.5,0.5C28.3,42.2,28.5,42,28.5,41.7
		L28.5,41.7z M32.7,41.7c0-0.3-0.2-0.5-0.5-0.5c-0.3,0-0.5,0.2-0.5,0.5c0,0.3,0.2,0.5,0.5,0.5C32.5,42.2,32.7,42,32.7,41.7
		L32.7,41.7z M34.9,41.7c0-0.3-0.2-0.5-0.5-0.5c-0.3,0-0.5,0.2-0.5,0.5c0,0.3,0.2,0.5,0.5,0.5C34.6,42.2,34.9,42,34.9,41.7
		L34.9,41.7z"/>
	<path class="st3" d="M26.4,40.2c0-0.3-0.2-0.5-0.5-0.5c-0.3,0-0.5,0.2-0.5,0.5c0,0.3,0.2,0.5,0.5,0.5
		C26.1,40.7,26.4,40.5,26.4,40.2L26.4,40.2z M28.5,40.2c0-0.3-0.2-0.5-0.5-0.5c-0.3,0-0.5,0.2-0.5,0.5c0,0.3,0.2,0.5,0.5,0.5
		C28.3,40.7,28.5,40.5,28.5,40.2L28.5,40.2z M32.7,40.2c0-0.3-0.2-0.5-0.5-0.5c-0.3,0-0.5,0.2-0.5,0.5c0,0.3,0.2,0.5,0.5,0.5
		C32.5,40.7,32.7,40.5,32.7,40.2L32.7,40.2z M34.9,40.2c0-0.3-0.2-0.5-0.5-0.5c-0.3,0-0.5,0.2-0.5,0.5c0,0.3,0.2,0.5,0.5,0.5
		C34.6,40.7,34.9,40.5,34.9,40.2L34.9,40.2z"/>
	<path class="st3" d="M26.4,38.7c0-0.3-0.2-0.5-0.5-0.5c-0.3,0-0.5,0.2-0.5,0.5c0,0.3,0.2,0.5,0.5,0.5C26.1,39.2,26.4,39,26.4,38.7
		L26.4,38.7z M28.5,38.7c0-0.3-0.2-0.5-0.5-0.5c-0.3,0-0.5,0.2-0.5,0.5c0,0.3,0.2,0.5,0.5,0.5C28.3,39.2,28.5,39,28.5,38.7
		L28.5,38.7z M32.7,38.7c0-0.3-0.2-0.5-0.5-0.5c-0.3,0-0.5,0.2-0.5,0.5c0,0.3,0.2,0.5,0.5,0.5C32.5,39.2,32.7,39,32.7,38.7
		L32.7,38.7z M34.9,38.7c0-0.3-0.2-0.5-0.5-0.5c-0.3,0-0.5,0.2-0.5,0.5c0,0.3,0.2,0.5,0.5,0.5C34.6,39.2,34.9,39,34.9,38.7
		L34.9,38.7z"/>
	<path class="st3" d="M26.4,37.2c0-0.3-0.2-0.5-0.5-0.5c-0.3,0-0.5,0.2-0.5,0.5c0,0.3,0.2,0.5,0.5,0.5
		C26.1,37.7,26.4,37.5,26.4,37.2L26.4,37.2z M28.5,37.2c0-0.3-0.2-0.5-0.5-0.5c-0.3,0-0.5,0.2-0.5,0.5c0,0.3,0.2,0.5,0.5,0.5
		C28.3,37.7,28.5,37.5,28.5,37.2L28.5,37.2z M32.7,37.2c0-0.3-0.2-0.5-0.5-0.5c-0.3,0-0.5,0.2-0.5,0.5c0,0.3,0.2,0.5,0.5,0.5
		C32.5,37.7,32.7,37.5,32.7,37.2L32.7,37.2z M34.9,37.2c0-0.3-0.2-0.5-0.5-0.5c-0.3,0-0.5,0.2-0.5,0.5c0,0.3,0.2,0.5,0.5,0.5
		C34.6,37.7,34.9,37.5,34.9,37.2L34.9,37.2z"/>
	<path class="st3" d="M26.4,35.7c0-0.3-0.2-0.5-0.5-0.5c-0.3,0-0.5,0.2-0.5,0.5c0,0.3,0.2,0.5,0.5,0.5C26.1,36.2,26.4,36,26.4,35.7
		L26.4,35.7z M28.5,35.7c0-0.3-0.2-0.5-0.5-0.5c-0.3,0-0.5,0.2-0.5,0.5c0,0.3,0.2,0.5,0.5,0.5C28.3,36.2,28.5,36,28.5,35.7
		L28.5,35.7z M32.7,35.7c0-0.3-0.2-0.5-0.5-0.5c-0.3,0-0.5,0.2-0.5,0.5c0,0.3,0.2,0.5,0.5,0.5C32.5,36.2,32.7,36,32.7,35.7
		L32.7,35.7z M34.9,35.7c0-0.3-0.2-0.5-0.5-0.5c-0.3,0-0.5,0.2-0.5,0.5c0,0.3,0.2,0.5,0.5,0.5C34.6,36.2,34.9,36,34.9,35.7
		L34.9,35.7z"/>
	<path class="st3" d="M26.4,34.2c0-0.3-0.2-0.5-0.5-0.5c-0.3,0-0.5,0.2-0.5,0.5c0,0.3,0.2,0.5,0.5,0.5
		C26.1,34.7,26.4,34.5,26.4,34.2L26.4,34.2z M28.5,34.2c0-0.3-0.2-0.5-0.5-0.5c-0.3,0-0.5,0.2-0.5,0.5c0,0.3,0.2,0.5,0.5,0.5
		C28.3,34.7,28.5,34.5,28.5,34.2L28.5,34.2z M32.7,34.2c0-0.3-0.2-0.5-0.5-0.5c-0.3,0-0.5,0.2-0.5,0.5c0,0.3,0.2,0.5,0.5,0.5
		C32.5,34.7,32.7,34.5,32.7,34.2L32.7,34.2z M34.9,34.2c0-0.3-0.2-0.5-0.5-0.5c-0.3,0-0.5,0.2-0.5,0.5c0,0.3,0.2,0.5,0.5,0.5
		C34.6,34.7,34.9,34.5,34.9,34.2L34.9,34.2z"/>
	<path class="st3" d="M26.4,32.7c0-0.3-0.2-0.5-0.5-0.5c-0.3,0-0.5,0.2-0.5,0.5c0,0.3,0.2,0.5,0.5,0.5C26.1,33.2,26.4,33,26.4,32.7
		L26.4,32.7z M28.5,32.7c0-0.3-0.2-0.5-0.5-0.5c-0.3,0-0.5,0.2-0.5,0.5c0,0.3,0.2,0.5,0.5,0.5C28.3,33.2,28.5,33,28.5,32.7
		L28.5,32.7z M32.7,32.7c0-0.3-0.2-0.5-0.5-0.5c-0.3,0-0.5,0.2-0.5,0.5c0,0.3,0.2,0.5,0.5,0.5C32.5,33.2,32.7,33,32.7,32.7
		L32.7,32.7z M34.9,32.7c0-0.3-0.2-0.5-0.5-0.5c-0.3,0-0.5,0.2-0.5,0.5c0,0.3,0.2,0.5,0.5,0.5C34.6,33.2,34.9,33,34.9,32.7
		L34.9,32.7z"/>
	<path class="st3" d="M26.4,31.2c0-0.3-0.2-0.5-0.5-0.5c-0.3,0-0.5,0.2-0.5,0.5c0,0.3,0.2,0.5,0.5,0.5
		C26.1,31.7,26.4,31.5,26.4,31.2L26.4,31.2z M28.5,31.2c0-0.3-0.2-0.5-0.5-0.5c-0.3,0-0.5,0.2-0.5,0.5c0,0.3,0.2,0.5,0.5,0.5
		C28.3,31.7,28.5,31.5,28.5,31.2L28.5,31.2z M32.7,31.2c0-0.3-0.2-0.5-0.5-0.5c-0.3,0-0.5,0.2-0.5,0.5c0,0.3,0.2,0.5,0.5,0.5
		C32.5,31.7,32.7,31.5,32.7,31.2L32.7,31.2z"/>
	<path class="st3" d="M26.4,29.7c0-0.3-0.2-0.5-0.5-0.5c-0.3,0-0.5,0.2-0.5,0.5c0,0.3,0.2,0.5,0.5,0.5C26.1,30.2,26.4,30,26.4,29.7
		L26.4,29.7z M28.5,29.7c0-0.3-0.2-0.5-0.5-0.5c-0.3,0-0.5,0.2-0.5,0.5c0,0.3,0.2,0.5,0.5,0.5C28.3,30.2,28.5,30,28.5,29.7
		L28.5,29.7z M32.7,29.7c0-0.3-0.2-0.5-0.5-0.5c-0.3,0-0.5,0.2-0.5,0.5c0,0.3,0.2,0.5,0.5,0.5C32.5,30.2,32.7,30,32.7,29.7
		L32.7,29.7z"/>
	<path class="st3" d="M28.5,28.2c0-0.3-0.2-0.5-0.5-0.5c-0.3,0-0.5,0.2-0.5,0.5c0,0.3,0.2,0.5,0.5,0.5
		C28.3,28.7,28.5,28.5,28.5,28.2L28.5,28.2z"/>
	<path class="st3" d="M26.4,26.7c0-0.3-0.2-0.5-0.5-0.5c-0.3,0-0.5,0.2-0.5,0.5c0,0.3,0.2,0.5,0.5,0.5C26.1,27.2,26.4,27,26.4,26.7
		L26.4,26.7z M32.7,26.7c0-0.3-0.2-0.5-0.5-0.5c-0.3,0-0.5,0.2-0.5,0.5c0,0.3,0.2,0.5,0.5,0.5C32.5,27.2,32.7,27,32.7,26.7
		L32.7,26.7z"/>
	<path class="st3" d="M28.5,25.2c0-0.3-0.2-0.5-0.5-0.5c-0.3,0-0.5,0.2-0.5,0.5c0,0.3,0.2,0.5,0.5,0.5
		C28.3,25.7,28.5,25.5,28.5,25.2L28.5,25.2z"/>
	<path class="st3" d="M28.5,23.7c0-0.3-0.2-0.5-0.5-0.5c-0.3,0-0.5,0.2-0.5,0.5c0,0.3,0.2,0.5,0.5,0.5C28.3,24.2,28.5,24,28.5,23.7
		L28.5,23.7z"/>
	<path class="st3" d="M28.5,20.7c0-0.3-0.2-0.5-0.5-0.5c-0.3,0-0.5,0.2-0.5,0.5c0,0.3,0.2,0.5,0.5,0.5C28.3,21.2,28.5,21,28.5,20.7
		L28.5,20.7z"/>
	<path class="st4" d="M74.3,55.4v-0.5H71v5.3h0.6v-2.4h2.3v-0.5h-2.3v-2H74.3L74.3,55.4z M79,60.2l-2-5.3h-0.5l-2,5.3h0.6l0.4-1.2
		H78l0.4,1.2H79L79,60.2z M77.8,58.5h-2l1-2.8L77.8,58.5L77.8,58.5z M83.6,58.7H83c-0.1,0.7-0.6,1.1-1.3,1.1c-0.4,0-0.7-0.1-0.9-0.4
		c-0.3-0.3-0.4-0.7-0.4-1.8c0-1.1,0-1.5,0.4-1.8c0.2-0.2,0.6-0.4,0.9-0.4c0.7,0,1.1,0.4,1.3,1.1h0.6c-0.2-1-0.9-1.6-1.9-1.6
		c-0.5,0-1,0.2-1.4,0.6c-0.5,0.5-0.5,1-0.5,2.2c0,1.1,0,1.7,0.5,2.2c0.4,0.4,0.8,0.6,1.4,0.6C82.7,60.3,83.4,59.7,83.6,58.7
		L83.6,58.7z M88.7,60.2v-5.3h-0.6v2.4h-2.5v-2.4H85v5.3h0.6v-2.4h2.5v2.4H88.7L88.7,60.2z M94.3,58.8c0-0.6-0.4-1.1-0.9-1.3
		c0.4-0.2,0.8-0.6,0.8-1.2c0-0.9-0.6-1.4-1.6-1.4h-2v5.3h2.1C93.7,60.2,94.3,59.7,94.3,58.8L94.3,58.8z M93.8,58.8
		c0,0.6-0.4,1-1.1,1h-1.5v-2h1.5C93.3,57.8,93.8,58.2,93.8,58.8L93.8,58.8z M93.7,56.3c0,0.6-0.5,0.9-1,0.9h-1.4v-1.9h1.4
		C93.2,55.4,93.7,55.7,93.7,56.3L93.7,56.3z M99.3,60.2v-0.5h-2.7v-1.9h2.3v-0.5h-2.3v-1.9h2.7v-0.5H96v5.3H99.3L99.3,60.2z
		 M104.5,60.2l-1.3-2.4c0.7-0.1,1.2-0.7,1.2-1.4c0-0.9-0.7-1.5-1.6-1.5h-2v5.3h0.6v-2.4h1.3l1.2,2.4H104.5L104.5,60.2z M103.8,56.4
		c0,0.7-0.4,1-1.1,1h-1.4v-2h1.4C103.4,55.4,103.8,55.7,103.8,56.4L103.8,56.4z M109.2,60.2v-0.5h-2.7v-1.9h2.3v-0.5h-2.3v-1.9h2.7
		v-0.5h-3.3v5.3H109.2L109.2,60.2z M111.4,60.2v-5.3h-0.6v5.3H111.4L111.4,60.2z M116.7,58.7h-0.6c-0.1,0.7-0.6,1.1-1.3,1.1
		c-0.4,0-0.7-0.1-0.9-0.4c-0.3-0.3-0.4-0.7-0.4-1.8c0-1.1,0-1.5,0.4-1.8c0.2-0.2,0.6-0.4,0.9-0.4c0.7,0,1.1,0.4,1.3,1.1h0.6
		c-0.2-1-0.9-1.6-1.9-1.6c-0.5,0-1,0.2-1.4,0.6c-0.5,0.5-0.5,1-0.5,2.2c0,1.1,0,1.7,0.5,2.2c0.4,0.4,0.8,0.6,1.4,0.6
		C115.8,60.3,116.5,59.7,116.7,58.7L116.7,58.7z M121.9,60.2v-5.3h-0.6v2.4h-2.5v-2.4h-0.6v5.3h0.6v-2.4h2.5v2.4H121.9L121.9,60.2z
		 M126.6,60.2v-5.3H126v5.3H126.6L126.6,60.2z M132.3,60.2v-5.3h-0.6v4.3l-2.8-4.3h-0.5v5.3h0.6V56l2.8,4.3H132.3L132.3,60.2z
		 M137.4,55.4v-0.5h-3.3v5.3h0.6v-2.4h2.3v-0.5h-2.3v-2H137.4L137.4,55.4z M142.1,57.6c0-1.1,0-1.7-0.5-2.2
		c-0.4-0.4-0.8-0.6-1.4-0.6c-0.5,0-1,0.2-1.4,0.6c-0.5,0.5-0.5,1-0.5,2.2c0,1.1,0,1.7,0.5,2.2c0.4,0.4,0.8,0.6,1.4,0.6
		c0.5,0,1-0.2,1.4-0.6C142.1,59.2,142.1,58.7,142.1,57.6L142.1,57.6z M141.6,57.6c0,1.1,0,1.5-0.4,1.8c-0.2,0.2-0.6,0.4-0.9,0.4
		c-0.4,0-0.7-0.1-0.9-0.4c-0.3-0.3-0.4-0.7-0.4-1.8c0-1.1,0-1.5,0.4-1.8c0.2-0.2,0.6-0.4,0.9-0.4c0.4,0,0.7,0.1,0.9,0.4
		C141.5,56.1,141.6,56.5,141.6,57.6L141.6,57.6z M147.4,60.2l-1.3-2.4c0.7-0.1,1.2-0.7,1.2-1.4c0-0.9-0.7-1.5-1.6-1.5h-2v5.3h0.6
		v-2.4h1.3l1.2,2.4H147.4L147.4,60.2z M146.7,56.4c0,0.7-0.4,1-1.1,1h-1.4v-2h1.4C146.3,55.4,146.7,55.7,146.7,56.4L146.7,56.4z
		 M153.5,60.2v-5.3h-0.6l-1.7,3.8l-1.7-3.8h-0.6v5.3h0.6v-4.1l1.5,3.2h0.5l1.5-3.2v4.1H153.5L153.5,60.2z M159.2,60.2l-2-5.3h-0.5
		l-2,5.3h0.6l0.4-1.2h2.3l0.4,1.2H159.2L159.2,60.2z M158,58.5h-2l1-2.8L158,58.5L158,58.5z M163.1,55.4v-0.5h-3.7v0.5h1.5v4.8h0.6
		v-4.8H163.1L163.1,55.4z M165,60.2v-5.3h-0.6v5.3H165L165,60.2z M170.8,60.2l-1.9-3.3l1.7-2.1h-0.7l-2.5,3.1v-3.1h-0.6v5.3h0.6
		v-1.5l1.1-1.3l1.6,2.8H170.8L170.8,60.2z"/>
	<path class="st4" d="M74.2,45.6v-1.3H73v-0.7c0-0.4,0.2-0.6,0.6-0.6h0.7v-1.4h-1c-1.4,0-2,1-2,1.9v0.8h-0.7v1.3h0.7v5.3H73v-5.3
		H74.2L74.2,45.6z M81.3,47.5c0-1,0-2.2-0.7-2.8c-0.4-0.4-1-0.6-1.7-0.6c-0.7,0-1.2,0.2-1.6,0.7v-3.1h-1.7v9.3h1.6v-0.6
		c0.5,0.5,1,0.7,1.7,0.7c0.7,0,1.3-0.2,1.7-0.6C81.3,49.6,81.3,48.5,81.3,47.5L81.3,47.5z M79.7,47.5c0,1.1-0.1,2-1.1,2
		c-1,0-1.1-0.8-1.1-2c0-1.1,0.1-1.9,1.1-1.9C79.5,45.5,79.7,46.3,79.7,47.5L79.7,47.5z M85.1,50.8v-6.8h-1.7v6.8H85.1L85.1,50.8z
		 M85.1,42.9v-1.4h-1.7v1.4H85.1L85.1,42.9z"/>
	<path class="st4" d="M74.7,31.5v-3.6h-0.6v3.5c0,0.8-0.5,1.3-1.3,1.3c-0.8,0-1.3-0.5-1.3-1.3v-3.5H71v3.6c0,1.1,0.8,1.8,1.9,1.8
		C73.9,33.3,74.7,32.5,74.7,31.5L74.7,31.5z M80.4,33.2v-5.3h-0.6v4.3L77,27.9h-0.5v5.3H77V29l2.8,4.3H80.4L80.4,33.2z M82.9,33.2
		v-5.3h-0.6v5.3H82.9L82.9,33.2z M88.3,27.9h-0.6l-1.4,4.3l-1.4-4.3h-0.6l1.8,5.3h0.5L88.3,27.9L88.3,27.9z M93,33.2v-0.5h-2.7v-1.9
		h2.3v-0.5h-2.3v-1.9H93v-0.5h-3.3v5.3H93L93,33.2z M98.2,33.2l-1.3-2.4c0.7-0.1,1.2-0.7,1.2-1.4c0-0.9-0.7-1.5-1.6-1.5h-2v5.3H95
		v-2.4h1.3l1.2,2.4H98.2L98.2,33.2z M97.5,29.4c0,0.7-0.4,1-1.1,1H95v-2h1.4C97.1,28.4,97.5,28.7,97.5,29.4L97.5,29.4z M102.9,31.8
		c0-0.4-0.2-0.8-0.4-1.1c-0.2-0.2-0.5-0.3-1-0.4l-0.6-0.1c-0.3,0-0.6-0.2-0.7-0.3c-0.2-0.1-0.2-0.4-0.2-0.6c0-0.6,0.4-1,1.1-1
		c0.6,0,0.9,0.2,1.2,0.5l0.4-0.4c-0.5-0.4-0.9-0.6-1.6-0.6c-1.1,0-1.7,0.6-1.7,1.5c0,0.4,0.1,0.8,0.4,1c0.2,0.2,0.6,0.3,1,0.4
		l0.6,0.1c0.4,0.1,0.5,0.1,0.7,0.3c0.2,0.1,0.3,0.4,0.3,0.7c0,0.6-0.5,1-1.3,1c-0.6,0-1-0.1-1.5-0.6l-0.4,0.4c0.5,0.5,1,0.7,1.8,0.7
		C102.1,33.3,102.9,32.7,102.9,31.8L102.9,31.8z M105.1,33.2v-5.3h-0.6v5.3H105.1L105.1,33.2z M110.2,28.4v-0.5h-3.7v0.5h1.5v4.8
		h0.6v-4.8H110.2L110.2,28.4z M114.9,27.9h-0.6l-1.2,2.6l-1.3-2.6h-0.6l1.6,3.1v2.2h0.6V31L114.9,27.9L114.9,27.9z M122,30.6
		c0-1.1,0-1.7-0.5-2.2c-0.4-0.4-0.8-0.6-1.4-0.6c-0.5,0-1,0.2-1.4,0.6c-0.5,0.5-0.5,1-0.5,2.2c0,1.1,0,1.7,0.5,2.2
		c0.4,0.4,0.8,0.6,1.4,0.6c0.5,0,1-0.2,1.4-0.6C122,32.2,122,31.7,122,30.6L122,30.6z M121.5,30.6c0,1.1,0,1.5-0.4,1.8
		c-0.2,0.2-0.6,0.4-0.9,0.4c-0.4,0-0.7-0.1-0.9-0.4c-0.3-0.3-0.4-0.7-0.4-1.8c0-1.1,0-1.5,0.4-1.8c0.2-0.2,0.6-0.4,0.9-0.4
		c0.4,0,0.7,0.1,0.9,0.4C121.4,29.1,121.5,29.5,121.5,30.6L121.5,30.6z M127,28.4v-0.5h-3.3v5.3h0.6v-2.4h2.3v-0.5h-2.3v-2H127
		L127,28.4z M134.2,33.2l-2-5.3h-0.5l-2,5.3h0.6l0.4-1.2h2.3l0.4,1.2H134.2L134.2,33.2z M133,31.5h-2l1-2.8L133,31.5L133,31.5z
		 M139.1,29.5c0-1-0.7-1.6-1.6-1.6h-2v5.3h0.6V31h1.4C138.4,31,139.1,30.4,139.1,29.5L139.1,29.5z M138.5,29.5
		c0,0.7-0.5,1.1-1.1,1.1H136v-2.1h1.4C138,28.4,138.5,28.8,138.5,29.5L138.5,29.5z M144,29.5c0-1-0.7-1.6-1.6-1.6h-2v5.3h0.6V31h1.4
		C143.3,31,144,30.4,144,29.5L144,29.5z M143.4,29.5c0,0.7-0.5,1.1-1.1,1.1h-1.4v-2.1h1.4C143,28.4,143.4,28.8,143.4,29.5
		L143.4,29.5z M148.6,33.2v-0.5h-2.7v-4.8h-0.6v5.3H148.6L148.6,33.2z M150.4,33.2v-5.3h-0.6v5.3H150.4L150.4,33.2z M155.6,33.2
		v-0.5h-2.7v-1.9h2.3v-0.5h-2.3v-1.9h2.7v-0.5h-3.3v5.3H155.6L155.6,33.2z M160.7,30.5c0-0.7,0-1.6-0.5-2.1
		c-0.3-0.3-0.8-0.5-1.4-0.5H157v5.3h1.8c0.6,0,1-0.2,1.4-0.5C160.8,32.2,160.7,31.3,160.7,30.5L160.7,30.5z M160.2,30.5
		c0,0.7,0,1.4-0.4,1.8c-0.3,0.3-0.6,0.4-1,0.4h-1.2v-4.3h1.2c0.4,0,0.8,0.1,1,0.4C160.2,29.2,160.2,29.9,160.2,30.5L160.2,30.5z
		 M168.3,31.8c0-0.4-0.2-0.8-0.4-1.1c-0.2-0.2-0.5-0.3-1-0.4l-0.6-0.1c-0.3,0-0.6-0.2-0.7-0.3c-0.2-0.1-0.2-0.4-0.2-0.6
		c0-0.6,0.4-1,1.1-1c0.6,0,0.9,0.2,1.2,0.5l0.4-0.4c-0.5-0.4-0.9-0.6-1.6-0.6c-1.1,0-1.7,0.6-1.7,1.5c0,0.4,0.1,0.8,0.4,1
		c0.2,0.2,0.6,0.3,1,0.4l0.6,0.1c0.4,0.1,0.5,0.1,0.7,0.3c0.2,0.1,0.3,0.4,0.3,0.7c0,0.6-0.5,1-1.3,1c-0.6,0-1-0.1-1.5-0.6l-0.4,0.4
		c0.5,0.5,1,0.7,1.8,0.7C167.5,33.3,168.3,32.7,168.3,31.8L168.3,31.8z M173.1,31.7h-0.6c-0.1,0.7-0.6,1.1-1.3,1.1
		c-0.4,0-0.7-0.1-0.9-0.4c-0.3-0.3-0.4-0.7-0.4-1.8c0-1.1,0-1.5,0.4-1.8c0.2-0.2,0.6-0.4,0.9-0.4c0.7,0,1.1,0.4,1.3,1.1h0.6
		c-0.2-1-0.9-1.6-1.9-1.6c-0.5,0-1,0.2-1.4,0.6c-0.5,0.5-0.5,1-0.5,2.2c0,1.1,0,1.7,0.5,2.2c0.4,0.4,0.8,0.6,1.4,0.6
		C172.2,33.3,173,32.7,173.1,31.7L173.1,31.7z M175.3,33.2v-5.3h-0.6v5.3H175.3L175.3,33.2z M180.5,33.2v-0.5h-2.7v-1.9h2.3v-0.5
		h-2.3v-1.9h2.7v-0.5h-3.3v5.3H180.5L180.5,33.2z M185.9,33.2v-5.3h-0.6v4.3l-2.8-4.3H182v5.3h0.6V29l2.8,4.3H185.9L185.9,33.2z
		 M191.1,31.7h-0.6c-0.1,0.7-0.6,1.1-1.3,1.1c-0.4,0-0.7-0.1-0.9-0.4c-0.3-0.3-0.4-0.7-0.4-1.8c0-1.1,0-1.5,0.4-1.8
		c0.2-0.2,0.6-0.4,0.9-0.4c0.7,0,1.1,0.4,1.3,1.1h0.6c-0.2-1-0.9-1.6-1.9-1.6c-0.5,0-1,0.2-1.4,0.6c-0.5,0.5-0.5,1-0.5,2.2
		c0,1.1,0,1.7,0.5,2.2c0.4,0.4,0.8,0.6,1.4,0.6C190.2,33.3,190.9,32.7,191.1,31.7L191.1,31.7z M195.9,33.2v-0.5h-2.7v-1.9h2.3v-0.5
		h-2.3v-1.9h2.7v-0.5h-3.3v5.3H195.9L195.9,33.2z M200.6,31.8c0-0.4-0.2-0.8-0.4-1.1c-0.2-0.2-0.5-0.3-1-0.4l-0.6-0.1
		c-0.3,0-0.6-0.2-0.7-0.3c-0.2-0.1-0.2-0.4-0.2-0.6c0-0.6,0.4-1,1.1-1c0.6,0,0.9,0.2,1.2,0.5l0.4-0.4c-0.5-0.4-0.9-0.6-1.6-0.6
		c-1.1,0-1.7,0.6-1.7,1.5c0,0.4,0.1,0.8,0.4,1c0.2,0.2,0.6,0.3,1,0.4l0.6,0.1c0.4,0.1,0.5,0.1,0.7,0.3c0.2,0.1,0.3,0.4,0.3,0.7
		c0,0.6-0.5,1-1.3,1c-0.6,0-1-0.1-1.5-0.6l-0.4,0.4c0.5,0.5,1,0.7,1.8,0.7C199.9,33.3,200.6,32.7,200.6,31.8L200.6,31.8z"/>
	<path class="st4" d="M74.7,24.2v-5.3h-0.6v2.4h-2.5v-2.4H71v5.3h0.6v-2.4h2.5v2.4H74.7L74.7,24.2z M80.1,21.6c0-1.1,0-1.7-0.5-2.2
		c-0.4-0.4-0.8-0.6-1.4-0.6s-1,0.2-1.4,0.6c-0.5,0.5-0.5,1-0.5,2.2c0,1.1,0,1.7,0.5,2.2c0.4,0.4,0.8,0.6,1.4,0.6s1-0.2,1.4-0.6
		C80.1,23.2,80.1,22.7,80.1,21.6L80.1,21.6z M79.5,21.6c0,1.1,0,1.5-0.4,1.8c-0.2,0.2-0.6,0.4-0.9,0.4c-0.4,0-0.7-0.1-0.9-0.4
		c-0.3-0.3-0.4-0.7-0.4-1.8c0-1.1,0-1.5,0.4-1.8c0.2-0.2,0.6-0.4,0.9-0.4c0.4,0,0.7,0.1,0.9,0.4C79.5,20.1,79.5,20.5,79.5,21.6
		L79.5,21.6z M85.2,22.7h-0.6c-0.1,0.7-0.6,1.1-1.3,1.1c-0.4,0-0.7-0.1-0.9-0.4c-0.3-0.3-0.4-0.7-0.4-1.8c0-1.1,0-1.5,0.4-1.8
		c0.2-0.2,0.6-0.4,0.9-0.4c0.7,0,1.1,0.4,1.3,1.1h0.6c-0.2-1-0.9-1.6-1.9-1.6c-0.5,0-1,0.2-1.4,0.6c-0.5,0.5-0.5,1-0.5,2.2
		c0,1.1,0,1.7,0.5,2.2c0.4,0.4,0.8,0.6,1.4,0.6C84.3,24.3,85,23.7,85.2,22.7L85.2,22.7z M90.3,24.2v-5.3h-0.6v2.4h-2.5v-2.4h-0.6
		v5.3h0.6v-2.4h2.5v2.4H90.3L90.3,24.2z M95.4,22.8c0-0.4-0.2-0.8-0.4-1.1c-0.2-0.2-0.5-0.3-1-0.4l-0.6-0.1c-0.3,0-0.6-0.2-0.7-0.3
		c-0.2-0.1-0.2-0.4-0.2-0.6c0-0.6,0.4-1,1.1-1c0.6,0,0.9,0.2,1.2,0.5l0.4-0.4c-0.5-0.4-0.9-0.6-1.6-0.6c-1.1,0-1.7,0.6-1.7,1.5
		c0,0.4,0.1,0.8,0.4,1c0.2,0.2,0.6,0.3,1,0.4l0.6,0.1c0.4,0.1,0.5,0.1,0.7,0.3c0.2,0.1,0.3,0.4,0.3,0.7c0,0.6-0.5,1-1.3,1
		c-0.6,0-1-0.1-1.5-0.6l-0.4,0.4c0.5,0.5,1,0.7,1.8,0.7C94.7,24.3,95.4,23.7,95.4,22.8L95.4,22.8z M100.4,22.7h-0.6
		c-0.1,0.7-0.6,1.1-1.3,1.1c-0.4,0-0.7-0.1-0.9-0.4c-0.3-0.3-0.4-0.7-0.4-1.8c0-1.1,0-1.5,0.4-1.8c0.2-0.2,0.6-0.4,0.9-0.4
		c0.7,0,1.1,0.4,1.3,1.1h0.6c-0.2-1-0.9-1.6-1.9-1.6c-0.5,0-1,0.2-1.4,0.6c-0.5,0.5-0.5,1-0.5,2.2c0,1.1,0,1.7,0.5,2.2
		c0.4,0.4,0.8,0.6,1.4,0.6C99.5,24.3,100.2,23.7,100.4,22.7L100.4,22.7z M105.5,24.2v-5.3h-0.6v2.4h-2.5v-2.4h-0.6v5.3h0.6v-2.4h2.5
		v2.4H105.5L105.5,24.2z M111,22.5v-3.6h-0.6v3.5c0,0.8-0.5,1.3-1.3,1.3s-1.3-0.5-1.3-1.3v-3.5h-0.6v3.6c0,1.1,0.8,1.8,1.9,1.8
		C110.2,24.3,111,23.5,111,22.5L111,22.5z M116.1,24.2v-0.5h-2.7v-4.8h-0.6v5.3H116.1L116.1,24.2z M120.8,24.2v-0.5H118v-1.9h2.3
		v-0.5H118v-1.9h2.7v-0.5h-3.3v5.3H120.8L120.8,24.2z M128.8,21.5c0-0.7,0-1.6-0.5-2.1c-0.3-0.3-0.8-0.5-1.4-0.5h-1.8v5.3h1.8
		c0.6,0,1-0.2,1.4-0.5C128.9,23.2,128.8,22.3,128.8,21.5L128.8,21.5z M128.3,21.5c0,0.7,0,1.4-0.4,1.8c-0.3,0.3-0.6,0.4-1,0.4h-1.2
		v-4.3h1.2c0.4,0,0.8,0.1,1,0.4C128.3,20.2,128.3,20.9,128.3,21.5L128.3,21.5z M134.2,24.2l-2-5.3h-0.5l-2,5.3h0.6l0.4-1.2h2.3
		l0.4,1.2H134.2L134.2,24.2z M133,22.5h-2l1-2.8L133,22.5L133,22.5z M139.2,24.2l-1.3-2.4c0.7-0.1,1.2-0.7,1.2-1.4
		c0-0.9-0.7-1.5-1.6-1.5h-2v5.3h0.6v-2.4h1.3l1.2,2.4H139.2L139.2,24.2z M138.5,20.4c0,0.7-0.4,1-1.1,1H136v-2h1.4
		C138.1,19.4,138.5,19.7,138.5,20.4L138.5,20.4z M145.4,24.2v-5.3h-0.6l-1.7,3.8l-1.7-3.8h-0.6v5.3h0.6v-4.1l1.5,3.2h0.5l1.5-3.2
		v4.1H145.4L145.4,24.2z M150.5,22.8c0-0.4-0.2-0.8-0.4-1.1c-0.2-0.2-0.5-0.3-1-0.4l-0.6-0.1c-0.3,0-0.6-0.2-0.7-0.3
		c-0.2-0.1-0.2-0.4-0.2-0.6c0-0.6,0.4-1,1.1-1c0.6,0,0.9,0.2,1.2,0.5l0.4-0.4c-0.5-0.4-0.9-0.6-1.6-0.6c-1.1,0-1.7,0.6-1.7,1.5
		c0,0.4,0.1,0.8,0.4,1c0.2,0.2,0.6,0.3,1,0.4l0.6,0.1c0.4,0.1,0.5,0.1,0.7,0.3c0.2,0.1,0.3,0.4,0.3,0.7c0,0.6-0.5,1-1.3,1
		c-0.6,0-1-0.1-1.5-0.6l-0.4,0.4c0.5,0.5,1,0.7,1.8,0.7C149.8,24.3,150.5,23.7,150.5,22.8L150.5,22.8z M155,19.4v-0.5h-3.7v0.5h1.5
		v4.8h0.6v-4.8H155L155,19.4z M159.8,24.2l-2-5.3h-0.5l-2,5.3h0.6l0.4-1.2h2.3l0.4,1.2H159.8L159.8,24.2z M158.6,22.5h-2l1-2.8
		L158.6,22.5L158.6,22.5z M164.8,21.5c0-0.7,0-1.6-0.5-2.1c-0.3-0.3-0.8-0.5-1.4-0.5h-1.8v5.3h1.8c0.6,0,1-0.2,1.4-0.5
		C164.9,23.2,164.8,22.3,164.8,21.5L164.8,21.5z M164.3,21.5c0,0.7,0,1.4-0.4,1.8c-0.3,0.3-0.6,0.4-1.1,0.4h-1.2v-4.3h1.2
		c0.4,0,0.8,0.1,1.1,0.4C164.3,20.2,164.3,20.9,164.3,21.5L164.3,21.5z M169.5,19.4v-0.5h-3.7v0.5h1.5v4.8h0.6v-4.8H169.5
		L169.5,19.4z"/>
	<path class="st4" d="M76.6,9.2V4.9c0-1.4-0.8-2.5-2.3-2.5c-0.6,0-1.2,0.2-1.6,0.7V0H71v9.3h1.7V5.1c0-0.9,0.6-1.2,1.1-1.2
		c0.5,0,1.1,0.3,1.1,1.2v4.1H76.6L76.6,9.2z M81.5,10.5v-0.4h-4v0.4H81.5L81.5,10.5z M87.3,9.2V0h-1.7v3.1c-0.4-0.5-1-0.7-1.7-0.7
		c-0.7,0-1.3,0.2-1.7,0.6c-0.7,0.7-0.7,1.8-0.7,2.8c0,1,0,2.2,0.7,2.9c0.4,0.4,1,0.6,1.7,0.6c0.7,0,1.2-0.2,1.7-0.7v0.6H87.3
		L87.3,9.2z M85.6,5.9c0,1.1-0.1,2-1.2,2c-1,0-1.1-0.8-1.1-2c0-1.1,0.1-1.9,1.1-1.9C85.5,3.9,85.6,4.7,85.6,5.9L85.6,5.9z M94.2,9.2
		V4.8c0-1.6-1-2.4-2.9-2.4c-1.1,0-1.8,0.2-2.4,0.9L90,4.4c0.4-0.4,0.6-0.6,1.3-0.6c0.9,0,1.3,0.3,1.3,1.1v0.3h-1.6
		c-1.6,0-2.3,0.9-2.3,2c0,0.6,0.2,1.1,0.6,1.5c0.4,0.4,1,0.6,1.7,0.6c0.8,0,1.2-0.2,1.7-0.6v0.6H94.2L94.2,9.2z M92.5,6.7
		c0,0.4-0.1,0.7-0.2,0.9c-0.3,0.3-0.6,0.3-1.1,0.3c-0.7,0-1-0.3-1-0.8c0-0.5,0.3-0.8,0.9-0.8h1.3V6.7L92.5,6.7z"/>
</g>
</svg>
