<?xml version="1.0" encoding="UTF-8" standalone="no"?>
<svg
   xmlns:dc="http://purl.org/dc/elements/1.1/"
   xmlns:cc="http://creativecommons.org/ns#"
   xmlns:rdf="http://www.w3.org/1999/02/22-rdf-syntax-ns#"
   xmlns:svg="http://www.w3.org/2000/svg"
   xmlns="http://www.w3.org/2000/svg"
   id="svg2"
   version="1.1"
   xml:space="preserve"
   width="235.38576"
   height="84.660622"
   viewBox="0 0 235.38576 84.660622"><metadata
     id="metadata8"><rdf:RDF><cc:Work
         rdf:about=""><dc:format>image/svg+xml</dc:format><dc:type
           rdf:resource="http://purl.org/dc/dcmitype/StillImage" /><dc:title></dc:title></cc:Work></rdf:RDF></metadata><defs
     id="defs6"><clipPath
       id="clipPath1207"
       clipPathUnits="userSpaceOnUse"><path
         id="path1209"
         d="m 374.93825,945.96607 -7.3903,-713.16397 1747.80595,60.96997 25.8661,164.43418 138.5682,528.40647 z"
         style="fill:none;stroke:#000000;stroke-width:8px;stroke-linecap:butt;stroke-linejoin:miter;stroke-opacity:1" /></clipPath><clipPath
       id="clipPath1211"
       clipPathUnits="userSpaceOnUse"><path
         id="path1213"
         d="m 374.93825,945.96607 -7.3903,-713.16397 1747.80595,60.96997 25.8661,164.43418 138.5682,528.40647 z"
         style="fill:none;stroke:#000000;stroke-width:8px;stroke-linecap:butt;stroke-linejoin:miter;stroke-opacity:1" /></clipPath><clipPath
       id="clipPath1215"
       clipPathUnits="userSpaceOnUse"><path
         id="path1217"
         d="m 374.93825,945.96607 -7.3903,-713.16397 1747.80595,60.96997 25.8661,164.43418 138.5682,528.40647 z"
         style="fill:none;stroke:#000000;stroke-width:8px;stroke-linecap:butt;stroke-linejoin:miter;stroke-opacity:1" /></clipPath><clipPath
       id="clipPath1219"
       clipPathUnits="userSpaceOnUse"><path
         id="path1221"
         d="m 374.93825,945.96607 -7.3903,-713.16397 1747.80595,60.96997 25.8661,164.43418 138.5682,528.40647 z"
         style="fill:none;stroke:#000000;stroke-width:8px;stroke-linecap:butt;stroke-linejoin:miter;stroke-opacity:1" /></clipPath><clipPath
       id="clipPath1223"
       clipPathUnits="userSpaceOnUse"><path
         id="path1225"
         d="m 374.93825,945.96607 -7.3903,-713.16397 1747.80595,60.96997 25.8661,164.43418 138.5682,528.40647 z"
         style="fill:none;stroke:#000000;stroke-width:8px;stroke-linecap:butt;stroke-linejoin:miter;stroke-opacity:1" /></clipPath><clipPath
       id="clipPath1227"
       clipPathUnits="userSpaceOnUse"><path
         id="path1229"
         d="m 374.93825,945.96607 -7.3903,-713.16397 1747.80595,60.96997 25.8661,164.43418 138.5682,528.40647 z"
         style="fill:none;stroke:#000000;stroke-width:8px;stroke-linecap:butt;stroke-linejoin:miter;stroke-opacity:1" /></clipPath><clipPath
       id="clipPath1231"
       clipPathUnits="userSpaceOnUse"><path
         id="path1233"
         d="m 374.93825,945.96607 -7.3903,-713.16397 1747.80595,60.96997 25.8661,164.43418 138.5682,528.40647 z"
         style="fill:none;stroke:#000000;stroke-width:8px;stroke-linecap:butt;stroke-linejoin:miter;stroke-opacity:1" /></clipPath><clipPath
       id="clipPath1235"
       clipPathUnits="userSpaceOnUse"><path
         id="path1237"
         d="m 374.93825,945.96607 -7.3903,-713.16397 1747.80595,60.96997 25.8661,164.43418 138.5682,528.40647 z"
         style="fill:none;stroke:#000000;stroke-width:8px;stroke-linecap:butt;stroke-linejoin:miter;stroke-opacity:1" /></clipPath><clipPath
       id="clipPath1239"
       clipPathUnits="userSpaceOnUse"><path
         id="path1241"
         d="m 374.93825,945.96607 -7.3903,-713.16397 1747.80595,60.96997 25.8661,164.43418 138.5682,528.40647 z"
         style="fill:none;stroke:#000000;stroke-width:8px;stroke-linecap:butt;stroke-linejoin:miter;stroke-opacity:1" /></clipPath><clipPath
       id="clipPath1243"
       clipPathUnits="userSpaceOnUse"><path
         id="path1245"
         d="m 374.93825,945.96607 -7.3903,-713.16397 1747.80595,60.96997 25.8661,164.43418 138.5682,528.40647 z"
         style="fill:none;stroke:#000000;stroke-width:8px;stroke-linecap:butt;stroke-linejoin:miter;stroke-opacity:1" /></clipPath><clipPath
       id="clipPath1247"
       clipPathUnits="userSpaceOnUse"><path
         id="path1249"
         d="m 374.93825,945.96607 -7.3903,-713.16397 1747.80595,60.96997 25.8661,164.43418 138.5682,528.40647 z"
         style="fill:none;stroke:#000000;stroke-width:8px;stroke-linecap:butt;stroke-linejoin:miter;stroke-opacity:1" /></clipPath><clipPath
       id="clipPath1251"
       clipPathUnits="userSpaceOnUse"><path
         id="path1253"
         d="m 374.93825,945.96607 -7.3903,-713.16397 1747.80595,60.96997 25.8661,164.43418 138.5682,528.40647 z"
         style="fill:none;stroke:#000000;stroke-width:8px;stroke-linecap:butt;stroke-linejoin:miter;stroke-opacity:1" /></clipPath><clipPath
       id="clipPath1255"
       clipPathUnits="userSpaceOnUse"><path
         id="path1257"
         d="m 374.93825,945.96607 -7.3903,-713.16397 1747.80595,60.96997 25.8661,164.43418 138.5682,528.40647 z"
         style="fill:none;stroke:#000000;stroke-width:8px;stroke-linecap:butt;stroke-linejoin:miter;stroke-opacity:1" /></clipPath><clipPath
       id="clipPath1259"
       clipPathUnits="userSpaceOnUse"><path
         id="path1261"
         d="m 374.93825,945.96607 -7.3903,-713.16397 1747.80595,60.96997 25.8661,164.43418 138.5682,528.40647 z"
         style="fill:none;stroke:#000000;stroke-width:8px;stroke-linecap:butt;stroke-linejoin:miter;stroke-opacity:1" /></clipPath><clipPath
       id="clipPath1263"
       clipPathUnits="userSpaceOnUse"><path
         id="path1265"
         d="m 374.93825,945.96607 -7.3903,-713.16397 1747.80595,60.96997 25.8661,164.43418 138.5682,528.40647 z"
         style="fill:none;stroke:#000000;stroke-width:8px;stroke-linecap:butt;stroke-linejoin:miter;stroke-opacity:1" /></clipPath><clipPath
       id="clipPath1267"
       clipPathUnits="userSpaceOnUse"><path
         id="path1269"
         d="m 374.93825,945.96607 -7.3903,-713.16397 1747.80595,60.96997 25.8661,164.43418 138.5682,528.40647 z"
         style="fill:none;stroke:#000000;stroke-width:8px;stroke-linecap:butt;stroke-linejoin:miter;stroke-opacity:1" /></clipPath><clipPath
       id="clipPath1271"
       clipPathUnits="userSpaceOnUse"><path
         id="path1273"
         d="m 374.93825,945.96607 -7.3903,-713.16397 1747.80595,60.96997 25.8661,164.43418 138.5682,528.40647 z"
         style="fill:none;stroke:#000000;stroke-width:8px;stroke-linecap:butt;stroke-linejoin:miter;stroke-opacity:1" /></clipPath><clipPath
       id="clipPath1275"
       clipPathUnits="userSpaceOnUse"><path
         id="path1277"
         d="m 374.93825,945.96607 -7.3903,-713.16397 1747.80595,60.96997 25.8661,164.43418 138.5682,528.40647 z"
         style="fill:none;stroke:#000000;stroke-width:8px;stroke-linecap:butt;stroke-linejoin:miter;stroke-opacity:1" /></clipPath><clipPath
       id="clipPath1279"
       clipPathUnits="userSpaceOnUse"><path
         id="path1281"
         d="m 374.93825,945.96607 -7.3903,-713.16397 1747.80595,60.96997 25.8661,164.43418 138.5682,528.40647 z"
         style="fill:none;stroke:#000000;stroke-width:8px;stroke-linecap:butt;stroke-linejoin:miter;stroke-opacity:1" /></clipPath><clipPath
       id="clipPath1283"
       clipPathUnits="userSpaceOnUse"><path
         id="path1285"
         d="m 374.93825,945.96607 -7.3903,-713.16397 1747.80595,60.96997 25.8661,164.43418 138.5682,528.40647 z"
         style="fill:none;stroke:#000000;stroke-width:8px;stroke-linecap:butt;stroke-linejoin:miter;stroke-opacity:1" /></clipPath><clipPath
       id="clipPath1287"
       clipPathUnits="userSpaceOnUse"><path
         id="path1289"
         d="m 374.93825,945.96607 -7.3903,-713.16397 1747.80595,60.96997 25.8661,164.43418 138.5682,528.40647 z"
         style="fill:none;stroke:#000000;stroke-width:8px;stroke-linecap:butt;stroke-linejoin:miter;stroke-opacity:1" /></clipPath><clipPath
       id="clipPath1291"
       clipPathUnits="userSpaceOnUse"><path
         id="path1293"
         d="m 374.93825,945.96607 -7.3903,-713.16397 1747.80595,60.96997 25.8661,164.43418 138.5682,528.40647 z"
         style="fill:none;stroke:#000000;stroke-width:8px;stroke-linecap:butt;stroke-linejoin:miter;stroke-opacity:1" /></clipPath><clipPath
       id="clipPath1295"
       clipPathUnits="userSpaceOnUse"><path
         id="path1297"
         d="m 374.93825,945.96607 -7.3903,-713.16397 1747.80595,60.96997 25.8661,164.43418 138.5682,528.40647 z"
         style="fill:none;stroke:#000000;stroke-width:8px;stroke-linecap:butt;stroke-linejoin:miter;stroke-opacity:1" /></clipPath><clipPath
       id="clipPath1299"
       clipPathUnits="userSpaceOnUse"><path
         id="path1301"
         d="m 374.93825,945.96607 -7.3903,-713.16397 1747.80595,60.96997 25.8661,164.43418 138.5682,528.40647 z"
         style="fill:none;stroke:#000000;stroke-width:8px;stroke-linecap:butt;stroke-linejoin:miter;stroke-opacity:1" /></clipPath><clipPath
       id="clipPath1303"
       clipPathUnits="userSpaceOnUse"><path
         id="path1305"
         d="m 374.93825,945.96607 -7.3903,-713.16397 1747.80595,60.96997 25.8661,164.43418 138.5682,528.40647 z"
         style="fill:none;stroke:#000000;stroke-width:8px;stroke-linecap:butt;stroke-linejoin:miter;stroke-opacity:1" /></clipPath><clipPath
       id="clipPath1307"
       clipPathUnits="userSpaceOnUse"><path
         id="path1309"
         d="m 374.93825,945.96607 -7.3903,-713.16397 1747.80595,60.96997 25.8661,164.43418 138.5682,528.40647 z"
         style="fill:none;stroke:#000000;stroke-width:8px;stroke-linecap:butt;stroke-linejoin:miter;stroke-opacity:1" /></clipPath><clipPath
       id="clipPath1311"
       clipPathUnits="userSpaceOnUse"><path
         id="path1313"
         d="m 374.93825,945.96607 -7.3903,-713.16397 1747.80595,60.96997 25.8661,164.43418 138.5682,528.40647 z"
         style="fill:none;stroke:#000000;stroke-width:8px;stroke-linecap:butt;stroke-linejoin:miter;stroke-opacity:1" /></clipPath><clipPath
       id="clipPath1315"
       clipPathUnits="userSpaceOnUse"><path
         id="path1317"
         d="m 374.93825,945.96607 -7.3903,-713.16397 1747.80595,60.96997 25.8661,164.43418 138.5682,528.40647 z"
         style="fill:none;stroke:#000000;stroke-width:8px;stroke-linecap:butt;stroke-linejoin:miter;stroke-opacity:1" /></clipPath><clipPath
       id="clipPath1319"
       clipPathUnits="userSpaceOnUse"><path
         id="path1321"
         d="m 374.93825,945.96607 -7.3903,-713.16397 1747.80595,60.96997 25.8661,164.43418 138.5682,528.40647 z"
         style="fill:none;stroke:#000000;stroke-width:8px;stroke-linecap:butt;stroke-linejoin:miter;stroke-opacity:1" /></clipPath><clipPath
       id="clipPath1323"
       clipPathUnits="userSpaceOnUse"><path
         id="path1325"
         d="m 374.93825,945.96607 -7.3903,-713.16397 1747.80595,60.96997 25.8661,164.43418 138.5682,528.40647 z"
         style="fill:none;stroke:#000000;stroke-width:8px;stroke-linecap:butt;stroke-linejoin:miter;stroke-opacity:1" /></clipPath><clipPath
       id="clipPath1327"
       clipPathUnits="userSpaceOnUse"><path
         id="path1329"
         d="m 374.93825,945.96607 -7.3903,-713.16397 1747.80595,60.96997 25.8661,164.43418 138.5682,528.40647 z"
         style="fill:none;stroke:#000000;stroke-width:8px;stroke-linecap:butt;stroke-linejoin:miter;stroke-opacity:1" /></clipPath><clipPath
       id="clipPath1331"
       clipPathUnits="userSpaceOnUse"><path
         id="path1333"
         d="m 374.93825,945.96607 -7.3903,-713.16397 1747.80595,60.96997 25.8661,164.43418 138.5682,528.40647 z"
         style="fill:none;stroke:#000000;stroke-width:8px;stroke-linecap:butt;stroke-linejoin:miter;stroke-opacity:1" /></clipPath><clipPath
       id="clipPath1335"
       clipPathUnits="userSpaceOnUse"><path
         id="path1337"
         d="m 374.93825,945.96607 -7.3903,-713.16397 1747.80595,60.96997 25.8661,164.43418 138.5682,528.40647 z"
         style="fill:none;stroke:#000000;stroke-width:8px;stroke-linecap:butt;stroke-linejoin:miter;stroke-opacity:1" /></clipPath><clipPath
       id="clipPath1339"
       clipPathUnits="userSpaceOnUse"><path
         id="path1341"
         d="m 374.93825,945.96607 -7.3903,-713.16397 1747.80595,60.96997 25.8661,164.43418 138.5682,528.40647 z"
         style="fill:none;stroke:#000000;stroke-width:8px;stroke-linecap:butt;stroke-linejoin:miter;stroke-opacity:1" /></clipPath><clipPath
       id="clipPath1343"
       clipPathUnits="userSpaceOnUse"><path
         id="path1345"
         d="m 374.93825,945.96607 -7.3903,-713.16397 1747.80595,60.96997 25.8661,164.43418 138.5682,528.40647 z"
         style="fill:none;stroke:#000000;stroke-width:8px;stroke-linecap:butt;stroke-linejoin:miter;stroke-opacity:1" /></clipPath><clipPath
       id="clipPath1347"
       clipPathUnits="userSpaceOnUse"><path
         id="path1349"
         d="m 374.93825,945.96607 -7.3903,-713.16397 1747.80595,60.96997 25.8661,164.43418 138.5682,528.40647 z"
         style="fill:none;stroke:#000000;stroke-width:8px;stroke-linecap:butt;stroke-linejoin:miter;stroke-opacity:1" /></clipPath><clipPath
       id="clipPath1351"
       clipPathUnits="userSpaceOnUse"><path
         id="path1353"
         d="m 374.93825,945.96607 -7.3903,-713.16397 1747.80595,60.96997 25.8661,164.43418 138.5682,528.40647 z"
         style="fill:none;stroke:#000000;stroke-width:8px;stroke-linecap:butt;stroke-linejoin:miter;stroke-opacity:1" /></clipPath><clipPath
       id="clipPath1355"
       clipPathUnits="userSpaceOnUse"><path
         id="path1357"
         d="m 374.93825,945.96607 -7.3903,-713.16397 1747.80595,60.96997 25.8661,164.43418 138.5682,528.40647 z"
         style="fill:none;stroke:#000000;stroke-width:8px;stroke-linecap:butt;stroke-linejoin:miter;stroke-opacity:1" /></clipPath><clipPath
       id="clipPath1359"
       clipPathUnits="userSpaceOnUse"><path
         id="path1361"
         d="m 374.93825,945.96607 -7.3903,-713.16397 1747.80595,60.96997 25.8661,164.43418 138.5682,528.40647 z"
         style="fill:none;stroke:#000000;stroke-width:8px;stroke-linecap:butt;stroke-linejoin:miter;stroke-opacity:1" /></clipPath><clipPath
       id="clipPath1363"
       clipPathUnits="userSpaceOnUse"><path
         id="path1365"
         d="m 374.93825,945.96607 -7.3903,-713.16397 1747.80595,60.96997 25.8661,164.43418 138.5682,528.40647 z"
         style="fill:none;stroke:#000000;stroke-width:8px;stroke-linecap:butt;stroke-linejoin:miter;stroke-opacity:1" /></clipPath><clipPath
       id="clipPath1367"
       clipPathUnits="userSpaceOnUse"><path
         id="path1369"
         d="m 374.93825,945.96607 -7.3903,-713.16397 1747.80595,60.96997 25.8661,164.43418 138.5682,528.40647 z"
         style="fill:none;stroke:#000000;stroke-width:8px;stroke-linecap:butt;stroke-linejoin:miter;stroke-opacity:1" /></clipPath><clipPath
       id="clipPath1371"
       clipPathUnits="userSpaceOnUse"><path
         id="path1373"
         d="m 374.93825,945.96607 -7.3903,-713.16397 1747.80595,60.96997 25.8661,164.43418 138.5682,528.40647 z"
         style="fill:none;stroke:#000000;stroke-width:8px;stroke-linecap:butt;stroke-linejoin:miter;stroke-opacity:1" /></clipPath></defs><g
     id="g10"
     transform="matrix(1.25,0,0,-1.25,-22.561555,110.05828)"><g
       id="g12"
       transform="matrix(0.1,0,0,0.1,-21.292156,-5.1791732)"><path
         clip-path="url(#clipPath1371)"
         d="m 884.75,329.711 v 5.09 h -27.449 v 19.285 h 23.398 v 5.09 h -23.398 v 18.832 h 27.449 v 5.094 h -33.141 v -53.391 z m 60,0 v 53.391 h -5.691 l -16.954,-37.872 -17.406,37.872 h -5.691 v -53.391 h 5.691 v 40.566 l 14.856,-32.168 h 4.875 l 14.629,32.168 v -40.566 z m 54.523,14.769 c 0,6.379 -3.597,10.801 -8.691,12.672 4.496,1.649 7.867,6.075 7.867,11.703 0,8.93 -6.441,14.247 -15.746,14.247 h -20.098 v -53.391 h 20.774 c 9.453,0 15.894,5.09 15.894,14.769 z m -5.691,0.149 c 0,-6 -4.125,-9.828 -10.73,-9.828 h -14.555 v 19.582 h 14.555 c 6.605,0 10.73,-3.75 10.73,-9.754 z m -0.824,24.152 c 0,-6.379 -4.578,-9.304 -10.504,-9.304 h -13.957 v 18.531 h 13.957 c 5.926,0 10.504,-2.852 10.504,-9.227 z m 55.492,-39.07 v 5.09 h -27.45 v 19.285 h 23.4 v 5.09 h -23.4 v 18.832 h 27.45 v 5.094 h -33.14 v -53.391 z m 51.3,27.293 c 0,7.426 0.3,15.605 -5.25,21.156 -3.22,3.219 -7.95,4.942 -13.5,4.942 h -18.29 v -53.391 h 18.29 c 5.55,0 10.28,1.719 13.5,4.937 5.55,5.551 5.25,14.93 5.25,22.356 z m -5.69,0 c 0,-6.527 0.15,-14.477 -3.53,-18.305 -2.78,-2.847 -6.38,-3.898 -10.5,-3.898 h -11.63 v 43.207 h 11.63 c 4.12,0 7.72,-1.047 10.5,-3.899 3.68,-3.828 3.53,-10.578 3.53,-17.105 z m 58.56,0 c 0,7.426 0.3,15.605 -5.24,21.156 -3.23,3.219 -7.95,4.942 -13.51,4.942 h -18.29 v -53.391 h 18.29 c 5.56,0 10.28,1.719 13.51,4.937 5.54,5.551 5.24,14.93 5.24,22.356 z m -5.69,0 c 0,-6.527 0.15,-14.477 -3.53,-18.305 -2.77,-2.847 -6.37,-3.898 -10.5,-3.898 h -11.63 v 43.207 h 11.63 c 4.13,0 7.73,-1.047 10.5,-3.899 3.68,-3.828 3.53,-10.578 3.53,-17.105 z m 54.66,-27.293 v 5.09 h -27.45 v 19.285 h 23.4 v 5.09 h -23.4 v 18.832 h 27.45 v 5.094 h -33.14 v -53.391 z m 51.3,27.293 c 0,7.426 0.3,15.605 -5.24,21.156 -3.22,3.219 -7.95,4.942 -13.5,4.942 h -18.3 v -53.391 h 18.3 c 5.55,0 10.28,1.719 13.5,4.937 5.54,5.551 5.24,14.93 5.24,22.356 z m -5.69,0 c 0,-6.527 0.15,-14.477 -3.53,-18.305 -2.77,-2.847 -6.37,-3.898 -10.5,-3.898 h -11.63 v 43.207 h 11.63 c 4.13,0 7.73,-1.047 10.5,-3.899 3.68,-3.828 3.53,-10.578 3.53,-17.105 z m 74.02,-12.602 c 0,4.426 -1.58,8.102 -4.5,10.578 -2.25,1.95 -4.72,3 -9.75,3.75 l -5.85,0.899 c -2.78,0.449 -5.55,1.504 -7.2,2.926 -1.65,1.425 -2.4,3.527 -2.4,6.152 0,5.926 4.12,9.902 11.25,9.902 5.63,0 9.15,-1.574 12.45,-4.578 l 3.67,3.68 c -4.57,4.117 -9.07,5.84 -15.9,5.84 -10.57,0 -17.09,-5.992 -17.09,-15.071 0,-4.273 1.35,-7.574 4.04,-9.976 2.33,-2.024 5.63,-3.375 9.83,-4.051 l 6.23,-0.973 c 3.9,-0.601 5.25,-1.05 6.97,-2.55 1.73,-1.5 2.55,-3.903 2.55,-6.676 0,-6.227 -4.8,-9.902 -12.6,-9.902 -6,0 -10.13,1.421 -14.55,5.847 l -3.9,-3.898 c 5.02,-5.02 10.27,-7.043 18.3,-7.043 11.1,0 18.45,5.765 18.45,15.144 z m 41.55,38.7 h -6.16 l -12.44,-25.575 -12.6,25.575 h -6.15 l 15.9,-31.348 v -22.043 h 5.7 v 22.043 z m 42.89,-38.7 c 0,4.426 -1.57,8.102 -4.49,10.578 -2.25,1.95 -4.72,3 -9.75,3.75 l -5.85,0.899 c -2.78,0.449 -5.55,1.504 -7.21,2.926 -1.65,1.425 -2.4,3.527 -2.4,6.152 0,5.926 4.13,9.902 11.26,9.902 5.63,0 9.15,-1.574 12.45,-4.578 l 3.67,3.68 c -4.57,4.117 -9.07,5.84 -15.9,5.84 -10.58,0 -17.09,-5.992 -17.09,-15.071 0,-4.273 1.35,-7.574 4.04,-9.976 2.32,-2.024 5.63,-3.375 9.83,-4.051 l 6.22,-0.973 c 3.91,-0.601 5.26,-1.05 6.98,-2.55 1.73,-1.5 2.55,-3.903 2.55,-6.676 0,-6.227 -4.8,-9.902 -12.6,-9.902 -6,0 -10.13,1.421 -14.55,5.847 l -3.9,-3.898 c 5.02,-5.02 10.27,-7.043 18.3,-7.043 11.1,0 18.44,5.765 18.44,15.144 z m 45.45,33.606 v 5.094 h -36.59 v -5.094 h 15.45 v -48.297 h 5.69 v 48.297 z m 45.53,-48.297 v 5.09 h -27.45 v 19.285 h 23.4 v 5.09 h -23.4 v 18.832 h 27.45 v 5.094 h -33.14 v -53.391 z m 60,0 v 53.391 h -5.7 l -16.95,-37.872 -17.4,37.872 h -5.7 v -53.391 h 5.7 v 40.566 l 14.85,-32.168 h 4.88 l 14.62,32.168 v -40.566 z m 51.52,14.691 c 0,4.426 -1.57,8.102 -4.49,10.578 -2.25,1.95 -4.73,3 -9.75,3.75 l -5.86,0.899 c -2.77,0.449 -5.55,1.504 -7.2,2.926 -1.65,1.425 -2.4,3.527 -2.4,6.152 0,5.926 4.13,9.902 11.25,9.902 5.63,0 9.16,-1.574 12.46,-4.578 l 3.67,3.68 c -4.57,4.117 -9.07,5.84 -15.9,5.84 -10.58,0 -17.1,-5.992 -17.1,-15.071 0,-4.273 1.35,-7.574 4.05,-9.976 2.32,-2.024 5.62,-3.375 9.82,-4.051 l 6.23,-0.973 c 3.9,-0.601 5.25,-1.05 6.98,-2.55 1.72,-1.5 2.55,-3.903 2.55,-6.676 0,-6.227 -4.8,-9.902 -12.61,-9.902 -6,0 -10.13,1.421 -14.55,5.847 l -3.89,-3.898 c 5.02,-5.02 10.27,-7.043 18.29,-7.043 11.11,0 18.45,5.765 18.45,15.144 z m 65.77,33.606 v 5.094 h -36.59 v -5.094 h 15.45 v -48.297 h 5.69 v 48.297 z m 44.03,-48.297 v 5.09 h -27.45 v 19.285 h 23.4 v 5.09 h -23.4 v 18.832 h 27.45 v 5.094 h -33.14 v -53.391 z m 49.42,15.441 h -5.7 c -1.42,-6.527 -6.15,-10.8 -12.82,-10.8 -3.53,0 -6.9,1.347 -9.23,3.75 -3.37,3.449 -3.75,7.125 -3.75,18.304 0,11.176 0.38,14.852 3.75,18.305 2.33,2.398 5.7,3.75 9.23,3.75 6.67,0 11.25,-4.277 12.67,-10.805 h 5.85 c -1.8,10.055 -8.92,15.895 -18.52,15.895 -5.25,0 -10.05,-1.946 -13.65,-5.543 -5.02,-5.024 -5.02,-10.278 -5.02,-21.602 0,-11.328 0,-16.582 5.02,-21.605 3.6,-3.594 8.4,-5.543 13.65,-5.543 9.52,0 16.8,5.844 18.52,15.894 z m 50.25,-15.441 v 53.391 h -5.69 v -23.926 h -25.36 v 23.926 h -5.69 v -53.391 h 5.69 v 24.375 h 25.36 v -24.375 z m 57.3,0 v 53.391 h -5.69 v -42.668 l -28.36,42.668 h -5.39 v -53.391 h 5.69 v 42.816 l 28.36,-42.816 z m 53.17,26.695 c 0,11.324 0,16.578 -5.01,21.602 -3.6,3.597 -8.33,5.543 -13.66,5.543 -5.32,0 -10.05,-1.946 -13.65,-5.543 -5.02,-5.024 -5.02,-10.278 -5.02,-21.602 0,-11.328 0,-16.582 5.02,-21.605 3.6,-3.594 8.33,-5.543 13.65,-5.543 5.33,0 10.06,1.949 13.66,5.543 5.01,5.023 5.01,10.277 5.01,21.605 z m -5.69,0 c 0,-11.179 -0.37,-14.777 -3.75,-18.23 -2.32,-2.403 -5.7,-3.824 -9.23,-3.824 -3.52,0 -6.9,1.421 -9.23,3.824 -3.37,3.453 -3.75,7.051 -3.75,18.23 0,11.176 0.38,14.778 3.75,18.227 2.33,2.402 5.71,3.828 9.23,3.828 3.53,0 6.91,-1.426 9.23,-3.828 3.38,-3.449 3.75,-7.051 3.75,-18.227 z m 54.52,-26.695 v 5.09 h -27.3 v 48.301 h -5.69 v -53.391 z m 43.5,26.695 c 0,11.324 0,16.578 -5.02,21.602 -3.6,3.597 -8.33,5.543 -13.65,5.543 -5.33,0 -10.06,-1.946 -13.66,-5.543 -5.01,-5.024 -5.01,-10.278 -5.01,-21.602 0,-11.328 0,-16.582 5.01,-21.605 3.6,-3.594 8.33,-5.543 13.66,-5.543 5.32,0 10.05,1.949 13.65,5.543 5.02,5.023 5.02,10.277 5.02,21.605 z m -5.69,0 c 0,-11.179 -0.38,-14.777 -3.75,-18.23 -2.33,-2.403 -5.71,-3.824 -9.23,-3.824 -3.53,0 -6.91,1.421 -9.23,3.824 -3.38,3.453 -3.75,7.051 -3.75,18.23 0,11.176 0.37,14.778 3.75,18.227 2.32,2.402 5.7,3.828 9.23,3.828 3.52,0 6.9,-1.426 9.23,-3.828 3.37,-3.449 3.75,-7.051 3.75,-18.227 z m 56.99,-7.199 v 8.469 h -18.82 v -5.016 h 13.13 v -4.055 c 0,-4.125 -0.83,-7.05 -3.01,-9.679 -2.47,-3 -6.22,-4.574 -10.12,-4.574 -3.53,0 -6.91,1.347 -9.23,3.75 -3.38,3.453 -3.75,7.128 -3.75,18.3 0,11.176 0.37,14.778 3.75,18.231 2.32,2.402 5.7,3.828 9.23,3.828 6.67,0 11.47,-4.129 12.98,-10.883 h 5.69 c -1.58,9.383 -8.47,15.973 -18.67,15.973 -5.33,0 -10.06,-1.946 -13.66,-5.543 -5.01,-5.028 -5.01,-10.278 -5.01,-21.606 0,-11.324 0,-16.574 5.01,-21.601 3.6,-3.594 8.4,-5.543 13.66,-5.543 5.47,0 10.5,2.097 14.25,6.14 3.29,3.528 4.57,7.657 4.57,13.809 z m 43.65,33.895 h -6.15 l -12.45,-25.575 -12.6,25.575 h -6.15 l 15.9,-31.348 v -22.043 h 5.7 v 22.043 z m 64.04,-53.391 v 5.09 h -27.3 v 48.301 h -5.69 v -53.391 z m 49.58,0 -19.57,53.391 h -4.8 l -19.65,-53.391 h 6.07 l 4.28,12.074 h 23.32 l 4.28,-12.074 z m -12,17.016 h -19.95 l 10.05,28.199 z m 59.7,-2.247 c 0,6.379 -3.6,10.801 -8.69,12.672 4.49,1.649 7.86,6.075 7.86,11.703 0,8.93 -6.44,14.247 -15.74,14.247 h -20.1 v -53.391 h 20.77 c 9.46,0 15.9,5.09 15.9,14.769 z m -5.69,0.149 c 0,-6 -4.13,-9.828 -10.73,-9.828 h -14.56 v 19.582 h 14.56 c 6.6,0 10.73,-3.75 10.73,-9.754 z m -0.83,24.152 c 0,-6.379 -4.58,-9.304 -10.5,-9.304 h -13.96 v 18.531 h 13.96 c 5.92,0 10.5,-2.852 10.5,-9.227"
         style="fill:#ffffff;fill-opacity:1;fill-rule:nonzero;stroke:none"
         id="path14" /><path
         clip-path="url(#clipPath1367)"
         d="m 908.629,452.313 v 7.531 c 0,18.597 -10.66,32.363 -29.512,32.363 -17.547,0 -29.492,-12.465 -29.492,-34.57 0,-27.434 15.324,-34.703 31.313,-34.703 12.218,0 18.847,3.765 25.738,10.648 l -10.27,10.012 c -4.289,-4.293 -7.929,-6.379 -15.34,-6.379 -9.488,0 -14.82,6.379 -14.82,15.098 z m -16.641,11.554 h -25.742 c 0.133,2.992 0.52,4.817 1.563,7.289 1.82,4.032 5.589,7.028 11.308,7.028 5.719,0 9.488,-2.996 11.309,-7.028 1.043,-2.472 1.429,-4.297 1.562,-7.289 z m 84.328,-18.844 c 0,11.446 -6.753,18.586 -20.132,19.883 l -10.661,1.043 c -5.98,0.52 -7.019,3.383 -7.019,5.856 0,3.383 2.859,6.508 9.621,6.508 5.848,0 11.828,-1.04 15.723,-4.555 l 10.39,10.527 c -6.492,6.106 -15.324,7.922 -25.855,7.922 -13.781,0 -26.129,-7.531 -26.129,-21.574 0,-12.477 7.539,-17.801 19.758,-18.969 l 10.66,-1.043 c 5.332,-0.519 7.152,-2.863 7.152,-6.246 0,-5.074 -6.109,-7.027 -11.961,-7.027 -5.199,0 -12.48,0.781 -18.07,6.375 l -11.051,-11.051 c 8.582,-8.57 18.199,-9.738 28.86,-9.738 15.988,0 28.714,7.14 28.714,22.089 z m 45.854,-21.308 v 14.281 h -6.11 c -4.03,0 -5.85,2.211 -5.85,6.113 v 32.512 h 11.96 v 12.856 h -11.96 v 20.019 h -16.886 v -20.019 h -7.152 v -12.856 h 7.152 V 443.07 c 0,-9.617 5.844,-19.355 19.616,-19.355 h 9.23"
         style="fill:#ffffff;fill-opacity:1;fill-rule:nonzero;stroke:none"
         id="path16" /><path
         clip-path="url(#clipPath1363)"
         d="m 887.602,617.324 v 35.778 h -5.692 v -35.329 c 0,-8.097 -5.176,-13.421 -12.98,-13.421 -7.801,0 -12.903,5.324 -12.903,13.421 v 35.329 h -5.691 v -35.778 c 0,-10.648 7.793,-18.066 18.594,-18.066 10.804,0 18.672,7.418 18.672,18.066 z m 56.625,-17.613 v 53.391 h -5.692 v -42.668 l -28.359,42.668 h -5.391 v -53.391 h 5.692 v 42.816 l 28.359,-42.816 z m 24.972,0 v 53.391 h -5.687 v -53.391 z m 54.001,53.391 h -6 l -13.87,-43.196 -13.877,43.196 h -6 L 1001,599.711 h 4.65 z m 47.02,-53.391 v 5.09 h -27.45 v 19.285 h 23.4 v 5.09 h -23.4 v 18.832 h 27.45 v 5.094 h -33.14 v -53.391 z m 51.9,0 -12.66,24.223 c 6.9,1.421 11.61,6.515 11.61,14.32 0,9.23 -6.51,14.848 -15.82,14.848 h -20.47 v -53.391 h 5.69 v 23.699 h 12.83 l 12.16,-23.699 z m -6.74,38.469 c 0,-6.528 -4.42,-9.754 -10.65,-9.754 h -14.26 v 19.582 h 14.26 c 6.23,0 10.65,-3.301 10.65,-9.828 z m 53.69,-23.778 c 0,4.426 -1.57,8.102 -4.49,10.578 -2.25,1.95 -4.72,3 -9.75,3.75 l -5.85,0.899 c -2.78,0.449 -5.56,1.504 -7.21,2.926 -1.65,1.425 -2.4,3.527 -2.4,6.152 0,5.926 4.13,9.902 11.26,9.902 5.62,0 9.15,-1.574 12.45,-4.578 l 3.67,3.68 c -4.57,4.117 -9.07,5.84 -15.9,5.84 -10.58,0 -17.09,-5.992 -17.09,-15.071 0,-4.273 1.34,-7.574 4.04,-9.976 2.32,-2.024 5.62,-3.375 9.83,-4.051 l 6.22,-0.973 c 3.9,-0.601 5.26,-1.05 6.98,-2.55 1.73,-1.5 2.55,-3.903 2.55,-6.676 0,-6.227 -4.8,-9.902 -12.6,-9.902 -6.01,0 -10.13,1.421 -14.55,5.847 l -3.9,-3.898 c 5.02,-5.02 10.27,-7.043 18.3,-7.043 11.1,0 18.44,5.765 18.44,15.144 z m 22.13,-14.691 v 53.391 h -5.69 v -53.391 z m 50.7,48.297 v 5.094 h -36.59 v -5.094 h 15.45 v -48.297 h 5.69 v 48.297 z m 46.95,5.094 h -6.15 l -12.45,-25.575 -12.59,25.575 h -6.15 l 15.9,-31.348 v -22.043 h 5.69 v 22.043 z m 71.77,-26.696 c 0,11.324 0,16.578 -5.02,21.602 -3.6,3.597 -8.32,5.543 -13.65,5.543 -5.33,0 -10.05,-1.946 -13.65,-5.543 -5.02,-5.024 -5.02,-10.278 -5.02,-21.602 0,-11.328 0,-16.582 5.02,-21.605 3.6,-3.594 8.32,-5.543 13.65,-5.543 5.33,0 10.05,1.949 13.65,5.543 5.02,5.023 5.02,10.277 5.02,21.605 z m -5.69,0 c 0,-11.179 -0.38,-14.777 -3.75,-18.23 -2.33,-2.403 -5.7,-3.824 -9.23,-3.824 -3.53,0 -6.9,1.421 -9.23,3.824 -3.37,3.453 -3.75,7.051 -3.75,18.23 0,11.176 0.38,14.778 3.75,18.227 2.33,2.402 5.7,3.828 9.23,3.828 3.53,0 6.9,-1.426 9.23,-3.828 3.37,-3.449 3.75,-7.051 3.75,-18.227 z m 54.97,21.602 v 5.094 h -33.15 v -53.391 h 5.7 v 23.547 h 23.4 v 5.094 h -23.4 v 19.656 z m 71.92,-48.297 -19.57,53.391 h -4.8 l -19.65,-53.391 h 6.07 l 4.28,12.074 h 23.32 l 4.28,-12.074 z m -12,17.016 h -19.95 l 10.05,28.199 z m 61.12,20.703 c 0,9.605 -6.74,15.672 -16.49,15.672 h -19.87 v -53.391 h 5.69 v 21.973 h 14.18 c 9.75,0 16.49,6.14 16.49,15.746 z m -5.69,0 c 0,-7.051 -4.65,-10.657 -11.33,-10.657 h -13.65 v 21.235 h 13.65 c 6.68,0 11.33,-3.524 11.33,-10.578 z m 54.97,0 c 0,9.605 -6.74,15.672 -16.5,15.672 h -19.87 v -53.391 h 5.69 v 21.973 h 14.18 c 9.76,0 16.5,6.14 16.5,15.746 z m -5.69,0 c 0,-7.051 -4.65,-10.657 -11.33,-10.657 h -13.66 v 21.235 h 13.66 c 6.68,0 11.33,-3.524 11.33,-10.578 z m 51.44,-37.719 v 5.09 h -27.3 v 48.301 h -5.69 v -53.391 z m 18.07,0 v 53.391 h -5.69 v -53.391 z m 52.35,0 v 5.09 h -27.45 v 19.285 h 23.4 v 5.09 h -23.4 v 18.832 h 27.45 v 5.094 h -33.14 v -53.391 z m 51.53,27.293 c 0,7.426 0.3,15.605 -5.25,21.156 -3.22,3.219 -7.95,4.942 -13.5,4.942 h -18.29 v -53.391 h 18.29 c 5.55,0 10.28,1.719 13.5,4.937 5.55,5.551 5.25,14.93 5.25,22.356 z m -5.69,0 c 0,-6.527 0.14,-14.477 -3.53,-18.305 -2.78,-2.847 -6.38,-3.898 -10.5,-3.898 h -11.63 v 43.207 h 11.63 c 4.12,0 7.72,-1.047 10.5,-3.899 3.67,-3.828 3.53,-10.578 3.53,-17.105 z m 80.91,-12.602 c 0,4.426 -1.57,8.102 -4.49,10.578 -2.25,1.95 -4.73,3 -9.75,3.75 l -5.86,0.899 c -2.77,0.449 -5.55,1.504 -7.2,2.926 -1.65,1.425 -2.4,3.527 -2.4,6.152 0,5.926 4.13,9.902 11.25,9.902 5.63,0 9.16,-1.574 12.46,-4.578 l 3.67,3.68 c -4.57,4.117 -9.07,5.84 -15.9,5.84 -10.58,0 -17.1,-5.992 -17.1,-15.071 0,-4.273 1.35,-7.574 4.05,-9.976 2.32,-2.024 5.62,-3.375 9.82,-4.051 l 6.23,-0.973 c 3.9,-0.601 5.25,-1.05 6.98,-2.55 1.72,-1.5 2.55,-3.903 2.55,-6.676 0,-6.227 -4.8,-9.902 -12.61,-9.902 -6,0 -10.12,1.421 -14.54,5.847 l -3.9,-3.898 c 5.02,-5.02 10.27,-7.043 18.29,-7.043 11.11,0 18.45,5.765 18.45,15.144 z m 48.67,0.75 h -5.7 c -1.42,-6.527 -6.15,-10.8 -12.82,-10.8 -3.53,0 -6.9,1.347 -9.23,3.75 -3.37,3.449 -3.75,7.125 -3.75,18.304 0,11.176 0.38,14.852 3.75,18.305 2.33,2.398 5.7,3.75 9.23,3.75 6.67,0 11.25,-4.277 12.67,-10.805 h 5.85 c -1.8,10.055 -8.92,15.895 -18.52,15.895 -5.25,0 -10.05,-1.946 -13.65,-5.543 -5.02,-5.024 -5.02,-10.278 -5.02,-21.602 0,-11.328 0,-16.582 5.02,-21.605 3.6,-3.594 8.4,-5.543 13.65,-5.543 9.52,0 16.8,5.844 18.52,15.894 z m 21.83,-15.441 v 53.391 h -5.69 v -53.391 z m 52.05,0 v 5.09 h -27.45 v 19.285 h 23.4 v 5.09 h -23.4 v 18.832 h 27.45 v 5.094 h -33.14 v -53.391 z m 54.15,0 v 53.391 h -5.69 v -42.668 l -28.36,42.668 h -5.39 v -53.391 h 5.69 v 42.816 l 28.36,-42.816 z m 51.75,15.441 h -5.7 c -1.43,-6.527 -6.15,-10.8 -12.83,-10.8 -3.52,0 -6.9,1.347 -9.22,3.75 -3.38,3.449 -3.75,7.125 -3.75,18.304 0,11.176 0.37,14.852 3.75,18.305 2.32,2.398 5.7,3.75 9.22,3.75 6.68,0 11.25,-4.277 12.68,-10.805 h 5.85 c -1.8,10.055 -8.93,15.895 -18.53,15.895 -5.25,0 -10.05,-1.946 -13.65,-5.543 -5.01,-5.024 -5.01,-10.278 -5.01,-21.602 0,-11.328 0,-16.582 5.01,-21.605 3.6,-3.594 8.4,-5.543 13.65,-5.543 9.53,0 16.8,5.844 18.53,15.894 z m 47.77,-15.441 v 5.09 h -27.45 v 19.285 h 23.4 v 5.09 h -23.4 v 18.832 h 27.45 v 5.094 h -33.14 v -53.391 z m 47.25,14.691 c 0,4.426 -1.57,8.102 -4.49,10.578 -2.25,1.95 -4.73,3 -9.75,3.75 l -5.85,0.899 c -2.78,0.449 -5.56,1.504 -7.21,2.926 -1.65,1.425 -2.4,3.527 -2.4,6.152 0,5.926 4.13,9.902 11.26,9.902 5.62,0 9.15,-1.574 12.45,-4.578 l 3.67,3.68 c -4.57,4.117 -9.07,5.84 -15.9,5.84 -10.58,0 -17.09,-5.992 -17.09,-15.071 0,-4.273 1.34,-7.574 4.04,-9.976 2.32,-2.024 5.62,-3.375 9.82,-4.051 l 6.23,-0.973 c 3.9,-0.601 5.25,-1.05 6.98,-2.55 1.73,-1.5 2.55,-3.903 2.55,-6.676 0,-6.227 -4.8,-9.902 -12.6,-9.902 -6.01,0 -10.13,1.421 -14.55,5.847 l -3.9,-3.898 c 5.02,-5.02 10.27,-7.043 18.3,-7.043 11.1,0 18.44,5.765 18.44,15.144"
         style="fill:#ffffff;fill-opacity:1;fill-rule:nonzero;stroke:none"
         id="path18" /><path
         clip-path="url(#clipPath1359)"
         d="m 887.527,689.711 v 53.391 h -5.691 v -23.926 h -25.359 v 23.926 h -5.692 v -53.391 h 5.692 v 24.375 h 25.359 v -24.375 z m 53.774,26.695 c 0,11.324 0,16.578 -5.016,21.602 -3.601,3.597 -8.328,5.543 -13.656,5.543 -5.324,0 -10.051,-1.946 -13.652,-5.543 -5.016,-5.024 -5.016,-10.278 -5.016,-21.602 0,-11.328 0,-16.582 5.016,-21.605 3.601,-3.594 8.328,-5.543 13.652,-5.543 5.328,0 10.055,1.949 13.656,5.543 5.016,5.023 5.016,10.277 5.016,21.605 z m -5.692,0 c 0,-11.179 -0.375,-14.777 -3.75,-18.23 -2.328,-2.403 -5.703,-3.824 -9.23,-3.824 -3.524,0 -6.902,1.421 -9.227,3.824 -3.375,3.453 -3.75,7.051 -3.75,18.23 0,11.176 0.375,14.778 3.75,18.227 2.325,2.402 5.703,3.828 9.227,3.828 3.527,0 6.902,-1.426 9.23,-3.828 3.375,-3.449 3.75,-7.051 3.75,-18.227 z m 57.289,-11.254 h -5.699 c -1.426,-6.527 -6.148,-10.8 -12.824,-10.8 -3.523,0 -6.898,1.347 -9.227,3.75 -3.375,3.449 -3.75,7.125 -3.75,18.304 0,11.176 0.375,14.852 3.75,18.305 2.329,2.398 5.704,3.75 9.227,3.75 6.676,0 11.25,-4.277 12.676,-10.805 h 5.847 c -1.796,10.055 -8.921,15.895 -18.523,15.895 -5.25,0 -10.051,-1.946 -13.648,-5.543 -5.016,-5.024 -5.016,-10.278 -5.016,-21.602 0,-11.328 0,-16.582 5.016,-21.605 3.597,-3.594 8.398,-5.543 13.648,-5.543 9.523,0 16.801,5.844 18.523,15.894 z m 51.222,-15.441 v 53.391 h -5.69 v -23.926 h -25.36 v 23.926 h -5.69 v -53.391 h 5.69 v 24.375 h 25.36 v -24.375 z m 50.93,14.691 c 0,4.426 -1.57,8.102 -4.49,10.578 -2.25,1.95 -4.73,3 -9.75,3.75 l -5.86,0.899 c -2.77,0.449 -5.55,1.504 -7.2,2.926 -1.65,1.425 -2.4,3.527 -2.4,6.152 0,5.926 4.13,9.902 11.25,9.902 5.63,0 9.16,-1.574 12.46,-4.578 l 3.67,3.68 c -4.57,4.117 -9.07,5.84 -15.9,5.84 -10.58,0 -17.1,-5.992 -17.1,-15.071 0,-4.273 1.35,-7.574 4.05,-9.976 2.32,-2.024 5.62,-3.375 9.82,-4.051 l 6.23,-0.973 c 3.9,-0.601 5.25,-1.05 6.98,-2.55 1.72,-1.5 2.55,-3.903 2.55,-6.676 0,-6.227 -4.8,-9.902 -12.61,-9.902 -6,0 -10.12,1.421 -14.55,5.847 l -3.89,-3.898 c 5.02,-5.02 10.27,-7.043 18.29,-7.043 11.11,0 18.45,5.765 18.45,15.144 z m 49.35,0.75 h -5.7 c -1.43,-6.527 -6.15,-10.8 -12.83,-10.8 -3.52,0 -6.9,1.347 -9.22,3.75 -3.38,3.449 -3.75,7.125 -3.75,18.304 0,11.176 0.37,14.852 3.75,18.305 2.32,2.398 5.7,3.75 9.22,3.75 6.68,0 11.25,-4.277 12.68,-10.805 h 5.85 c -1.8,10.055 -8.93,15.895 -18.53,15.895 -5.25,0 -10.05,-1.946 -13.64,-5.543 -5.02,-5.024 -5.02,-10.278 -5.02,-21.602 0,-11.328 0,-16.582 5.02,-21.605 3.59,-3.594 8.39,-5.543 13.64,-5.543 9.53,0 16.8,5.844 18.53,15.894 z m 51.52,-15.441 v 53.391 h -5.69 v -23.926 h -25.36 v 23.926 h -5.69 v -53.391 h 5.69 v 24.375 h 25.36 v -24.375 z m 55.13,17.613 v 35.778 h -5.69 v -35.329 c 0,-8.097 -5.18,-13.421 -12.98,-13.421 -7.8,0 -12.91,5.324 -12.91,13.421 v 35.329 h -5.69 v -35.778 c 0,-10.648 7.79,-18.066 18.6,-18.066 10.8,0 18.67,7.418 18.67,18.066 z m 50.85,-17.613 v 5.09 h -27.3 v 48.301 h -5.69 v -53.391 z m 46.42,0 v 5.09 h -27.45 v 19.285 h 23.4 v 5.09 h -23.4 v 18.832 h 27.45 v 5.094 h -33.14 v -53.391 z m 80.78,27.293 c 0,7.426 0.3,15.605 -5.24,21.156 -3.23,3.219 -7.96,4.942 -13.51,4.942 h -18.29 v -53.391 h 18.29 c 5.55,0 10.28,1.719 13.51,4.937 5.54,5.551 5.24,14.93 5.24,22.356 z m -5.69,0 c 0,-6.527 0.15,-14.477 -3.53,-18.305 -2.78,-2.847 -6.38,-3.898 -10.5,-3.898 h -11.63 v 43.207 h 11.63 c 4.12,0 7.72,-1.047 10.5,-3.899 3.68,-3.828 3.53,-10.578 3.53,-17.105 z m 59.02,-27.293 -19.58,53.391 h -4.8 l -19.65,-53.391 h 6.08 l 4.27,12.074 h 23.33 l 4.27,-12.074 z m -12,17.016 h -19.95 l 10.05,28.199 z m 62.24,-17.016 -12.67,24.223 c 6.9,1.421 11.62,6.515 11.62,14.32 0,9.23 -6.51,14.848 -15.82,14.848 h -20.47 v -53.391 h 5.69 v 23.699 h 12.83 l 12.16,-23.699 z m -6.74,38.469 c 0,-6.528 -4.43,-9.754 -10.65,-9.754 h -14.26 v 19.582 h 14.26 c 6.22,0 10.65,-3.301 10.65,-9.828 z m 69.14,-38.469 v 53.391 h -5.69 l -16.95,-37.872 -17.41,37.872 h -5.69 v -53.391 h 5.69 v 40.566 l 14.85,-32.168 h 4.88 l 14.63,32.168 v -40.566 z m 51,14.691 c 0,4.426 -1.57,8.102 -4.49,10.578 -2.25,1.95 -4.73,3 -9.75,3.75 l -5.86,0.899 c -2.77,0.449 -5.55,1.504 -7.2,2.926 -1.65,1.425 -2.4,3.527 -2.4,6.152 0,5.926 4.13,9.902 11.25,9.902 5.63,0 9.16,-1.574 12.46,-4.578 l 3.67,3.68 c -4.57,4.117 -9.07,5.84 -15.9,5.84 -10.58,0 -17.1,-5.992 -17.1,-15.071 0,-4.273 1.35,-7.574 4.05,-9.976 2.32,-2.024 5.62,-3.375 9.82,-4.051 l 6.23,-0.973 c 3.9,-0.601 5.25,-1.05 6.98,-2.55 1.72,-1.5 2.55,-3.903 2.55,-6.676 0,-6.227 -4.8,-9.902 -12.61,-9.902 -6,0 -10.12,1.421 -14.54,5.847 l -3.9,-3.898 c 5.02,-5.02 10.27,-7.043 18.29,-7.043 11.11,0 18.45,5.765 18.45,15.144 z m 44.55,33.606 v 5.094 h -36.59 v -5.094 h 15.45 v -48.297 h 5.69 v 48.297 z m 48.53,-48.297 -19.58,53.391 h -4.8 l -19.65,-53.391 h 6.08 l 4.27,12.074 h 23.33 l 4.27,-12.074 z m -12,17.016 h -19.95 l 10.05,28.199 z m 61.87,10.277 c 0,7.426 0.3,15.605 -5.24,21.156 -3.23,3.219 -7.96,4.942 -13.51,4.942 h -18.29 v -53.391 h 18.29 c 5.55,0 10.28,1.719 13.51,4.937 5.54,5.551 5.24,14.93 5.24,22.356 z m -5.69,0 c 0,-6.527 0.15,-14.477 -3.53,-18.305 -2.77,-2.847 -6.38,-3.898 -10.5,-3.898 h -11.63 v 43.207 h 11.63 c 4.12,0 7.73,-1.047 10.5,-3.899 3.68,-3.828 3.53,-10.578 3.53,-17.105 z m 51.96,21.004 v 5.094 h -36.59 v -5.094 h 15.45 v -48.297 h 5.69 v 48.297 h 15.45"
         style="fill:#ffffff;fill-opacity:1;fill-rule:nonzero;stroke:none"
         id="path20" /><path
         clip-path="url(#clipPath1355)"
         d="m 906.242,839.715 v 43.808 c 0,14.293 -7.793,24.684 -22.609,24.684 -5.985,0 -11.707,-2.34 -16.262,-7.012 v 31.063 h -16.883 v -92.543 h 16.883 v 41.34 c 0,8.84 5.594,11.957 10.93,11.957 5.332,0 11.058,-2.989 11.058,-11.957 v -41.34 z m 49.383,-12.379 v 3.812 h -40.277 v -3.812 z m 57.805,12.379 v 92.543 h -16.883 v -30.805 c -4.426,4.934 -9.629,6.754 -16.524,6.754 -6.632,0 -12.738,-2.34 -16.503,-6.105 -6.754,-6.75 -6.883,-18.325 -6.883,-28.465 0,-10.149 0.129,-21.848 6.883,-28.602 3.765,-3.765 10,-6.101 16.632,-6.101 7.157,0 12.102,1.949 16.782,7.14 v -6.359 z m -16.883,33.922 c 0,-11.059 -1.434,-19.508 -11.578,-19.508 -10.149,0 -11.449,8.449 -11.449,19.508 0,11.051 1.3,19.375 11.449,19.375 10.144,0 11.578,-8.324 11.578,-19.375 z m 86.043,-33.926 v 44.582 c 0,15.863 -9.87,23.914 -28.85,23.914 -11.32,0 -17.82,-2.078 -24.44,-9.352 l 10.78,-10.531 c 3.51,4.035 6.5,5.598 13.01,5.598 8.97,0 12.61,-3.254 12.61,-10.672 v -3.383 h -16 c -15.72,0 -23.13,-8.828 -23.13,-19.625 0,-5.984 1.95,-11.441 5.59,-15.207 4.02,-4.023 9.61,-5.972 17.28,-5.972 7.81,0 12.1,1.949 16.65,6.492 v -5.844 z m -16.89,24.957 c 0,-4.164 -0.65,-6.895 -2.47,-8.59 -2.99,-2.859 -5.98,-3.254 -10.67,-3.254 -6.63,0 -9.75,3.125 -9.75,7.813 0,4.812 3.38,7.676 9.49,7.676 h 13.4 v -3.645"
         style="fill:#ffffff;fill-opacity:1;fill-rule:nonzero;stroke:none"
         id="path22" /><path
         clip-path="url(#clipPath1351)"
         d="m 489.07,260.328 c 0,2.891 -2.379,5.274 -5.289,5.274 -2.957,0 -5.336,-2.383 -5.336,-5.274 0,-2.976 2.379,-5.355 5.336,-5.355 2.91,0 5.289,2.379 5.289,5.355"
         style="fill:#ffffff;fill-opacity:1;fill-rule:nonzero;stroke:none"
         id="path24" /><path
         clip-path="url(#clipPath1347)"
         d="m 489.07,275.328 c 0,2.891 -2.379,5.274 -5.289,5.274 -2.957,0 -5.336,-2.383 -5.336,-5.274 0,-2.976 2.379,-5.355 5.336,-5.355 2.91,0 5.289,2.379 5.289,5.355"
         style="fill:#ffffff;fill-opacity:1;fill-rule:nonzero;stroke:none"
         id="path26" /><path
         clip-path="url(#clipPath1343)"
         d="m 489.07,290.328 c 0,2.891 -2.379,5.274 -5.289,5.274 -2.957,0 -5.336,-2.383 -5.336,-5.274 0,-2.976 2.379,-5.355 5.336,-5.355 2.91,0 5.289,2.379 5.289,5.355 z m 21.258,0 c 0,2.891 -2.379,5.274 -5.285,5.274 -2.961,0 -5.34,-2.383 -5.34,-5.274 0,-2.976 2.379,-5.355 5.34,-5.355 2.906,0 5.285,2.379 5.285,5.355"
         style="fill:#ffffff;fill-opacity:1;fill-rule:nonzero;stroke:none"
         id="path28" /><path
         clip-path="url(#clipPath1339)"
         d="m 489.07,305.328 c 0,2.891 -2.379,5.274 -5.289,5.274 -2.957,0 -5.336,-2.383 -5.336,-5.274 0,-2.976 2.379,-5.355 5.336,-5.355 2.91,0 5.289,2.379 5.289,5.355 z m 21.258,0 c 0,2.891 -2.379,5.274 -5.285,5.274 -2.961,0 -5.34,-2.383 -5.34,-5.274 0,-2.976 2.379,-5.355 5.34,-5.355 2.906,0 5.285,2.379 5.285,5.355"
         style="fill:#ffffff;fill-opacity:1;fill-rule:nonzero;stroke:none"
         id="path30" /><path
         clip-path="url(#clipPath1335)"
         d="m 489.07,320.328 c 0,2.891 -2.379,5.274 -5.289,5.274 -2.957,0 -5.336,-2.383 -5.336,-5.274 0,-2.976 2.379,-5.355 5.336,-5.355 2.91,0 5.289,2.379 5.289,5.355 z m 21.258,0 c 0,2.891 -2.379,5.274 -5.285,5.274 -2.961,0 -5.34,-2.383 -5.34,-5.274 0,-2.976 2.379,-5.355 5.34,-5.355 2.906,0 5.285,2.379 5.285,5.355"
         style="fill:#ffffff;fill-opacity:1;fill-rule:nonzero;stroke:none"
         id="path32" /><path
         clip-path="url(#clipPath1331)"
         d="m 489.07,335.328 c 0,2.891 -2.379,5.274 -5.289,5.274 -2.957,0 -5.336,-2.383 -5.336,-5.274 0,-2.976 2.379,-5.355 5.336,-5.355 2.91,0 5.289,2.379 5.289,5.355 z m 21.258,0 c 0,2.891 -2.379,5.274 -5.285,5.274 -2.961,0 -5.34,-2.383 -5.34,-5.274 0,-2.976 2.379,-5.355 5.34,-5.355 2.906,0 5.285,2.379 5.285,5.355 z m 42.516,0 c 0,2.891 -2.379,5.274 -5.289,5.274 -2.961,0 -5.336,-2.383 -5.336,-5.274 0,-2.976 2.375,-5.355 5.336,-5.355 2.91,0 5.289,2.379 5.289,5.355"
         style="fill:#ffffff;fill-opacity:1;fill-rule:nonzero;stroke:none"
         id="path34" /><path
         clip-path="url(#clipPath1327)"
         d="m 489.07,350.328 c 0,2.891 -2.379,5.274 -5.289,5.274 -2.957,0 -5.336,-2.383 -5.336,-5.274 0,-2.976 2.379,-5.355 5.336,-5.355 2.91,0 5.289,2.379 5.289,5.355 z m 21.258,0 c 0,2.891 -2.379,5.274 -5.285,5.274 -2.961,0 -5.34,-2.383 -5.34,-5.274 0,-2.976 2.379,-5.355 5.34,-5.355 2.906,0 5.285,2.379 5.285,5.355 z m 42.516,0 c 0,2.891 -2.379,5.274 -5.289,5.274 -2.961,0 -5.336,-2.383 -5.336,-5.274 0,-2.976 2.375,-5.355 5.336,-5.355 2.91,0 5.289,2.379 5.289,5.355"
         style="fill:#ffffff;fill-opacity:1;fill-rule:nonzero;stroke:none"
         id="path36" /><path
         clip-path="url(#clipPath1323)"
         d="m 489.07,365.328 c 0,2.891 -2.379,5.274 -5.289,5.274 -2.957,0 -5.336,-2.383 -5.336,-5.274 0,-2.976 2.379,-5.355 5.336,-5.355 2.91,0 5.289,2.379 5.289,5.355 z m 21.258,0 c 0,2.891 -2.379,5.274 -5.285,5.274 -2.961,0 -5.34,-2.383 -5.34,-5.274 0,-2.976 2.379,-5.355 5.34,-5.355 2.906,0 5.285,2.379 5.285,5.355 z m 42.516,0 c 0,2.891 -2.379,5.274 -5.289,5.274 -2.961,0 -5.336,-2.383 -5.336,-5.274 0,-2.976 2.375,-5.355 5.336,-5.355 2.91,0 5.289,2.379 5.289,5.355 z m 21.258,0 c 0,2.891 -2.379,5.274 -5.289,5.274 -2.961,0 -5.336,-2.383 -5.336,-5.274 0,-2.976 2.375,-5.355 5.336,-5.355 2.91,0 5.289,2.379 5.289,5.355"
         style="fill:#ffffff;fill-opacity:1;fill-rule:nonzero;stroke:none"
         id="path38" /><path
         clip-path="url(#clipPath1319)"
         d="m 489.07,380.328 c 0,2.891 -2.379,5.274 -5.289,5.274 -2.957,0 -5.336,-2.383 -5.336,-5.274 0,-2.976 2.379,-5.355 5.336,-5.355 2.91,0 5.289,2.379 5.289,5.355 z m 21.258,0 c 0,2.891 -2.379,5.274 -5.285,5.274 -2.961,0 -5.34,-2.383 -5.34,-5.274 0,-2.976 2.379,-5.355 5.34,-5.355 2.906,0 5.285,2.379 5.285,5.355 z m 42.516,0 c 0,2.891 -2.379,5.274 -5.289,5.274 -2.961,0 -5.336,-2.383 -5.336,-5.274 0,-2.976 2.375,-5.355 5.336,-5.355 2.91,0 5.289,2.379 5.289,5.355 z m 21.258,0 c 0,2.891 -2.379,5.274 -5.289,5.274 -2.961,0 -5.336,-2.383 -5.336,-5.274 0,-2.976 2.375,-5.355 5.336,-5.355 2.91,0 5.289,2.379 5.289,5.355"
         style="fill:#ffffff;fill-opacity:1;fill-rule:nonzero;stroke:none"
         id="path40" /><path
         clip-path="url(#clipPath1315)"
         d="m 489.07,395.328 c 0,2.891 -2.379,5.274 -5.289,5.274 -2.957,0 -5.336,-2.383 -5.336,-5.274 0,-2.976 2.379,-5.355 5.336,-5.355 2.91,0 5.289,2.379 5.289,5.355 z m 21.258,0 c 0,2.891 -2.379,5.274 -5.285,5.274 -2.961,0 -5.34,-2.383 -5.34,-5.274 0,-2.976 2.379,-5.355 5.34,-5.355 2.906,0 5.285,2.379 5.285,5.355 z m 42.516,0 c 0,2.891 -2.379,5.274 -5.289,5.274 -2.961,0 -5.336,-2.383 -5.336,-5.274 0,-2.976 2.375,-5.355 5.336,-5.355 2.91,0 5.289,2.379 5.289,5.355 z m 21.258,0 c 0,2.891 -2.379,5.274 -5.289,5.274 -2.961,0 -5.336,-2.383 -5.336,-5.274 0,-2.976 2.375,-5.355 5.336,-5.355 2.91,0 5.289,2.379 5.289,5.355"
         style="fill:#ffffff;fill-opacity:1;fill-rule:nonzero;stroke:none"
         id="path42" /><path
         clip-path="url(#clipPath1311)"
         d="m 489.07,410.328 c 0,2.891 -2.379,5.274 -5.289,5.274 -2.957,0 -5.336,-2.383 -5.336,-5.274 0,-2.976 2.379,-5.355 5.336,-5.355 2.91,0 5.289,2.379 5.289,5.355 z m 21.258,0 c 0,2.891 -2.379,5.274 -5.285,5.274 -2.961,0 -5.34,-2.383 -5.34,-5.274 0,-2.976 2.379,-5.355 5.34,-5.355 2.906,0 5.285,2.379 5.285,5.355 z m 42.516,0 c 0,2.891 -2.379,5.274 -5.289,5.274 -2.961,0 -5.336,-2.383 -5.336,-5.274 0,-2.976 2.375,-5.355 5.336,-5.355 2.91,0 5.289,2.379 5.289,5.355 z m 21.258,0 c 0,2.891 -2.379,5.274 -5.289,5.274 -2.961,0 -5.336,-2.383 -5.336,-5.274 0,-2.976 2.375,-5.355 5.336,-5.355 2.91,0 5.289,2.379 5.289,5.355 z m 42.511,0 c 0,2.891 -2.379,5.274 -5.285,5.274 -2.961,0 -5.34,-2.383 -5.34,-5.274 0,-2.976 2.379,-5.355 5.34,-5.355 2.906,0 5.285,2.379 5.285,5.355"
         style="fill:#ffffff;fill-opacity:1;fill-rule:nonzero;stroke:none"
         id="path44" /><path
         clip-path="url(#clipPath1307)"
         d="m 489.07,425.328 c 0,2.891 -2.379,5.274 -5.289,5.274 -2.957,0 -5.336,-2.383 -5.336,-5.274 0,-2.976 2.379,-5.355 5.336,-5.355 2.91,0 5.289,2.379 5.289,5.355 z m 21.258,0 c 0,2.891 -2.379,5.274 -5.285,5.274 -2.961,0 -5.34,-2.383 -5.34,-5.274 0,-2.976 2.379,-5.355 5.34,-5.355 2.906,0 5.285,2.379 5.285,5.355 z m 42.516,0 c 0,2.891 -2.379,5.274 -5.289,5.274 -2.961,0 -5.336,-2.383 -5.336,-5.274 0,-2.976 2.375,-5.355 5.336,-5.355 2.91,0 5.289,2.379 5.289,5.355 z m 21.258,0 c 0,2.891 -2.379,5.274 -5.289,5.274 -2.961,0 -5.336,-2.383 -5.336,-5.274 0,-2.976 2.375,-5.355 5.336,-5.355 2.91,0 5.289,2.379 5.289,5.355 z m 42.511,0 c 0,2.891 -2.379,5.274 -5.285,5.274 -2.961,0 -5.34,-2.383 -5.34,-5.274 0,-2.976 2.379,-5.355 5.34,-5.355 2.906,0 5.285,2.379 5.285,5.355"
         style="fill:#ffffff;fill-opacity:1;fill-rule:nonzero;stroke:none"
         id="path46" /><path
         clip-path="url(#clipPath1303)"
         d="m 489.07,440.328 c 0,2.891 -2.379,5.274 -5.289,5.274 -2.957,0 -5.336,-2.383 -5.336,-5.274 0,-2.976 2.379,-5.355 5.336,-5.355 2.91,0 5.289,2.379 5.289,5.355 z m 21.258,0 c 0,2.891 -2.379,5.274 -5.285,5.274 -2.961,0 -5.34,-2.383 -5.34,-5.274 0,-2.976 2.379,-5.355 5.34,-5.355 2.906,0 5.285,2.379 5.285,5.355 z m 42.516,0 c 0,2.891 -2.379,5.274 -5.289,5.274 -2.961,0 -5.336,-2.383 -5.336,-5.274 0,-2.976 2.375,-5.355 5.336,-5.355 2.91,0 5.289,2.379 5.289,5.355 z m 21.258,0 c 0,2.891 -2.379,5.274 -5.289,5.274 -2.961,0 -5.336,-2.383 -5.336,-5.274 0,-2.976 2.375,-5.355 5.336,-5.355 2.91,0 5.289,2.379 5.289,5.355 z m 42.511,0 c 0,2.891 -2.379,5.274 -5.285,5.274 -2.961,0 -5.34,-2.383 -5.34,-5.274 0,-2.976 2.379,-5.355 5.34,-5.355 2.906,0 5.285,2.379 5.285,5.355 z m 21.258,0 c 0,2.891 -2.379,5.274 -5.285,5.274 -2.961,0 -5.34,-2.383 -5.34,-5.274 0,-2.976 2.379,-5.355 5.34,-5.355 2.906,0 5.285,2.379 5.285,5.355"
         style="fill:#ffffff;fill-opacity:1;fill-rule:nonzero;stroke:none"
         id="path48" /><path
         clip-path="url(#clipPath1299)"
         d="m 489.07,455.328 c 0,2.891 -2.379,5.274 -5.289,5.274 -2.957,0 -5.336,-2.383 -5.336,-5.274 0,-2.976 2.379,-5.355 5.336,-5.355 2.91,0 5.289,2.379 5.289,5.355 z m 21.258,0 c 0,2.891 -2.379,5.274 -5.285,5.274 -2.961,0 -5.34,-2.383 -5.34,-5.274 0,-2.976 2.379,-5.355 5.34,-5.355 2.906,0 5.285,2.379 5.285,5.355 z m 42.516,0 c 0,2.891 -2.379,5.274 -5.289,5.274 -2.961,0 -5.336,-2.383 -5.336,-5.274 0,-2.976 2.375,-5.355 5.336,-5.355 2.91,0 5.289,2.379 5.289,5.355 z m 21.258,0 c 0,2.891 -2.379,5.274 -5.289,5.274 -2.961,0 -5.336,-2.383 -5.336,-5.274 0,-2.976 2.375,-5.355 5.336,-5.355 2.91,0 5.289,2.379 5.289,5.355 z m 42.511,0 c 0,2.891 -2.379,5.274 -5.285,5.274 -2.961,0 -5.34,-2.383 -5.34,-5.274 0,-2.976 2.379,-5.355 5.34,-5.355 2.906,0 5.285,2.379 5.285,5.355 z m 21.258,0 c 0,2.891 -2.379,5.274 -5.285,5.274 -2.961,0 -5.34,-2.383 -5.34,-5.274 0,-2.976 2.379,-5.355 5.34,-5.355 2.906,0 5.285,2.379 5.285,5.355"
         style="fill:#ffffff;fill-opacity:1;fill-rule:nonzero;stroke:none"
         id="path50" /><path
         clip-path="url(#clipPath1295)"
         d="m 489.07,470.328 c 0,2.891 -2.379,5.274 -5.289,5.274 -2.957,0 -5.336,-2.383 -5.336,-5.274 0,-2.976 2.379,-5.355 5.336,-5.355 2.91,0 5.289,2.379 5.289,5.355 z m 21.258,0 c 0,2.891 -2.379,5.274 -5.285,5.274 -2.961,0 -5.34,-2.383 -5.34,-5.274 0,-2.976 2.379,-5.355 5.34,-5.355 2.906,0 5.285,2.379 5.285,5.355 z m 42.516,0 c 0,2.891 -2.379,5.274 -5.289,5.274 -2.961,0 -5.336,-2.383 -5.336,-5.274 0,-2.976 2.375,-5.355 5.336,-5.355 2.91,0 5.289,2.379 5.289,5.355 z m 21.258,0 c 0,2.891 -2.379,5.274 -5.289,5.274 -2.961,0 -5.336,-2.383 -5.336,-5.274 0,-2.976 2.375,-5.355 5.336,-5.355 2.91,0 5.289,2.379 5.289,5.355 z m 42.511,0 c 0,2.891 -2.379,5.274 -5.285,5.274 -2.961,0 -5.34,-2.383 -5.34,-5.274 0,-2.976 2.379,-5.355 5.34,-5.355 2.906,0 5.285,2.379 5.285,5.355 z m 21.258,0 c 0,2.891 -2.379,5.274 -5.285,5.274 -2.961,0 -5.34,-2.383 -5.34,-5.274 0,-2.976 2.379,-5.355 5.34,-5.355 2.906,0 5.285,2.379 5.285,5.355"
         style="fill:#ffffff;fill-opacity:1;fill-rule:nonzero;stroke:none"
         id="path52" /><path
         clip-path="url(#clipPath1291)"
         d="m 489.07,485.328 c 0,2.891 -2.379,5.274 -5.289,5.274 -2.957,0 -5.336,-2.383 -5.336,-5.274 0,-2.976 2.379,-5.355 5.336,-5.355 2.91,0 5.289,2.379 5.289,5.355 z m 21.258,0 c 0,2.891 -2.379,5.274 -5.285,5.274 -2.961,0 -5.34,-2.383 -5.34,-5.274 0,-2.976 2.379,-5.355 5.34,-5.355 2.906,0 5.285,2.379 5.285,5.355 z m 42.516,0 c 0,2.891 -2.379,5.274 -5.289,5.274 -2.961,0 -5.336,-2.383 -5.336,-5.274 0,-2.976 2.375,-5.355 5.336,-5.355 2.91,0 5.289,2.379 5.289,5.355 z m 21.258,0 c 0,2.891 -2.379,5.274 -5.289,5.274 -2.961,0 -5.336,-2.383 -5.336,-5.274 0,-2.976 2.375,-5.355 5.336,-5.355 2.91,0 5.289,2.379 5.289,5.355 z m 42.511,0 c 0,2.891 -2.379,5.274 -5.285,5.274 -2.961,0 -5.34,-2.383 -5.34,-5.274 0,-2.976 2.379,-5.355 5.34,-5.355 2.906,0 5.285,2.379 5.285,5.355 z m 21.258,0 c 0,2.891 -2.379,5.274 -5.285,5.274 -2.961,0 -5.34,-2.383 -5.34,-5.274 0,-2.976 2.379,-5.355 5.34,-5.355 2.906,0 5.285,2.379 5.285,5.355 z m 42.516,0 c 0,2.891 -2.379,5.274 -5.289,5.274 -2.957,0 -5.336,-2.383 -5.336,-5.274 0,-2.976 2.379,-5.355 5.336,-5.355 2.91,0 5.289,2.379 5.289,5.355"
         style="fill:#ffffff;fill-opacity:1;fill-rule:nonzero;stroke:none"
         id="path54" /><path
         clip-path="url(#clipPath1287)"
         d="m 489.07,500.328 c 0,2.891 -2.379,5.274 -5.289,5.274 -2.957,0 -5.336,-2.383 -5.336,-5.274 0,-2.976 2.379,-5.355 5.336,-5.355 2.91,0 5.289,2.379 5.289,5.355 z m 21.258,0 c 0,2.891 -2.379,5.274 -5.285,5.274 -2.961,0 -5.34,-2.383 -5.34,-5.274 0,-2.976 2.379,-5.355 5.34,-5.355 2.906,0 5.285,2.379 5.285,5.355 z m 42.516,0 c 0,2.891 -2.379,5.274 -5.289,5.274 -2.961,0 -5.336,-2.383 -5.336,-5.274 0,-2.976 2.375,-5.355 5.336,-5.355 2.91,0 5.289,2.379 5.289,5.355 z m 21.258,0 c 0,2.891 -2.379,5.274 -5.289,5.274 -2.961,0 -5.336,-2.383 -5.336,-5.274 0,-2.976 2.375,-5.355 5.336,-5.355 2.91,0 5.289,2.379 5.289,5.355 z m 42.511,0 c 0,2.891 -2.379,5.274 -5.285,5.274 -2.961,0 -5.34,-2.383 -5.34,-5.274 0,-2.976 2.379,-5.355 5.34,-5.355 2.906,0 5.285,2.379 5.285,5.355 z m 21.258,0 c 0,2.891 -2.379,5.274 -5.285,5.274 -2.961,0 -5.34,-2.383 -5.34,-5.274 0,-2.976 2.379,-5.355 5.34,-5.355 2.906,0 5.285,2.379 5.285,5.355 z m 42.516,0 c 0,2.891 -2.379,5.274 -5.289,5.274 -2.957,0 -5.336,-2.383 -5.336,-5.274 0,-2.976 2.379,-5.355 5.336,-5.355 2.91,0 5.289,2.379 5.289,5.355"
         style="fill:#ffffff;fill-opacity:1;fill-rule:nonzero;stroke:none"
         id="path56" /><path
         clip-path="url(#clipPath1283)"
         d="m 489.07,515.328 c 0,2.891 -2.379,5.274 -5.289,5.274 -2.957,0 -5.336,-2.383 -5.336,-5.274 0,-2.976 2.379,-5.355 5.336,-5.355 2.91,0 5.289,2.379 5.289,5.355 z m 21.258,0 c 0,2.891 -2.379,5.274 -5.285,5.274 -2.961,0 -5.34,-2.383 -5.34,-5.274 0,-2.976 2.379,-5.355 5.34,-5.355 2.906,0 5.285,2.379 5.285,5.355 z m 42.516,0 c 0,2.891 -2.379,5.274 -5.289,5.274 -2.961,0 -5.336,-2.383 -5.336,-5.274 0,-2.976 2.375,-5.355 5.336,-5.355 2.91,0 5.289,2.379 5.289,5.355 z m 21.258,0 c 0,2.891 -2.379,5.274 -5.289,5.274 -2.961,0 -5.336,-2.383 -5.336,-5.274 0,-2.976 2.375,-5.355 5.336,-5.355 2.91,0 5.289,2.379 5.289,5.355 z m 42.511,0 c 0,2.891 -2.379,5.274 -5.285,5.274 -2.961,0 -5.34,-2.383 -5.34,-5.274 0,-2.976 2.379,-5.355 5.34,-5.355 2.906,0 5.285,2.379 5.285,5.355 z m 21.258,0 c 0,2.891 -2.379,5.274 -5.285,5.274 -2.961,0 -5.34,-2.383 -5.34,-5.274 0,-2.976 2.379,-5.355 5.34,-5.355 2.906,0 5.285,2.379 5.285,5.355 z m 42.516,0 c 0,2.891 -2.379,5.274 -5.289,5.274 -2.957,0 -5.336,-2.383 -5.336,-5.274 0,-2.976 2.379,-5.355 5.336,-5.355 2.91,0 5.289,2.379 5.289,5.355 z m 21.258,0 c 0,2.891 -2.379,5.274 -5.29,5.274 -2.957,0 -5.335,-2.383 -5.335,-5.274 0,-2.976 2.378,-5.355 5.335,-5.355 2.911,0 5.29,2.379 5.29,5.355"
         style="fill:#ffffff;fill-opacity:1;fill-rule:nonzero;stroke:none"
         id="path58" /><path
         clip-path="url(#clipPath1279)"
         d="m 489.07,530.328 c 0,2.891 -2.379,5.274 -5.289,5.274 -2.957,0 -5.336,-2.383 -5.336,-5.274 0,-2.976 2.379,-5.355 5.336,-5.355 2.91,0 5.289,2.379 5.289,5.355 z m 21.258,0 c 0,2.891 -2.379,5.274 -5.285,5.274 -2.961,0 -5.34,-2.383 -5.34,-5.274 0,-2.976 2.379,-5.355 5.34,-5.355 2.906,0 5.285,2.379 5.285,5.355 z m 42.516,0 c 0,2.891 -2.379,5.274 -5.289,5.274 -2.961,0 -5.336,-2.383 -5.336,-5.274 0,-2.976 2.375,-5.355 5.336,-5.355 2.91,0 5.289,2.379 5.289,5.355 z m 21.258,0 c 0,2.891 -2.379,5.274 -5.289,5.274 -2.961,0 -5.336,-2.383 -5.336,-5.274 0,-2.976 2.375,-5.355 5.336,-5.355 2.91,0 5.289,2.379 5.289,5.355 z m 42.511,0 c 0,2.891 -2.379,5.274 -5.285,5.274 -2.961,0 -5.34,-2.383 -5.34,-5.274 0,-2.976 2.379,-5.355 5.34,-5.355 2.906,0 5.285,2.379 5.285,5.355 z m 21.258,0 c 0,2.891 -2.379,5.274 -5.285,5.274 -2.961,0 -5.34,-2.383 -5.34,-5.274 0,-2.976 2.379,-5.355 5.34,-5.355 2.906,0 5.285,2.379 5.285,5.355 z m 42.516,0 c 0,2.891 -2.379,5.274 -5.289,5.274 -2.957,0 -5.336,-2.383 -5.336,-5.274 0,-2.976 2.379,-5.355 5.336,-5.355 2.91,0 5.289,2.379 5.289,5.355 z m 21.258,0 c 0,2.891 -2.379,5.274 -5.29,5.274 -2.957,0 -5.335,-2.383 -5.335,-5.274 0,-2.976 2.378,-5.355 5.335,-5.355 2.911,0 5.29,2.379 5.29,5.355"
         style="fill:#ffffff;fill-opacity:1;fill-rule:nonzero;stroke:none"
         id="path60" /><path
         clip-path="url(#clipPath1275)"
         d="m 489.07,545.328 c 0,2.891 -2.379,5.274 -5.289,5.274 -2.957,0 -5.336,-2.383 -5.336,-5.274 0,-2.976 2.379,-5.355 5.336,-5.355 2.91,0 5.289,2.379 5.289,5.355 z m 21.258,0 c 0,2.891 -2.379,5.274 -5.285,5.274 -2.961,0 -5.34,-2.383 -5.34,-5.274 0,-2.976 2.379,-5.355 5.34,-5.355 2.906,0 5.285,2.379 5.285,5.355 z m 42.516,0 c 0,2.891 -2.379,5.274 -5.289,5.274 -2.961,0 -5.336,-2.383 -5.336,-5.274 0,-2.976 2.375,-5.355 5.336,-5.355 2.91,0 5.289,2.379 5.289,5.355 z m 21.258,0 c 0,2.891 -2.379,5.274 -5.289,5.274 -2.961,0 -5.336,-2.383 -5.336,-5.274 0,-2.976 2.375,-5.355 5.336,-5.355 2.91,0 5.289,2.379 5.289,5.355 z m 42.511,0 c 0,2.891 -2.379,5.274 -5.285,5.274 -2.961,0 -5.34,-2.383 -5.34,-5.274 0,-2.976 2.379,-5.355 5.34,-5.355 2.906,0 5.285,2.379 5.285,5.355 z m 21.258,0 c 0,2.891 -2.379,5.274 -5.285,5.274 -2.961,0 -5.34,-2.383 -5.34,-5.274 0,-2.976 2.379,-5.355 5.34,-5.355 2.906,0 5.285,2.379 5.285,5.355 z m 42.516,0 c 0,2.891 -2.379,5.274 -5.289,5.274 -2.957,0 -5.336,-2.383 -5.336,-5.274 0,-2.976 2.379,-5.355 5.336,-5.355 2.91,0 5.289,2.379 5.289,5.355 z m 21.258,0 c 0,2.891 -2.379,5.274 -5.29,5.274 -2.957,0 -5.335,-2.383 -5.335,-5.274 0,-2.976 2.378,-5.355 5.335,-5.355 2.911,0 5.29,2.379 5.29,5.355"
         style="fill:#ffffff;fill-opacity:1;fill-rule:nonzero;stroke:none"
         id="path62" /><path
         clip-path="url(#clipPath1271)"
         d="m 489.07,560.328 c 0,2.891 -2.379,5.274 -5.289,5.274 -2.957,0 -5.336,-2.383 -5.336,-5.274 0,-2.976 2.379,-5.355 5.336,-5.355 2.91,0 5.289,2.379 5.289,5.355 z m 21.258,0 c 0,2.891 -2.379,5.274 -5.285,5.274 -2.961,0 -5.34,-2.383 -5.34,-5.274 0,-2.976 2.379,-5.355 5.34,-5.355 2.906,0 5.285,2.379 5.285,5.355 z m 42.516,0 c 0,2.891 -2.379,5.274 -5.289,5.274 -2.961,0 -5.336,-2.383 -5.336,-5.274 0,-2.976 2.375,-5.355 5.336,-5.355 2.91,0 5.289,2.379 5.289,5.355 z m 21.258,0 c 0,2.891 -2.379,5.274 -5.289,5.274 -2.961,0 -5.336,-2.383 -5.336,-5.274 0,-2.976 2.375,-5.355 5.336,-5.355 2.91,0 5.289,2.379 5.289,5.355 z m 42.511,0 c 0,2.891 -2.379,5.274 -5.285,5.274 -2.961,0 -5.34,-2.383 -5.34,-5.274 0,-2.976 2.379,-5.355 5.34,-5.355 2.906,0 5.285,2.379 5.285,5.355 z m 21.258,0 c 0,2.891 -2.379,5.274 -5.285,5.274 -2.961,0 -5.34,-2.383 -5.34,-5.274 0,-2.976 2.379,-5.355 5.34,-5.355 2.906,0 5.285,2.379 5.285,5.355 z m 42.516,0 c 0,2.891 -2.379,5.274 -5.289,5.274 -2.957,0 -5.336,-2.383 -5.336,-5.274 0,-2.976 2.379,-5.355 5.336,-5.355 2.91,0 5.289,2.379 5.289,5.355 z m 21.258,0 c 0,2.891 -2.379,5.274 -5.29,5.274 -2.957,0 -5.335,-2.383 -5.335,-5.274 0,-2.976 2.378,-5.355 5.335,-5.355 2.911,0 5.29,2.379 5.29,5.355 z m 42.515,0 c 0,2.891 -2.379,5.274 -5.289,5.274 -2.961,0 -5.34,-2.383 -5.34,-5.274 0,-2.976 2.379,-5.355 5.34,-5.355 2.91,0 5.289,2.379 5.289,5.355"
         style="fill:#ffffff;fill-opacity:1;fill-rule:nonzero;stroke:none"
         id="path64" /><path
         clip-path="url(#clipPath1267)"
         d="m 404.043,575.328 c 0,2.891 -2.383,5.274 -5.289,5.274 -2.961,0 -5.34,-2.383 -5.34,-5.274 0,-2.976 2.379,-5.355 5.34,-5.355 2.906,0 5.289,2.379 5.289,5.355 z m 21.258,0 c 0,2.891 -2.379,5.274 -5.289,5.274 -2.961,0 -5.34,-2.383 -5.34,-5.274 0,-2.976 2.379,-5.355 5.34,-5.355 2.91,0 5.289,2.379 5.289,5.355 z m 21.258,0 c 0,2.891 -2.383,5.274 -5.289,5.274 -2.961,0 -5.34,-2.383 -5.34,-5.274 0,-2.976 2.379,-5.355 5.34,-5.355 2.906,0 5.289,2.379 5.289,5.355 z m 21.254,0 c 0,2.891 -2.379,5.274 -5.286,5.274 -2.961,0 -5.339,-2.383 -5.339,-5.274 0,-2.976 2.378,-5.355 5.339,-5.355 2.907,0 5.286,2.379 5.286,5.355 z m 21.257,0 c 0,2.891 -2.379,5.274 -5.289,5.274 -2.957,0 -5.336,-2.383 -5.336,-5.274 0,-2.976 2.379,-5.355 5.336,-5.355 2.91,0 5.289,2.379 5.289,5.355 z m 21.258,0 c 0,2.891 -2.379,5.274 -5.285,5.274 -2.961,0 -5.34,-2.383 -5.34,-5.274 0,-2.976 2.379,-5.355 5.34,-5.355 2.906,0 5.285,2.379 5.285,5.355 z m 42.516,0 c 0,2.891 -2.379,5.274 -5.289,5.274 -2.961,0 -5.336,-2.383 -5.336,-5.274 0,-2.976 2.375,-5.355 5.336,-5.355 2.91,0 5.289,2.379 5.289,5.355 z m 21.258,0 c 0,2.891 -2.379,5.274 -5.289,5.274 -2.961,0 -5.336,-2.383 -5.336,-5.274 0,-2.976 2.375,-5.355 5.336,-5.355 2.91,0 5.289,2.379 5.289,5.355 z m 42.511,0 c 0,2.891 -2.379,5.274 -5.285,5.274 -2.961,0 -5.34,-2.383 -5.34,-5.274 0,-2.976 2.379,-5.355 5.34,-5.355 2.906,0 5.285,2.379 5.285,5.355 z m 21.258,0 c 0,2.891 -2.379,5.274 -5.285,5.274 -2.961,0 -5.34,-2.383 -5.34,-5.274 0,-2.976 2.379,-5.355 5.34,-5.355 2.906,0 5.285,2.379 5.285,5.355 z m 42.516,0 c 0,2.891 -2.379,5.274 -5.289,5.274 -2.957,0 -5.336,-2.383 -5.336,-5.274 0,-2.976 2.379,-5.355 5.336,-5.355 2.91,0 5.289,2.379 5.289,5.355 z m 21.258,0 c 0,2.891 -2.379,5.274 -5.29,5.274 -2.957,0 -5.335,-2.383 -5.335,-5.274 0,-2.976 2.378,-5.355 5.335,-5.355 2.911,0 5.29,2.379 5.29,5.355 z m 42.515,0 c 0,2.891 -2.379,5.274 -5.289,5.274 -2.961,0 -5.34,-2.383 -5.34,-5.274 0,-2.976 2.379,-5.355 5.34,-5.355 2.91,0 5.289,2.379 5.289,5.355"
         style="fill:#ffffff;fill-opacity:1;fill-rule:nonzero;stroke:none"
         id="path66" /><path
         clip-path="url(#clipPath1263)"
         d="m 425.301,590.328 c 0,2.891 -2.379,5.274 -5.289,5.274 -2.961,0 -5.34,-2.383 -5.34,-5.274 0,-2.976 2.379,-5.355 5.34,-5.355 2.91,0 5.289,2.379 5.289,5.355 z m 21.258,0 c 0,2.891 -2.383,5.274 -5.289,5.274 -2.961,0 -5.34,-2.383 -5.34,-5.274 0,-2.976 2.379,-5.355 5.34,-5.355 2.906,0 5.289,2.379 5.289,5.355 z m 21.254,0 c 0,2.891 -2.379,5.274 -5.286,5.274 -2.961,0 -5.339,-2.383 -5.339,-5.274 0,-2.976 2.378,-5.355 5.339,-5.355 2.907,0 5.286,2.379 5.286,5.355 z m 21.257,0 c 0,2.891 -2.379,5.274 -5.289,5.274 -2.957,0 -5.336,-2.383 -5.336,-5.274 0,-2.976 2.379,-5.355 5.336,-5.355 2.91,0 5.289,2.379 5.289,5.355 z m 21.258,0 c 0,2.891 -2.379,5.274 -5.285,5.274 -2.961,0 -5.34,-2.383 -5.34,-5.274 0,-2.976 2.379,-5.355 5.34,-5.355 2.906,0 5.285,2.379 5.285,5.355 z m 42.516,0 c 0,2.891 -2.379,5.274 -5.289,5.274 -2.961,0 -5.336,-2.383 -5.336,-5.274 0,-2.976 2.375,-5.355 5.336,-5.355 2.91,0 5.289,2.379 5.289,5.355 z m 21.258,0 c 0,2.891 -2.379,5.274 -5.289,5.274 -2.961,0 -5.336,-2.383 -5.336,-5.274 0,-2.976 2.375,-5.355 5.336,-5.355 2.91,0 5.289,2.379 5.289,5.355 z m 42.511,0 c 0,2.891 -2.379,5.274 -5.285,5.274 -2.961,0 -5.34,-2.383 -5.34,-5.274 0,-2.976 2.379,-5.355 5.34,-5.355 2.906,0 5.285,2.379 5.285,5.355 z m 21.258,0 c 0,2.891 -2.379,5.274 -5.285,5.274 -2.961,0 -5.34,-2.383 -5.34,-5.274 0,-2.976 2.379,-5.355 5.34,-5.355 2.906,0 5.285,2.379 5.285,5.355 z m 42.516,0 c 0,2.891 -2.379,5.274 -5.289,5.274 -2.957,0 -5.336,-2.383 -5.336,-5.274 0,-2.976 2.379,-5.355 5.336,-5.355 2.91,0 5.289,2.379 5.289,5.355 z m 21.258,0 c 0,2.891 -2.379,5.274 -5.29,5.274 -2.957,0 -5.335,-2.383 -5.335,-5.274 0,-2.976 2.378,-5.355 5.335,-5.355 2.911,0 5.29,2.379 5.29,5.355 z m 42.515,0 c 0,2.891 -2.379,5.274 -5.289,5.274 -2.961,0 -5.34,-2.383 -5.34,-5.274 0,-2.976 2.379,-5.355 5.34,-5.355 2.91,0 5.289,2.379 5.289,5.355 z m 21.258,0 c 0,2.891 -2.383,5.274 -5.289,5.274 -2.961,0 -5.34,-2.383 -5.34,-5.274 0,-2.976 2.379,-5.355 5.34,-5.355 2.906,0 5.289,2.379 5.289,5.355"
         style="fill:#ffffff;fill-opacity:1;fill-rule:nonzero;stroke:none"
         id="path68" /><path
         clip-path="url(#clipPath1259)"
         d="m 552.844,605.328 c 0,2.891 -2.379,5.274 -5.289,5.274 -2.961,0 -5.336,-2.383 -5.336,-5.274 0,-2.976 2.375,-5.355 5.336,-5.355 2.91,0 5.289,2.379 5.289,5.355 z m 21.258,0 c 0,2.891 -2.379,5.274 -5.289,5.274 -2.961,0 -5.336,-2.383 -5.336,-5.274 0,-2.976 2.375,-5.355 5.336,-5.355 2.91,0 5.289,2.379 5.289,5.355 z m 42.511,0 c 0,2.891 -2.379,5.274 -5.285,5.274 -2.961,0 -5.34,-2.383 -5.34,-5.274 0,-2.976 2.379,-5.355 5.34,-5.355 2.906,0 5.285,2.379 5.285,5.355 z m 21.258,0 c 0,2.891 -2.379,5.274 -5.285,5.274 -2.961,0 -5.34,-2.383 -5.34,-5.274 0,-2.976 2.379,-5.355 5.34,-5.355 2.906,0 5.285,2.379 5.285,5.355 z m 42.516,0 c 0,2.891 -2.379,5.274 -5.289,5.274 -2.957,0 -5.336,-2.383 -5.336,-5.274 0,-2.976 2.379,-5.355 5.336,-5.355 2.91,0 5.289,2.379 5.289,5.355 z m 21.258,0 c 0,2.891 -2.379,5.274 -5.29,5.274 -2.957,0 -5.335,-2.383 -5.335,-5.274 0,-2.976 2.378,-5.355 5.335,-5.355 2.911,0 5.29,2.379 5.29,5.355 z m 42.515,0 c 0,2.891 -2.379,5.274 -5.289,5.274 -2.961,0 -5.34,-2.383 -5.34,-5.274 0,-2.976 2.379,-5.355 5.34,-5.355 2.91,0 5.289,2.379 5.289,5.355 z m 21.258,0 c 0,2.891 -2.383,5.274 -5.289,5.274 -2.961,0 -5.34,-2.383 -5.34,-5.274 0,-2.976 2.379,-5.355 5.34,-5.355 2.906,0 5.289,2.379 5.289,5.355"
         style="fill:#ffffff;fill-opacity:1;fill-rule:nonzero;stroke:none"
         id="path70" /><path
         clip-path="url(#clipPath1255)"
         d="m 552.844,620.328 c 0,2.891 -2.379,5.274 -5.289,5.274 -2.961,0 -5.336,-2.383 -5.336,-5.274 0,-2.976 2.375,-5.355 5.336,-5.355 2.91,0 5.289,2.379 5.289,5.355 z m 21.258,0 c 0,2.891 -2.379,5.274 -5.289,5.274 -2.961,0 -5.336,-2.383 -5.336,-5.274 0,-2.976 2.375,-5.355 5.336,-5.355 2.91,0 5.289,2.379 5.289,5.355 z m 42.511,0 c 0,2.891 -2.379,5.274 -5.285,5.274 -2.961,0 -5.34,-2.383 -5.34,-5.274 0,-2.976 2.379,-5.355 5.34,-5.355 2.906,0 5.285,2.379 5.285,5.355 z m 21.258,0 c 0,2.891 -2.379,5.274 -5.285,5.274 -2.961,0 -5.34,-2.383 -5.34,-5.274 0,-2.976 2.379,-5.355 5.34,-5.355 2.906,0 5.285,2.379 5.285,5.355 z m 42.516,0 c 0,2.891 -2.379,5.274 -5.289,5.274 -2.957,0 -5.336,-2.383 -5.336,-5.274 0,-2.976 2.379,-5.355 5.336,-5.355 2.91,0 5.289,2.379 5.289,5.355 z m 21.258,0 c 0,2.891 -2.379,5.274 -5.29,5.274 -2.957,0 -5.335,-2.383 -5.335,-5.274 0,-2.976 2.378,-5.355 5.335,-5.355 2.911,0 5.29,2.379 5.29,5.355 z m 42.515,0 c 0,2.891 -2.379,5.274 -5.289,5.274 -2.961,0 -5.34,-2.383 -5.34,-5.274 0,-2.976 2.379,-5.355 5.34,-5.355 2.91,0 5.289,2.379 5.289,5.355 z m 21.258,0 c 0,2.891 -2.383,5.274 -5.289,5.274 -2.961,0 -5.34,-2.383 -5.34,-5.274 0,-2.976 2.379,-5.355 5.34,-5.355 2.906,0 5.289,2.379 5.289,5.355"
         style="fill:#ffffff;fill-opacity:1;fill-rule:nonzero;stroke:none"
         id="path72" /><path
         clip-path="url(#clipPath1251)"
         d="m 552.844,635.328 c 0,2.891 -2.379,5.274 -5.289,5.274 -2.961,0 -5.336,-2.383 -5.336,-5.274 0,-2.976 2.375,-5.355 5.336,-5.355 2.91,0 5.289,2.379 5.289,5.355 z m 21.258,0 c 0,2.891 -2.379,5.274 -5.289,5.274 -2.961,0 -5.336,-2.383 -5.336,-5.274 0,-2.976 2.375,-5.355 5.336,-5.355 2.91,0 5.289,2.379 5.289,5.355 z m 42.511,0 c 0,2.891 -2.379,5.274 -5.285,5.274 -2.961,0 -5.34,-2.383 -5.34,-5.274 0,-2.976 2.379,-5.355 5.34,-5.355 2.906,0 5.285,2.379 5.285,5.355 z m 21.258,0 c 0,2.891 -2.379,5.274 -5.285,5.274 -2.961,0 -5.34,-2.383 -5.34,-5.274 0,-2.976 2.379,-5.355 5.34,-5.355 2.906,0 5.285,2.379 5.285,5.355 z m 42.516,0 c 0,2.891 -2.379,5.274 -5.289,5.274 -2.957,0 -5.336,-2.383 -5.336,-5.274 0,-2.976 2.379,-5.355 5.336,-5.355 2.91,0 5.289,2.379 5.289,5.355 z m 21.258,0 c 0,2.891 -2.379,5.274 -5.29,5.274 -2.957,0 -5.335,-2.383 -5.335,-5.274 0,-2.976 2.378,-5.355 5.335,-5.355 2.911,0 5.29,2.379 5.29,5.355 z m 42.515,0 c 0,2.891 -2.379,5.274 -5.289,5.274 -2.961,0 -5.34,-2.383 -5.34,-5.274 0,-2.976 2.379,-5.355 5.34,-5.355 2.91,0 5.289,2.379 5.289,5.355 z m 21.258,0 c 0,2.891 -2.383,5.274 -5.289,5.274 -2.961,0 -5.34,-2.383 -5.34,-5.274 0,-2.976 2.379,-5.355 5.34,-5.355 2.906,0 5.289,2.379 5.289,5.355"
         style="fill:#ffffff;fill-opacity:1;fill-rule:nonzero;stroke:none"
         id="path74" /><path
         clip-path="url(#clipPath1247)"
         d="m 552.844,650.328 c 0,2.891 -2.379,5.274 -5.289,5.274 -2.961,0 -5.336,-2.383 -5.336,-5.274 0,-2.976 2.375,-5.355 5.336,-5.355 2.91,0 5.289,2.379 5.289,5.355 z m 21.258,0 c 0,2.891 -2.379,5.274 -5.289,5.274 -2.961,0 -5.336,-2.383 -5.336,-5.274 0,-2.976 2.375,-5.355 5.336,-5.355 2.91,0 5.289,2.379 5.289,5.355 z m 42.511,0 c 0,2.891 -2.379,5.274 -5.285,5.274 -2.961,0 -5.34,-2.383 -5.34,-5.274 0,-2.976 2.379,-5.355 5.34,-5.355 2.906,0 5.285,2.379 5.285,5.355 z m 21.258,0 c 0,2.891 -2.379,5.274 -5.285,5.274 -2.961,0 -5.34,-2.383 -5.34,-5.274 0,-2.976 2.379,-5.355 5.34,-5.355 2.906,0 5.285,2.379 5.285,5.355 z m 42.516,0 c 0,2.891 -2.379,5.274 -5.289,5.274 -2.957,0 -5.336,-2.383 -5.336,-5.274 0,-2.976 2.379,-5.355 5.336,-5.355 2.91,0 5.289,2.379 5.289,5.355 z m 21.258,0 c 0,2.891 -2.379,5.274 -5.29,5.274 -2.957,0 -5.335,-2.383 -5.335,-5.274 0,-2.976 2.378,-5.355 5.335,-5.355 2.911,0 5.29,2.379 5.29,5.355 z m 42.515,0 c 0,2.891 -2.379,5.274 -5.289,5.274 -2.961,0 -5.34,-2.383 -5.34,-5.274 0,-2.976 2.379,-5.355 5.34,-5.355 2.91,0 5.289,2.379 5.289,5.355 z m 21.258,0 c 0,2.891 -2.383,5.274 -5.289,5.274 -2.961,0 -5.34,-2.383 -5.34,-5.274 0,-2.976 2.379,-5.355 5.34,-5.355 2.906,0 5.289,2.379 5.289,5.355"
         style="fill:#ffffff;fill-opacity:1;fill-rule:nonzero;stroke:none"
         id="path76" /><path
         clip-path="url(#clipPath1243)"
         d="m 552.844,665.328 c 0,2.891 -2.379,5.274 -5.289,5.274 -2.961,0 -5.336,-2.383 -5.336,-5.274 0,-2.976 2.375,-5.355 5.336,-5.355 2.91,0 5.289,2.379 5.289,5.355 z m 21.258,0 c 0,2.891 -2.379,5.274 -5.289,5.274 -2.961,0 -5.336,-2.383 -5.336,-5.274 0,-2.976 2.375,-5.355 5.336,-5.355 2.91,0 5.289,2.379 5.289,5.355 z m 42.511,0 c 0,2.891 -2.379,5.274 -5.285,5.274 -2.961,0 -5.34,-2.383 -5.34,-5.274 0,-2.976 2.379,-5.355 5.34,-5.355 2.906,0 5.285,2.379 5.285,5.355 z m 21.258,0 c 0,2.891 -2.379,5.274 -5.285,5.274 -2.961,0 -5.34,-2.383 -5.34,-5.274 0,-2.976 2.379,-5.355 5.34,-5.355 2.906,0 5.285,2.379 5.285,5.355 z m 42.516,0 c 0,2.891 -2.379,5.274 -5.289,5.274 -2.957,0 -5.336,-2.383 -5.336,-5.274 0,-2.976 2.379,-5.355 5.336,-5.355 2.91,0 5.289,2.379 5.289,5.355 z m 21.258,0 c 0,2.891 -2.379,5.274 -5.29,5.274 -2.957,0 -5.335,-2.383 -5.335,-5.274 0,-2.976 2.378,-5.355 5.335,-5.355 2.911,0 5.29,2.379 5.29,5.355 z m 42.515,0 c 0,2.891 -2.379,5.274 -5.289,5.274 -2.961,0 -5.34,-2.383 -5.34,-5.274 0,-2.976 2.379,-5.355 5.34,-5.355 2.91,0 5.289,2.379 5.289,5.355 z m 21.258,0 c 0,2.891 -2.383,5.274 -5.289,5.274 -2.961,0 -5.34,-2.383 -5.34,-5.274 0,-2.976 2.379,-5.355 5.34,-5.355 2.906,0 5.289,2.379 5.289,5.355"
         style="fill:#ffffff;fill-opacity:1;fill-rule:nonzero;stroke:none"
         id="path78" /><path
         clip-path="url(#clipPath1239)"
         d="m 552.844,680.328 c 0,2.891 -2.379,5.274 -5.289,5.274 -2.961,0 -5.336,-2.383 -5.336,-5.274 0,-2.976 2.375,-5.355 5.336,-5.355 2.91,0 5.289,2.379 5.289,5.355 z m 21.258,0 c 0,2.891 -2.379,5.274 -5.289,5.274 -2.961,0 -5.336,-2.383 -5.336,-5.274 0,-2.976 2.375,-5.355 5.336,-5.355 2.91,0 5.289,2.379 5.289,5.355 z m 42.511,0 c 0,2.891 -2.379,5.274 -5.285,5.274 -2.961,0 -5.34,-2.383 -5.34,-5.274 0,-2.976 2.379,-5.355 5.34,-5.355 2.906,0 5.285,2.379 5.285,5.355 z m 21.258,0 c 0,2.891 -2.379,5.274 -5.285,5.274 -2.961,0 -5.34,-2.383 -5.34,-5.274 0,-2.976 2.379,-5.355 5.34,-5.355 2.906,0 5.285,2.379 5.285,5.355 z m 42.516,0 c 0,2.891 -2.379,5.274 -5.289,5.274 -2.957,0 -5.336,-2.383 -5.336,-5.274 0,-2.976 2.379,-5.355 5.336,-5.355 2.91,0 5.289,2.379 5.289,5.355 z m 21.258,0 c 0,2.891 -2.379,5.274 -5.29,5.274 -2.957,0 -5.335,-2.383 -5.335,-5.274 0,-2.976 2.378,-5.355 5.335,-5.355 2.911,0 5.29,2.379 5.29,5.355 z m 42.515,0 c 0,2.891 -2.379,5.274 -5.289,5.274 -2.961,0 -5.34,-2.383 -5.34,-5.274 0,-2.976 2.379,-5.355 5.34,-5.355 2.91,0 5.289,2.379 5.289,5.355 z m 21.258,0 c 0,2.891 -2.383,5.274 -5.289,5.274 -2.961,0 -5.34,-2.383 -5.34,-5.274 0,-2.976 2.379,-5.355 5.34,-5.355 2.906,0 5.289,2.379 5.289,5.355"
         style="fill:#ffffff;fill-opacity:1;fill-rule:nonzero;stroke:none"
         id="path80" /><path
         clip-path="url(#clipPath1235)"
         d="m 467.813,695.328 c 0,2.891 -2.379,5.274 -5.286,5.274 -2.961,0 -5.339,-2.383 -5.339,-5.274 0,-2.976 2.378,-5.355 5.339,-5.355 2.907,0 5.286,2.379 5.286,5.355 z m 21.257,0 c 0,2.891 -2.379,5.274 -5.289,5.274 -2.957,0 -5.336,-2.383 -5.336,-5.274 0,-2.976 2.379,-5.355 5.336,-5.355 2.91,0 5.289,2.379 5.289,5.355 z m 21.258,0 c 0,2.891 -2.379,5.274 -5.285,5.274 -2.961,0 -5.34,-2.383 -5.34,-5.274 0,-2.976 2.379,-5.355 5.34,-5.355 2.906,0 5.285,2.379 5.285,5.355 z m 21.258,0 c 0,2.891 -2.379,5.274 -5.289,5.274 -2.957,0 -5.336,-2.383 -5.336,-5.274 0,-2.976 2.379,-5.355 5.336,-5.355 2.91,0 5.289,2.379 5.289,5.355 z m 21.258,0 c 0,2.891 -2.379,5.274 -5.289,5.274 -2.961,0 -5.336,-2.383 -5.336,-5.274 0,-2.976 2.375,-5.355 5.336,-5.355 2.91,0 5.289,2.379 5.289,5.355 z m 21.258,0 c 0,2.891 -2.379,5.274 -5.289,5.274 -2.961,0 -5.336,-2.383 -5.336,-5.274 0,-2.976 2.375,-5.355 5.336,-5.355 2.91,0 5.289,2.379 5.289,5.355 z m 42.511,0 c 0,2.891 -2.379,5.274 -5.285,5.274 -2.961,0 -5.34,-2.383 -5.34,-5.274 0,-2.976 2.379,-5.355 5.34,-5.355 2.906,0 5.285,2.379 5.285,5.355 z m 21.258,0 c 0,2.891 -2.379,5.274 -5.285,5.274 -2.961,0 -5.34,-2.383 -5.34,-5.274 0,-2.976 2.379,-5.355 5.34,-5.355 2.906,0 5.285,2.379 5.285,5.355 z m 42.516,0 c 0,2.891 -2.379,5.274 -5.289,5.274 -2.957,0 -5.336,-2.383 -5.336,-5.274 0,-2.976 2.379,-5.355 5.336,-5.355 2.91,0 5.289,2.379 5.289,5.355 z m 21.258,0 c 0,2.891 -2.379,5.274 -5.29,5.274 -2.957,0 -5.335,-2.383 -5.335,-5.274 0,-2.976 2.378,-5.355 5.335,-5.355 2.911,0 5.29,2.379 5.29,5.355 z m 42.515,0 c 0,2.891 -2.379,5.274 -5.289,5.274 -2.961,0 -5.34,-2.383 -5.34,-5.274 0,-2.976 2.379,-5.355 5.34,-5.355 2.91,0 5.289,2.379 5.289,5.355 z m 21.258,0 c 0,2.891 -2.383,5.274 -5.289,5.274 -2.961,0 -5.34,-2.383 -5.34,-5.274 0,-2.976 2.379,-5.355 5.34,-5.355 2.906,0 5.289,2.379 5.289,5.355"
         style="fill:#ffffff;fill-opacity:1;fill-rule:nonzero;stroke:none"
         id="path82" /><path
         clip-path="url(#clipPath1231)"
         d="m 489.07,710.328 c 0,2.891 -2.379,5.274 -5.289,5.274 -2.957,0 -5.336,-2.383 -5.336,-5.274 0,-2.976 2.379,-5.355 5.336,-5.355 2.91,0 5.289,2.379 5.289,5.355 z m 21.258,0 c 0,2.891 -2.379,5.274 -5.285,5.274 -2.961,0 -5.34,-2.383 -5.34,-5.274 0,-2.976 2.379,-5.355 5.34,-5.355 2.906,0 5.285,2.379 5.285,5.355 z m 21.258,0 c 0,2.891 -2.379,5.274 -5.289,5.274 -2.957,0 -5.336,-2.383 -5.336,-5.274 0,-2.976 2.379,-5.355 5.336,-5.355 2.91,0 5.289,2.379 5.289,5.355 z m 21.258,0 c 0,2.891 -2.379,5.274 -5.289,5.274 -2.961,0 -5.336,-2.383 -5.336,-5.274 0,-2.976 2.375,-5.355 5.336,-5.355 2.91,0 5.289,2.379 5.289,5.355 z m 21.258,0 c 0,2.891 -2.379,5.274 -5.289,5.274 -2.961,0 -5.336,-2.383 -5.336,-5.274 0,-2.976 2.375,-5.355 5.336,-5.355 2.91,0 5.289,2.379 5.289,5.355 z m 42.511,0 c 0,2.891 -2.379,5.274 -5.285,5.274 -2.961,0 -5.34,-2.383 -5.34,-5.274 0,-2.976 2.379,-5.355 5.34,-5.355 2.906,0 5.285,2.379 5.285,5.355 z m 21.258,0 c 0,2.891 -2.379,5.274 -5.285,5.274 -2.961,0 -5.34,-2.383 -5.34,-5.274 0,-2.976 2.379,-5.355 5.34,-5.355 2.906,0 5.285,2.379 5.285,5.355 z m 42.516,0 c 0,2.891 -2.379,5.274 -5.289,5.274 -2.957,0 -5.336,-2.383 -5.336,-5.274 0,-2.976 2.379,-5.355 5.336,-5.355 2.91,0 5.289,2.379 5.289,5.355 z m 21.258,0 c 0,2.891 -2.379,5.274 -5.29,5.274 -2.957,0 -5.335,-2.383 -5.335,-5.274 0,-2.976 2.378,-5.355 5.335,-5.355 2.911,0 5.29,2.379 5.29,5.355 z m 42.515,0 c 0,2.891 -2.379,5.274 -5.289,5.274 -2.961,0 -5.34,-2.383 -5.34,-5.274 0,-2.976 2.379,-5.355 5.34,-5.355 2.91,0 5.289,2.379 5.289,5.355 z m 21.258,0 c 0,2.891 -2.383,5.274 -5.289,5.274 -2.961,0 -5.34,-2.383 -5.34,-5.274 0,-2.976 2.379,-5.355 5.34,-5.355 2.906,0 5.289,2.379 5.289,5.355"
         style="fill:#ffffff;fill-opacity:1;fill-rule:nonzero;stroke:none"
         id="path84" /><path
         clip-path="url(#clipPath1227)"
         d="m 616.613,725.328 c 0,2.891 -2.379,5.274 -5.285,5.274 -2.961,0 -5.34,-2.383 -5.34,-5.274 0,-2.976 2.379,-5.355 5.34,-5.355 2.906,0 5.285,2.379 5.285,5.355 z m 21.258,0 c 0,2.891 -2.379,5.274 -5.285,5.274 -2.961,0 -5.34,-2.383 -5.34,-5.274 0,-2.976 2.379,-5.355 5.34,-5.355 2.906,0 5.285,2.379 5.285,5.355 z m 42.516,0 c 0,2.891 -2.379,5.274 -5.289,5.274 -2.957,0 -5.336,-2.383 -5.336,-5.274 0,-2.976 2.379,-5.355 5.336,-5.355 2.91,0 5.289,2.379 5.289,5.355 z m 21.258,0 c 0,2.891 -2.379,5.274 -5.29,5.274 -2.957,0 -5.335,-2.383 -5.335,-5.274 0,-2.976 2.378,-5.355 5.335,-5.355 2.911,0 5.29,2.379 5.29,5.355 z m 42.515,0 c 0,2.891 -2.379,5.274 -5.289,5.274 -2.961,0 -5.34,-2.383 -5.34,-5.274 0,-2.976 2.379,-5.355 5.34,-5.355 2.91,0 5.289,2.379 5.289,5.355 z m 21.258,0 c 0,2.891 -2.383,5.274 -5.289,5.274 -2.961,0 -5.34,-2.383 -5.34,-5.274 0,-2.976 2.379,-5.355 5.34,-5.355 2.906,0 5.289,2.379 5.289,5.355"
         style="fill:#ffffff;fill-opacity:1;fill-rule:nonzero;stroke:none"
         id="path86" /><path
         clip-path="url(#clipPath1223)"
         d="m 616.613,740.328 c 0,2.891 -2.379,5.274 -5.285,5.274 -2.961,0 -5.34,-2.383 -5.34,-5.274 0,-2.976 2.379,-5.355 5.34,-5.355 2.906,0 5.285,2.379 5.285,5.355 z m 21.258,0 c 0,2.891 -2.379,5.274 -5.285,5.274 -2.961,0 -5.34,-2.383 -5.34,-5.274 0,-2.976 2.379,-5.355 5.34,-5.355 2.906,0 5.285,2.379 5.285,5.355 z m 42.516,0 c 0,2.891 -2.379,5.274 -5.289,5.274 -2.957,0 -5.336,-2.383 -5.336,-5.274 0,-2.976 2.379,-5.355 5.336,-5.355 2.91,0 5.289,2.379 5.289,5.355 z m 21.258,0 c 0,2.891 -2.379,5.274 -5.29,5.274 -2.957,0 -5.335,-2.383 -5.335,-5.274 0,-2.976 2.378,-5.355 5.335,-5.355 2.911,0 5.29,2.379 5.29,5.355 z m 63.773,0 c 0,2.891 -2.383,5.274 -5.289,5.274 -2.961,0 -5.34,-2.383 -5.34,-5.274 0,-2.976 2.379,-5.355 5.34,-5.355 2.906,0 5.289,2.379 5.289,5.355"
         style="fill:#ffffff;fill-opacity:1;fill-rule:nonzero;stroke:none"
         id="path88" /><path
         clip-path="url(#clipPath1219)"
         d="m 616.613,755.328 c 0,2.891 -2.379,5.274 -5.285,5.274 -2.961,0 -5.34,-2.383 -5.34,-5.274 0,-2.976 2.379,-5.355 5.34,-5.355 2.906,0 5.285,2.379 5.285,5.355 z m 21.258,0 c 0,2.891 -2.379,5.274 -5.285,5.274 -2.961,0 -5.34,-2.383 -5.34,-5.274 0,-2.976 2.379,-5.355 5.34,-5.355 2.906,0 5.285,2.379 5.285,5.355 z m 42.516,0 c 0,2.891 -2.379,5.274 -5.289,5.274 -2.957,0 -5.336,-2.383 -5.336,-5.274 0,-2.976 2.379,-5.355 5.336,-5.355 2.91,0 5.289,2.379 5.289,5.355 z m 21.258,0 c 0,2.891 -2.379,5.274 -5.29,5.274 -2.957,0 -5.335,-2.383 -5.335,-5.274 0,-2.976 2.378,-5.355 5.335,-5.355 2.911,0 5.29,2.379 5.29,5.355"
         style="fill:#ffffff;fill-opacity:1;fill-rule:nonzero;stroke:none"
         id="path90" /><path
         clip-path="url(#clipPath1215)"
         d="m 616.613,770.328 c 0,2.891 -2.379,5.274 -5.285,5.274 -2.961,0 -5.34,-2.383 -5.34,-5.274 0,-2.976 2.379,-5.355 5.34,-5.355 2.906,0 5.285,2.379 5.285,5.355 z m 21.258,0 c 0,2.891 -2.379,5.274 -5.285,5.274 -2.961,0 -5.34,-2.383 -5.34,-5.274 0,-2.976 2.379,-5.355 5.34,-5.355 2.906,0 5.285,2.379 5.285,5.355 z m 63.774,0 c 0,2.891 -2.379,5.274 -5.29,5.274 -2.957,0 -5.335,-2.383 -5.335,-5.274 0,-2.976 2.378,-5.355 5.335,-5.355 2.911,0 5.29,2.379 5.29,5.355"
         style="fill:#ffffff;fill-opacity:1;fill-rule:nonzero;stroke:none"
         id="path92" /><path
         clip-path="url(#clipPath1211)"
         d="m 531.586,785.328 c 0,2.891 -2.379,5.274 -5.289,5.274 -2.957,0 -5.336,-2.383 -5.336,-5.274 0,-2.976 2.379,-5.355 5.336,-5.355 2.91,0 5.289,2.379 5.289,5.355 z m 21.258,0 c 0,2.891 -2.379,5.274 -5.289,5.274 -2.961,0 -5.336,-2.383 -5.336,-5.274 0,-2.976 2.375,-5.355 5.336,-5.355 2.91,0 5.289,2.379 5.289,5.355 z m 21.258,0 c 0,2.891 -2.379,5.274 -5.289,5.274 -2.961,0 -5.336,-2.383 -5.336,-5.274 0,-2.976 2.375,-5.355 5.336,-5.355 2.91,0 5.289,2.379 5.289,5.355 z m 21.257,0 c 0,2.891 -2.382,5.274 -5.289,5.274 -2.961,0 -5.34,-2.383 -5.34,-5.274 0,-2.976 2.379,-5.355 5.34,-5.355 2.907,0 5.289,2.379 5.289,5.355 z m 21.254,0 c 0,2.891 -2.379,5.274 -5.285,5.274 -2.961,0 -5.34,-2.383 -5.34,-5.274 0,-2.976 2.379,-5.355 5.34,-5.355 2.906,0 5.285,2.379 5.285,5.355 z m 21.258,0 c 0,2.891 -2.379,5.274 -5.285,5.274 -2.961,0 -5.34,-2.383 -5.34,-5.274 0,-2.976 2.379,-5.355 5.34,-5.355 2.906,0 5.285,2.379 5.285,5.355"
         style="fill:#ffffff;fill-opacity:1;fill-rule:nonzero;stroke:none"
         id="path94" /><path
         clip-path="url(#clipPath1207)"
         d="m 552.844,800.328 c 0,2.891 -2.379,5.274 -5.289,5.274 -2.961,0 -5.336,-2.383 -5.336,-5.274 0,-2.976 2.375,-5.355 5.336,-5.355 2.91,0 5.289,2.379 5.289,5.355 z m 21.258,0 c 0,2.891 -2.379,5.274 -5.289,5.274 -2.961,0 -5.336,-2.383 -5.336,-5.274 0,-2.976 2.375,-5.355 5.336,-5.355 2.91,0 5.289,2.379 5.289,5.355 z m 21.257,0 c 0,2.891 -2.382,5.274 -5.289,5.274 -2.961,0 -5.34,-2.383 -5.34,-5.274 0,-2.976 2.379,-5.355 5.34,-5.355 2.907,0 5.289,2.379 5.289,5.355 z m 21.254,0 c 0,2.891 -2.379,5.274 -5.285,5.274 -2.961,0 -5.34,-2.383 -5.34,-5.274 0,-2.976 2.379,-5.355 5.34,-5.355 2.906,0 5.285,2.379 5.285,5.355 z m 21.258,0 c 0,2.891 -2.379,5.274 -5.285,5.274 -2.961,0 -5.34,-2.383 -5.34,-5.274 0,-2.976 2.379,-5.355 5.34,-5.355 2.906,0 5.285,2.379 5.285,5.355"
         style="fill:#ffffff;fill-opacity:1;fill-rule:nonzero;stroke:none"
         id="path96" /></g></g></svg>